{"glyphs":{"0":{"ha":810,"x_min":53,"x_max":756,"o":"m 405 -13 q 142 113 231 -13 q 53 514 53 240 q 142 915 53 789 q 405 1041 231 1041 q 667 915 578 1041 q 756 514 756 789 q 667 113 756 240 q 405 -13 578 -13 m 405 158 q 487 191 455 158 q 536 302 519 224 q 552 513 552 379 q 536 725 552 647 q 487 836 519 803 q 405 869 455 869 q 323 836 355 869 q 274 726 290 803 q 257 515 257 648 q 274 302 257 381 q 323 191 290 224 q 405 158 355 158 z "},"1":{"ha":467,"x_min":8,"x_max":384,"o":"m 258 1031 l 384 1031 l 384 0 l 178 0 l 178 787 l 8 675 l 8 867 l 258 1031 z "},"2":{"ha":645,"x_min":13,"x_max":615,"o":"m 615 181 l 615 0 l 26 0 l 26 116 l 261 467 q 343 614 318 551 q 369 730 369 676 q 328 834 369 801 q 200 867 287 867 q 13 832 99 867 l 13 1006 q 115 1031 53 1022 q 231 1041 176 1041 q 484 971 396 1041 q 573 748 573 901 q 545 590 573 671 q 449 412 517 510 l 290 181 l 615 181 z "},"3":{"ha":658,"x_min":20,"x_max":624,"o":"m 424 532 q 574 445 523 510 q 624 281 624 381 q 579 121 624 188 q 449 21 534 55 q 244 -13 363 -13 q 20 18 126 -13 l 20 181 q 129 158 70 166 q 239 150 188 150 q 381 185 334 150 q 427 294 427 221 q 378 405 427 367 q 224 442 330 442 l 113 442 l 113 609 l 205 609 q 350 646 303 609 q 397 751 397 683 q 357 847 397 815 q 229 878 316 878 q 127 869 178 878 q 32 843 76 860 l 32 1006 q 136 1031 75 1022 q 256 1041 198 1041 q 508 972 422 1041 q 594 773 594 903 q 550 619 594 683 q 424 532 505 556 z "},"4":{"ha":779,"x_min":23,"x_max":760,"o":"m 760 378 l 760 219 l 640 219 l 640 0 l 458 0 l 458 219 l 23 219 l 23 335 l 342 1028 l 538 1028 l 246 378 l 458 378 l 480 681 l 640 681 l 640 378 l 760 378 z "},"5":{"ha":665,"x_min":40,"x_max":641,"o":"m 269 619 q 551 528 461 603 q 641 305 641 452 q 543 67 641 148 q 264 -13 445 -13 q 40 20 145 -13 l 40 183 q 149 159 90 167 q 259 150 208 150 q 399 186 353 150 q 444 297 444 222 q 419 381 444 349 q 332 433 394 414 q 159 459 270 452 l 67 465 l 99 1028 l 603 1028 l 603 857 l 283 857 l 269 619 z "},"6":{"ha":764,"x_min":60,"x_max":736,"o":"m 444 616 q 591 583 525 616 q 697 481 657 550 q 736 310 736 413 q 695 135 736 208 q 582 25 654 63 q 415 -13 509 -13 q 155 104 249 -13 q 60 485 60 222 q 178 906 60 770 q 513 1041 296 1041 q 688 1015 623 1041 l 688 849 q 607 868 647 863 q 518 874 567 874 q 331 800 394 874 q 263 558 268 726 q 345 601 299 586 q 444 616 392 616 m 417 145 q 512 184 475 145 q 549 303 549 224 q 509 421 549 383 q 404 460 470 460 q 329 447 365 460 q 264 409 293 435 q 287 249 267 307 q 339 168 306 191 q 417 145 371 145 z "},"7":{"ha":617,"x_min":6,"x_max":578,"o":"m 6 1028 l 578 1028 l 578 912 l 287 0 l 74 0 l 358 847 l 6 847 l 6 1028 z "},"8":{"ha":810,"x_min":45,"x_max":764,"o":"m 595 538 q 726 427 688 489 q 764 275 764 365 q 721 124 764 190 q 598 23 678 59 q 408 -13 517 -13 q 210 21 292 -13 q 86 116 128 55 q 45 260 45 178 q 89 404 45 340 q 214 508 132 469 q 103 617 138 556 q 69 760 69 678 q 110 909 69 845 q 228 1007 151 972 q 412 1041 306 1041 q 585 1009 511 1041 q 698 918 658 977 q 738 778 738 858 q 703 644 738 706 q 595 538 669 583 m 414 892 q 304 858 343 892 q 265 767 265 824 q 281 698 265 726 q 339 647 297 671 q 460 594 380 622 q 538 669 513 628 q 562 764 562 710 q 523 859 562 826 q 414 892 484 892 m 408 136 q 530 170 488 136 q 571 265 571 204 q 553 337 571 308 q 493 390 536 366 q 370 440 450 413 l 346 448 q 266 375 294 420 q 238 276 238 329 q 281 173 238 209 q 408 136 324 136 z "},"9":{"ha":764,"x_min":28,"x_max":703,"o":"m 349 1041 q 609 924 515 1041 q 703 543 703 806 q 586 122 703 258 q 251 -13 468 -13 q 76 13 141 -13 l 76 179 q 157 159 117 165 q 246 153 197 153 q 433 228 370 153 q 501 469 496 302 q 418 427 465 442 q 320 412 372 412 q 173 445 239 412 q 67 547 107 478 q 28 717 28 615 q 69 892 28 819 q 182 1003 110 965 q 349 1041 255 1041 m 215 725 q 255 607 215 645 q 360 568 294 568 q 435 581 399 568 q 500 619 471 593 q 477 779 497 721 q 425 860 458 837 q 347 883 393 883 q 252 843 289 883 q 215 725 215 804 z "},"\u0000":{"ha":0,"x_min":0,"x_max":0,"o":""},"\r":{"ha":300,"x_min":0,"x_max":0,"o":""}," ":{"ha":300,"x_min":0,"x_max":0,"o":""},"A":{"ha":868,"x_min":1,"x_max":867,"o":"m 663 0 l 592 276 l 274 276 l 202 0 l 1 0 l 281 1028 l 587 1028 l 867 0 l 663 0 m 319 451 l 546 451 l 432 892 l 319 451 z "},"Á":{"ha":868,"x_min":1,"x_max":867,"o":"m 663 0 l 592 276 l 274 276 l 202 0 l 1 0 l 281 1028 l 587 1028 l 867 0 l 663 0 m 319 451 l 546 451 l 432 892 l 319 451 m 344 1108 l 449 1318 l 660 1318 l 524 1108 l 344 1108 z "},"Ă":{"ha":868,"x_min":1,"x_max":867,"o":"m 663 0 l 592 276 l 274 276 l 202 0 l 1 0 l 281 1028 l 587 1028 l 867 0 l 663 0 m 319 451 l 546 451 l 432 892 l 319 451 m 434 1110 q 274 1162 333 1110 q 206 1313 215 1214 l 331 1313 q 361 1236 337 1260 q 434 1213 386 1213 q 507 1236 482 1213 q 538 1313 532 1260 l 663 1313 q 594 1162 653 1214 q 434 1110 535 1110 z "},"Ắ":{"ha":868,"x_min":1,"x_max":867,"o":"m 663 0 l 592 276 l 274 276 l 202 0 l 1 0 l 281 1028 l 587 1028 l 867 0 l 663 0 m 319 451 l 546 451 l 432 892 l 319 451 m 384 1274 l 453 1441 l 583 1441 l 484 1274 l 384 1274 m 434 1110 q 272 1157 331 1110 q 203 1291 213 1205 l 317 1291 q 351 1222 325 1244 q 434 1200 378 1200 q 516 1222 490 1200 q 556 1291 543 1243 l 665 1291 q 595 1157 655 1205 q 434 1110 536 1110 z "},"Ặ":{"ha":868,"x_min":1,"x_max":867,"o":"m 663 0 l 592 276 l 274 276 l 202 0 l 1 0 l 281 1028 l 587 1028 l 867 0 l 663 0 m 319 451 l 546 451 l 432 892 l 319 451 m 434 -290 q 339 -265 373 -290 q 306 -190 306 -240 q 340 -115 306 -140 q 434 -89 374 -89 q 528 -115 494 -89 q 562 -190 562 -140 q 528 -265 562 -240 q 434 -290 494 -290 m 434 1110 q 274 1162 333 1110 q 206 1313 215 1214 l 331 1313 q 361 1236 337 1260 q 434 1213 386 1213 q 507 1236 482 1213 q 538 1313 532 1260 l 663 1313 q 594 1162 653 1214 q 434 1110 535 1110 z "},"Ằ":{"ha":868,"x_min":1,"x_max":867,"o":"m 663 0 l 592 276 l 274 276 l 202 0 l 1 0 l 281 1028 l 587 1028 l 867 0 l 663 0 m 319 451 l 546 451 l 432 892 l 319 451 m 384 1274 l 285 1441 l 415 1441 l 484 1274 l 384 1274 m 434 1110 q 272 1157 331 1110 q 203 1291 213 1205 l 313 1291 q 351 1222 324 1243 q 434 1200 378 1200 q 516 1222 490 1200 q 551 1291 542 1243 l 665 1291 q 595 1157 655 1205 q 434 1110 536 1110 z "},"Ẳ":{"ha":868,"x_min":1,"x_max":867,"o":"m 663 0 l 592 276 l 274 276 l 202 0 l 1 0 l 281 1028 l 587 1028 l 867 0 l 663 0 m 319 451 l 546 451 l 432 892 l 319 451 m 382 1274 q 402 1320 384 1304 q 452 1350 421 1336 q 477 1364 469 1358 q 485 1377 485 1369 q 469 1395 485 1390 q 417 1401 453 1401 q 355 1397 388 1401 q 294 1386 322 1393 l 294 1457 q 359 1469 319 1465 q 433 1474 399 1474 q 558 1454 518 1474 q 599 1391 599 1433 q 584 1354 599 1367 q 540 1325 569 1341 q 502 1301 515 1312 q 486 1274 489 1291 l 382 1274 m 433 1110 q 272 1157 331 1110 q 203 1291 213 1205 l 317 1291 q 351 1222 325 1244 q 433 1200 378 1200 q 516 1222 489 1200 q 556 1291 543 1243 l 665 1291 q 595 1157 655 1205 q 433 1110 536 1110 z "},"Ẵ":{"ha":868,"x_min":1,"x_max":867,"o":"m 663 0 l 592 276 l 274 276 l 202 0 l 1 0 l 281 1028 l 587 1028 l 867 0 l 663 0 m 319 451 l 546 451 l 432 892 l 319 451 m 530 1326 q 481 1332 504 1326 q 422 1350 458 1338 q 374 1365 393 1360 q 336 1370 355 1370 q 269 1359 299 1370 q 203 1323 240 1349 l 203 1419 q 265 1454 234 1444 q 338 1463 296 1463 q 387 1457 364 1463 q 446 1440 410 1451 q 494 1424 475 1429 q 532 1419 513 1419 q 599 1430 569 1419 q 665 1466 629 1440 l 665 1369 q 603 1336 634 1345 q 530 1326 573 1326 m 433 1110 q 272 1157 331 1110 q 203 1291 213 1205 l 317 1291 q 351 1222 325 1244 q 433 1200 378 1200 q 516 1222 489 1200 q 551 1291 542 1244 l 665 1291 q 595 1157 655 1205 q 433 1110 536 1110 z "},"Â":{"ha":868,"x_min":1,"x_max":867,"o":"m 663 0 l 592 276 l 274 276 l 202 0 l 1 0 l 281 1028 l 587 1028 l 867 0 l 663 0 m 319 451 l 546 451 l 432 892 l 319 451 m 655 1108 l 515 1108 l 434 1243 l 352 1108 l 213 1108 l 347 1318 l 521 1318 l 655 1108 z "},"Ấ":{"ha":868,"x_min":1,"x_max":867,"o":"m 663 0 l 592 276 l 274 276 l 202 0 l 1 0 l 281 1028 l 587 1028 l 867 0 l 663 0 m 319 451 l 546 451 l 432 892 l 319 451 m 658 1433 l 788 1433 l 690 1262 l 590 1262 l 658 1433 m 347 1297 l 521 1297 l 655 1108 l 515 1108 l 434 1231 l 352 1108 l 213 1108 l 347 1297 z "},"Ậ":{"ha":868,"x_min":1,"x_max":867,"o":"m 663 0 l 592 276 l 274 276 l 202 0 l 1 0 l 281 1028 l 587 1028 l 867 0 l 663 0 m 319 451 l 546 451 l 432 892 l 319 451 m 434 -290 q 339 -265 373 -290 q 306 -190 306 -240 q 340 -115 306 -140 q 434 -89 374 -89 q 528 -115 494 -89 q 562 -190 562 -140 q 528 -265 562 -240 q 434 -290 494 -290 m 655 1108 l 515 1108 l 434 1243 l 352 1108 l 213 1108 l 347 1318 l 521 1318 l 655 1108 z "},"Ầ":{"ha":868,"x_min":1,"x_max":867,"o":"m 663 0 l 592 276 l 274 276 l 202 0 l 1 0 l 281 1028 l 587 1028 l 867 0 l 663 0 m 319 451 l 546 451 l 432 892 l 319 451 m 713 1262 l 613 1262 l 515 1433 l 644 1433 l 713 1262 m 347 1297 l 521 1297 l 655 1108 l 515 1108 l 434 1231 l 352 1108 l 213 1108 l 347 1297 z "},"Ẩ":{"ha":868,"x_min":1,"x_max":867,"o":"m 663 0 l 592 276 l 274 276 l 202 0 l 1 0 l 281 1028 l 587 1028 l 867 0 l 663 0 m 319 451 l 546 451 l 432 892 l 319 451 m 641 1463 q 766 1442 726 1463 q 806 1380 806 1422 q 792 1343 806 1356 q 748 1314 777 1330 q 710 1290 723 1301 q 694 1262 697 1279 l 590 1262 q 610 1308 592 1292 q 660 1338 628 1324 q 685 1352 677 1347 q 693 1365 693 1358 q 624 1390 693 1390 q 562 1386 594 1390 q 501 1374 529 1382 l 501 1446 q 567 1458 527 1453 q 641 1463 608 1463 m 347 1297 l 521 1297 l 655 1108 l 515 1108 l 434 1231 l 352 1108 l 213 1108 l 347 1297 z "},"Ẫ":{"ha":868,"x_min":1,"x_max":867,"o":"m 663 0 l 592 276 l 274 276 l 202 0 l 1 0 l 281 1028 l 587 1028 l 867 0 l 663 0 m 319 451 l 546 451 l 432 892 l 319 451 m 528 1419 q 592 1430 564 1419 q 655 1466 621 1440 l 655 1369 q 597 1336 626 1345 q 526 1326 567 1326 q 478 1332 501 1326 q 422 1350 456 1338 q 377 1365 395 1360 q 340 1370 358 1370 q 276 1359 304 1370 q 213 1323 247 1349 l 213 1419 q 271 1454 242 1444 q 342 1463 301 1463 q 390 1457 367 1463 q 447 1440 413 1451 q 493 1424 475 1429 q 528 1419 510 1419 m 347 1297 l 521 1297 l 655 1108 l 515 1108 l 434 1231 l 352 1108 l 213 1108 l 347 1297 z "},"Ȁ":{"ha":868,"x_min":1,"x_max":867,"o":"m 663 0 l 592 276 l 274 276 l 202 0 l 1 0 l 281 1028 l 587 1028 l 867 0 l 663 0 m 319 451 l 546 451 l 432 892 l 319 451 m 224 1108 l 138 1318 l 303 1318 l 380 1108 l 224 1108 m 488 1108 l 401 1318 l 567 1318 l 644 1108 l 488 1108 z "},"Ä":{"ha":868,"x_min":1,"x_max":867,"o":"m 663 0 l 592 276 l 274 276 l 202 0 l 1 0 l 281 1028 l 587 1028 l 867 0 l 663 0 m 319 451 l 546 451 l 432 892 l 319 451 m 275 1115 q 191 1141 221 1115 q 160 1216 160 1167 q 191 1290 160 1264 q 275 1317 221 1317 q 359 1290 329 1317 q 389 1216 389 1264 q 359 1141 389 1167 q 275 1115 329 1115 m 593 1115 q 509 1141 539 1115 q 478 1216 478 1168 q 509 1290 478 1264 q 593 1317 539 1317 q 677 1290 647 1317 q 708 1216 708 1264 q 677 1141 708 1167 q 593 1115 647 1115 z "},"Ạ":{"ha":868,"x_min":1,"x_max":867,"o":"m 663 0 l 592 276 l 274 276 l 202 0 l 1 0 l 281 1028 l 587 1028 l 867 0 l 663 0 m 319 451 l 546 451 l 432 892 l 319 451 m 434 -290 q 339 -265 373 -290 q 306 -190 306 -240 q 340 -115 306 -140 q 434 -89 374 -89 q 528 -115 494 -89 q 562 -190 562 -140 q 528 -265 562 -240 q 434 -290 494 -290 z "},"À":{"ha":868,"x_min":1,"x_max":867,"o":"m 663 0 l 592 276 l 274 276 l 202 0 l 1 0 l 281 1028 l 587 1028 l 867 0 l 663 0 m 319 451 l 546 451 l 432 892 l 319 451 m 344 1108 l 208 1318 l 418 1318 l 524 1108 l 344 1108 z "},"Ả":{"ha":868,"x_min":1,"x_max":867,"o":"m 663 0 l 592 276 l 274 276 l 202 0 l 1 0 l 281 1028 l 587 1028 l 867 0 l 663 0 m 319 451 l 546 451 l 432 892 l 319 451 m 382 1108 q 402 1159 384 1142 q 453 1193 421 1177 q 477 1208 469 1201 q 485 1222 485 1214 q 469 1242 485 1235 q 417 1249 453 1249 q 354 1244 387 1249 q 294 1231 322 1240 l 294 1313 q 359 1327 319 1322 q 433 1332 399 1332 q 558 1309 518 1332 q 599 1239 599 1286 q 584 1198 599 1213 q 540 1166 569 1183 q 502 1139 515 1151 q 486 1108 489 1126 l 382 1108 z "},"Ȃ":{"ha":868,"x_min":1,"x_max":867,"o":"m 663 0 l 592 276 l 274 276 l 202 0 l 1 0 l 281 1028 l 587 1028 l 867 0 l 663 0 m 319 451 l 546 451 l 432 892 l 319 451 m 206 1113 q 273 1264 215 1212 q 433 1315 332 1315 q 594 1263 535 1315 q 663 1113 653 1211 l 538 1113 q 506 1189 531 1166 q 433 1213 481 1213 q 361 1189 385 1213 q 331 1113 336 1166 l 206 1113 z "},"Ā":{"ha":868,"x_min":1,"x_max":867,"o":"m 663 0 l 592 276 l 274 276 l 202 0 l 1 0 l 281 1028 l 587 1028 l 867 0 l 663 0 m 319 451 l 546 451 l 432 892 l 319 451 m 201 1147 l 201 1280 l 667 1280 l 667 1147 l 201 1147 z "},"Ą":{"ha":868,"x_min":1,"x_max":895,"o":"m 801 -221 q 895 -200 846 -221 l 895 -285 q 776 -307 838 -307 q 639 -270 685 -307 q 593 -164 593 -233 q 618 -75 593 -115 q 701 0 644 -35 l 663 0 l 592 276 l 274 276 l 202 0 l 1 0 l 281 1028 l 587 1028 l 867 0 q 743 -73 777 -36 q 710 -153 710 -109 q 801 -221 710 -221 m 319 451 l 546 451 l 432 892 l 319 451 z "},"Å":{"ha":868,"x_min":1,"x_max":867,"o":"m 663 0 l 592 276 l 274 276 l 202 0 l 1 0 l 281 1028 l 587 1028 l 867 0 l 663 0 m 319 451 l 546 451 l 432 892 l 319 451 m 434 1099 q 358 1117 392 1099 q 304 1169 324 1136 q 285 1244 285 1202 q 304 1319 285 1285 q 358 1371 324 1352 q 434 1390 392 1390 q 510 1371 476 1390 q 564 1319 544 1352 q 583 1244 583 1285 q 564 1169 583 1202 q 510 1117 544 1136 q 434 1099 476 1099 m 434 1176 q 481 1195 463 1176 q 499 1244 499 1213 q 481 1293 499 1275 q 434 1311 463 1311 q 387 1293 405 1311 q 369 1244 369 1275 q 387 1195 369 1213 q 434 1176 405 1176 z "},"Ǻ":{"ha":868,"x_min":1,"x_max":867,"o":"m 663 0 l 592 276 l 274 276 l 202 0 l 1 0 l 281 1028 l 587 1028 l 867 0 l 663 0 m 319 451 l 546 451 l 432 892 l 319 451 m 564 1319 q 583 1244 583 1286 q 564 1169 583 1203 q 510 1117 544 1136 q 434 1099 476 1099 q 358 1117 392 1099 q 304 1169 324 1136 q 285 1244 285 1203 q 304 1319 285 1286 q 358 1371 324 1352 q 434 1390 392 1390 q 469 1386 450 1390 l 542 1474 l 703 1474 l 564 1319 m 434 1177 q 481 1195 463 1177 q 499 1244 499 1213 q 481 1293 499 1275 q 434 1312 463 1312 q 387 1293 405 1312 q 369 1244 369 1275 q 387 1195 369 1213 q 434 1177 405 1177 z "},"Ã":{"ha":868,"x_min":1,"x_max":867,"o":"m 663 0 l 592 276 l 274 276 l 202 0 l 1 0 l 281 1028 l 587 1028 l 867 0 l 663 0 m 319 451 l 546 451 l 432 892 l 319 451 m 543 1124 q 487 1132 513 1124 q 422 1153 462 1139 q 367 1173 390 1167 q 322 1179 345 1179 q 255 1167 284 1179 q 197 1127 226 1154 l 197 1255 q 251 1294 221 1281 q 324 1306 282 1306 q 383 1299 356 1306 q 446 1276 410 1291 q 500 1256 478 1263 q 545 1250 522 1250 q 613 1263 583 1250 q 672 1302 642 1275 l 672 1174 q 616 1136 647 1148 q 543 1124 585 1124 z "},"Æ":{"ha":1219,"x_min":1,"x_max":1183,"o":"m 790 177 l 1183 177 l 1183 0 l 603 0 l 586 276 l 278 276 l 205 0 l 1 0 l 284 1028 l 1176 1028 l 1176 851 l 744 851 l 760 614 l 1107 614 l 1107 437 l 772 437 l 790 177 m 326 453 l 574 453 l 549 851 l 431 851 l 326 453 z "},"Ǽ":{"ha":1219,"x_min":1,"x_max":1183,"o":"m 790 177 l 1183 177 l 1183 0 l 603 0 l 586 276 l 278 276 l 205 0 l 1 0 l 284 1028 l 1176 1028 l 1176 851 l 744 851 l 760 614 l 1107 614 l 1107 437 l 772 437 l 790 177 m 326 453 l 574 453 l 549 851 l 431 851 l 326 453 m 539 1108 l 644 1318 l 855 1318 l 719 1108 l 539 1108 z "},"B":{"ha":831,"x_min":76,"x_max":803,"o":"m 613 531 q 752 449 702 511 q 803 285 803 387 q 691 62 803 136 q 337 -12 578 -12 q 207 -7 278 -12 q 76 8 135 -1 l 76 1010 q 218 1032 142 1024 q 367 1040 294 1040 q 597 1010 507 1040 q 730 918 687 981 q 774 758 774 856 q 732 614 774 676 q 613 531 690 552 m 398 880 q 278 871 334 880 l 278 608 l 395 608 q 505 623 465 608 q 562 667 545 638 q 579 744 579 697 q 561 823 579 793 q 504 866 543 852 q 398 880 465 880 m 392 149 q 519 164 472 149 q 587 211 566 179 q 608 295 608 243 q 562 406 608 371 q 416 442 516 442 l 278 442 l 278 153 q 392 149 337 149 z "},"C":{"ha":730,"x_min":47,"x_max":710,"o":"m 507 -13 q 164 111 281 -13 q 47 512 47 235 q 169 911 47 782 q 520 1041 291 1041 q 710 1018 621 1041 l 710 844 q 536 866 626 866 q 383 833 443 866 q 292 722 323 799 q 262 515 262 644 q 292 303 262 381 q 381 194 322 226 q 535 162 440 162 q 710 194 608 162 l 710 20 q 615 -4 669 5 q 507 -13 560 -13 z "},"Ć":{"ha":730,"x_min":47,"x_max":710,"o":"m 507 -13 q 164 111 281 -13 q 47 512 47 235 q 169 911 47 782 q 520 1041 291 1041 q 710 1018 621 1041 l 710 844 q 536 866 626 866 q 383 833 443 866 q 292 722 323 799 q 262 515 262 644 q 292 303 262 381 q 381 194 322 226 q 535 162 440 162 q 710 194 608 162 l 710 20 q 615 -4 669 5 q 507 -13 560 -13 m 367 1108 l 472 1318 l 683 1318 l 547 1108 l 367 1108 z "},"Č":{"ha":730,"x_min":47,"x_max":710,"o":"m 507 -13 q 164 111 281 -13 q 47 512 47 235 q 169 911 47 782 q 520 1041 291 1041 q 710 1018 621 1041 l 710 844 q 536 866 626 866 q 383 833 443 866 q 292 722 323 799 q 262 515 262 644 q 292 303 262 381 q 381 194 322 226 q 535 162 440 162 q 710 194 608 162 l 710 20 q 615 -4 669 5 q 507 -13 560 -13 m 538 1318 l 678 1318 l 544 1108 l 370 1108 l 235 1318 l 375 1318 l 457 1183 l 538 1318 z "},"Ç":{"ha":730,"x_min":47,"x_max":710,"o":"m 536 866 q 383 833 443 866 q 292 722 323 799 q 262 515 262 644 q 292 303 262 381 q 381 194 322 226 q 535 162 440 162 q 710 194 608 162 l 710 20 q 615 -4 669 5 q 507 -13 560 -13 l 497 -13 l 497 -62 q 586 -100 555 -70 q 617 -181 617 -131 q 573 -274 617 -242 q 436 -307 528 -307 q 308 -287 364 -307 l 308 -202 q 367 -218 335 -212 q 425 -223 398 -223 q 485 -211 465 -223 q 505 -173 505 -200 q 484 -134 505 -147 q 423 -121 463 -121 l 394 -121 l 394 -5 q 135 148 224 23 q 47 512 47 272 q 169 911 47 782 q 520 1041 291 1041 q 710 1018 621 1041 l 710 844 q 536 866 626 866 z "},"Ḉ":{"ha":730,"x_min":47,"x_max":710,"o":"m 683 1318 l 547 1108 l 367 1108 l 472 1318 l 683 1318 m 536 866 q 383 833 443 866 q 292 722 323 799 q 262 515 262 644 q 292 303 262 381 q 381 194 322 226 q 535 162 440 162 q 710 194 608 162 l 710 20 q 615 -4 669 5 q 507 -13 560 -13 l 497 -13 l 497 -62 q 586 -100 555 -70 q 617 -181 617 -131 q 573 -274 617 -242 q 436 -307 528 -307 q 308 -287 364 -307 l 308 -202 q 367 -218 335 -212 q 425 -223 398 -223 q 485 -211 465 -223 q 505 -173 505 -200 q 484 -134 505 -147 q 423 -121 463 -121 l 394 -121 l 394 -5 q 135 148 224 23 q 47 512 47 272 q 169 911 47 782 q 520 1041 291 1041 q 710 1018 621 1041 l 710 844 q 536 866 626 866 z "},"Ĉ":{"ha":730,"x_min":47,"x_max":710,"o":"m 507 -13 q 164 111 281 -13 q 47 512 47 235 q 169 911 47 782 q 520 1041 291 1041 q 710 1018 621 1041 l 710 844 q 536 866 626 866 q 383 833 443 866 q 292 722 323 799 q 262 515 262 644 q 292 303 262 381 q 381 194 322 226 q 535 162 440 162 q 710 194 608 162 l 710 20 q 615 -4 669 5 q 507 -13 560 -13 m 678 1108 l 538 1108 l 457 1243 l 375 1108 l 235 1108 l 370 1318 l 544 1318 l 678 1108 z "},"Ċ":{"ha":730,"x_min":47,"x_max":710,"o":"m 507 -13 q 164 111 281 -13 q 47 512 47 235 q 169 911 47 782 q 520 1041 291 1041 q 710 1018 621 1041 l 710 844 q 536 866 626 866 q 383 833 443 866 q 292 722 323 799 q 262 515 262 644 q 292 303 262 381 q 381 194 322 226 q 535 162 440 162 q 710 194 608 162 l 710 20 q 615 -4 669 5 q 507 -13 560 -13 m 457 1115 q 363 1140 397 1115 q 328 1216 328 1166 q 363 1291 328 1265 q 457 1317 397 1317 q 551 1291 517 1317 q 585 1216 585 1265 q 551 1140 585 1166 q 457 1115 517 1115 z "},"D":{"ha":889,"x_min":76,"x_max":842,"o":"m 316 -12 q 76 2 200 -12 l 76 1010 q 348 1040 217 1040 q 720 912 597 1040 q 842 514 842 783 q 784 215 842 331 q 610 43 726 99 q 316 -12 494 -12 m 369 161 q 514 195 457 161 q 600 306 571 228 q 630 514 630 383 q 600 722 630 644 q 514 834 571 800 q 371 868 457 868 q 283 860 323 868 l 283 164 q 369 161 329 161 z "},"Ǳ":{"ha":1600,"x_min":76,"x_max":1573,"o":"m 316 -12 q 76 2 200 -12 l 76 1010 q 348 1040 217 1040 q 720 912 597 1040 q 842 514 842 783 q 784 215 842 331 q 610 43 726 99 q 316 -12 494 -12 m 369 161 q 514 195 457 161 q 600 306 571 228 q 630 514 630 383 q 600 722 630 644 q 514 834 571 800 q 371 868 457 868 q 283 860 323 868 l 283 164 q 369 161 329 161 m 1155 183 l 1573 183 l 1573 0 l 888 0 l 888 116 l 1299 845 l 895 845 l 895 1028 l 1566 1028 l 1566 912 l 1155 183 z "},"Ǆ":{"ha":1600,"x_min":76,"x_max":1573,"o":"m 316 -12 q 76 2 200 -12 l 76 1010 q 348 1040 217 1040 q 720 912 597 1040 q 842 514 842 783 q 784 215 842 331 q 610 43 726 99 q 316 -12 494 -12 m 369 161 q 514 195 457 161 q 600 306 571 228 q 630 514 630 383 q 600 722 630 644 q 514 834 571 800 q 371 868 457 868 q 283 860 323 868 l 283 164 q 369 161 329 161 m 1155 183 l 1573 183 l 1573 0 l 888 0 l 888 116 l 1299 845 l 895 845 l 895 1028 l 1566 1028 l 1566 912 l 1155 183 m 1313 1318 l 1453 1318 l 1319 1108 l 1145 1108 l 1010 1318 l 1150 1318 l 1232 1183 l 1313 1318 z "},"Ð":{"ha":889,"x_min":-1,"x_max":842,"o":"m 348 1040 q 720 912 597 1040 q 842 514 842 783 q 784 215 842 331 q 610 43 726 99 q 316 -12 494 -12 q 76 2 200 -12 l 76 460 l -1 460 l -1 599 l 76 599 l 76 1010 q 348 1040 217 1040 m 369 161 q 514 195 457 161 q 600 306 571 228 q 630 514 630 383 q 600 722 630 644 q 514 834 571 800 q 371 868 457 868 q 283 860 323 868 l 283 599 l 440 599 l 440 460 l 283 460 l 283 164 q 369 161 329 161 z "},"Ď":{"ha":889,"x_min":76,"x_max":842,"o":"m 316 -12 q 76 2 200 -12 l 76 1010 q 348 1040 217 1040 q 720 912 597 1040 q 842 514 842 783 q 784 215 842 331 q 610 43 726 99 q 316 -12 494 -12 m 369 161 q 514 195 457 161 q 600 306 571 228 q 630 514 630 383 q 600 722 630 644 q 514 834 571 800 q 371 868 457 868 q 283 860 323 868 l 283 164 q 369 161 329 161 m 490 1318 l 629 1318 l 495 1108 l 322 1108 l 187 1318 l 326 1318 l 408 1183 l 490 1318 z "},"Đ":{"ha":889,"x_min":-1,"x_max":842,"o":"m 348 1040 q 720 912 597 1040 q 842 514 842 783 q 784 215 842 331 q 610 43 726 99 q 316 -12 494 -12 q 76 2 200 -12 l 76 460 l -1 460 l -1 599 l 76 599 l 76 1010 q 348 1040 217 1040 m 369 161 q 514 195 457 161 q 600 306 571 228 q 630 514 630 383 q 600 722 630 644 q 514 834 571 800 q 371 868 457 868 q 283 860 323 868 l 283 599 l 440 599 l 440 460 l 283 460 l 283 164 q 369 161 329 161 z "},"Ḍ":{"ha":889,"x_min":76,"x_max":842,"o":"m 316 -12 q 76 2 200 -12 l 76 1010 q 348 1040 217 1040 q 720 912 597 1040 q 842 514 842 783 q 784 215 842 331 q 610 43 726 99 q 316 -12 494 -12 m 369 161 q 514 195 457 161 q 600 306 571 228 q 630 514 630 383 q 600 722 630 644 q 514 834 571 800 q 371 868 457 868 q 283 860 323 868 l 283 164 q 369 161 329 161 m 418 -290 q 323 -265 357 -290 q 290 -190 290 -240 q 324 -115 290 -140 q 418 -89 358 -89 q 512 -115 478 -89 q 546 -190 546 -140 q 512 -265 546 -240 q 418 -290 478 -290 z "},"Ḏ":{"ha":889,"x_min":76,"x_max":842,"o":"m 316 -12 q 76 2 200 -12 l 76 1010 q 348 1040 217 1040 q 720 912 597 1040 q 842 514 842 783 q 784 215 842 331 q 610 43 726 99 q 316 -12 494 -12 m 369 161 q 514 195 457 161 q 600 306 571 228 q 630 514 630 383 q 600 722 630 644 q 514 834 571 800 q 371 868 457 868 q 283 860 323 868 l 283 164 q 369 161 329 161 m 185 -251 l 185 -118 l 651 -118 l 651 -251 l 185 -251 z "},"ǲ":{"ha":1469,"x_min":76,"x_max":1447,"o":"m 316 -12 q 76 2 200 -12 l 76 1010 q 348 1040 217 1040 q 720 912 597 1040 q 842 514 842 783 q 784 215 842 331 q 610 43 726 99 q 316 -12 494 -12 m 369 161 q 514 195 457 161 q 600 306 571 228 q 630 514 630 383 q 600 722 630 644 q 514 834 571 800 q 371 868 457 868 q 283 860 323 868 l 283 164 q 369 161 329 161 m 1147 160 l 1447 160 l 1447 0 l 921 0 l 921 126 l 1214 600 l 928 600 l 928 760 l 1440 760 l 1440 634 l 1147 160 z "},"ǅ":{"ha":1469,"x_min":76,"x_max":1447,"o":"m 316 -12 q 76 2 200 -12 l 76 1010 q 348 1040 217 1040 q 720 912 597 1040 q 842 514 842 783 q 784 215 842 331 q 610 43 726 99 q 316 -12 494 -12 m 369 161 q 514 195 457 161 q 600 306 571 228 q 630 514 630 383 q 600 722 630 644 q 514 834 571 800 q 371 868 457 868 q 283 860 323 868 l 283 164 q 369 161 329 161 m 1147 160 l 1447 160 l 1447 0 l 921 0 l 921 126 l 1214 600 l 928 600 l 928 760 l 1440 760 l 1440 634 l 1147 160 m 1265 1096 l 1405 1096 l 1271 885 l 1097 885 l 963 1096 l 1102 1096 l 1184 960 l 1265 1096 z "},"E":{"ha":746,"x_min":76,"x_max":710,"o":"m 279 177 l 710 177 l 710 0 l 76 0 l 76 1028 l 703 1028 l 703 851 l 279 851 l 279 614 l 634 614 l 634 437 l 279 437 l 279 177 z "},"É":{"ha":746,"x_min":76,"x_max":710,"o":"m 279 177 l 710 177 l 710 0 l 76 0 l 76 1028 l 703 1028 l 703 851 l 279 851 l 279 614 l 634 614 l 634 437 l 279 437 l 279 177 m 315 1108 l 421 1318 l 631 1318 l 495 1108 l 315 1108 z "},"Ĕ":{"ha":746,"x_min":76,"x_max":710,"o":"m 279 177 l 710 177 l 710 0 l 76 0 l 76 1028 l 703 1028 l 703 851 l 279 851 l 279 614 l 634 614 l 634 437 l 279 437 l 279 177 m 406 1110 q 245 1162 304 1110 q 177 1313 186 1214 l 302 1313 q 333 1236 308 1260 q 406 1213 358 1213 q 478 1236 453 1213 q 509 1313 503 1260 l 634 1313 q 566 1162 625 1214 q 406 1110 507 1110 z "},"Ě":{"ha":746,"x_min":76,"x_max":710,"o":"m 279 177 l 710 177 l 710 0 l 76 0 l 76 1028 l 703 1028 l 703 851 l 279 851 l 279 614 l 634 614 l 634 437 l 279 437 l 279 177 m 487 1318 l 626 1318 l 492 1108 l 319 1108 l 184 1318 l 324 1318 l 406 1183 l 487 1318 z "},"Ḝ":{"ha":746,"x_min":76,"x_max":710,"o":"m 406 1110 q 245 1162 304 1110 q 177 1313 186 1214 l 302 1313 q 333 1236 308 1260 q 406 1213 358 1213 q 478 1236 453 1213 q 509 1313 503 1260 l 634 1313 q 566 1162 625 1214 q 406 1110 507 1110 m 444 0 l 444 -62 q 532 -100 501 -70 q 563 -181 563 -131 q 519 -274 563 -242 q 383 -307 475 -307 q 254 -287 310 -307 l 254 -202 q 313 -218 282 -212 q 372 -223 344 -223 q 432 -211 412 -223 q 451 -173 451 -200 q 430 -134 451 -147 q 369 -121 409 -121 l 341 -121 l 341 0 l 76 0 l 76 1028 l 703 1028 l 703 851 l 279 851 l 279 614 l 634 614 l 634 437 l 279 437 l 279 177 l 710 177 l 710 0 l 444 0 z "},"Ê":{"ha":746,"x_min":76,"x_max":710,"o":"m 279 177 l 710 177 l 710 0 l 76 0 l 76 1028 l 703 1028 l 703 851 l 279 851 l 279 614 l 634 614 l 634 437 l 279 437 l 279 177 m 626 1108 l 487 1108 l 406 1243 l 324 1108 l 184 1108 l 319 1318 l 492 1318 l 626 1108 z "},"Ế":{"ha":746,"x_min":76,"x_max":760,"o":"m 279 177 l 710 177 l 710 0 l 76 0 l 76 1028 l 703 1028 l 703 851 l 279 851 l 279 614 l 634 614 l 634 437 l 279 437 l 279 177 m 630 1433 l 760 1433 l 661 1262 l 561 1262 l 630 1433 m 319 1297 l 492 1297 l 626 1108 l 487 1108 l 406 1231 l 324 1108 l 184 1108 l 319 1297 z "},"Ệ":{"ha":746,"x_min":76,"x_max":710,"o":"m 279 177 l 710 177 l 710 0 l 76 0 l 76 1028 l 703 1028 l 703 851 l 279 851 l 279 614 l 634 614 l 634 437 l 279 437 l 279 177 m 406 -290 q 311 -265 344 -290 q 277 -190 277 -240 q 311 -115 277 -140 q 406 -89 345 -89 q 500 -115 466 -89 q 533 -190 533 -140 q 500 -265 533 -240 q 406 -290 466 -290 m 626 1108 l 487 1108 l 406 1243 l 324 1108 l 184 1108 l 319 1318 l 492 1318 l 626 1108 z "},"Ề":{"ha":746,"x_min":76,"x_max":710,"o":"m 279 177 l 710 177 l 710 0 l 76 0 l 76 1028 l 703 1028 l 703 851 l 279 851 l 279 614 l 634 614 l 634 437 l 279 437 l 279 177 m 685 1262 l 585 1262 l 486 1433 l 616 1433 l 685 1262 m 319 1297 l 492 1297 l 626 1108 l 487 1108 l 406 1231 l 324 1108 l 184 1108 l 319 1297 z "},"Ể":{"ha":746,"x_min":76,"x_max":778,"o":"m 279 177 l 710 177 l 710 0 l 76 0 l 76 1028 l 703 1028 l 703 851 l 279 851 l 279 614 l 634 614 l 634 437 l 279 437 l 279 177 m 613 1463 q 738 1442 697 1463 q 778 1380 778 1422 q 763 1343 778 1356 q 719 1314 749 1330 q 681 1290 694 1301 q 665 1262 668 1279 l 561 1262 q 582 1308 563 1292 q 631 1338 600 1324 q 657 1352 649 1347 q 665 1365 665 1358 q 596 1390 665 1390 q 533 1386 566 1390 q 473 1374 501 1382 l 473 1446 q 539 1458 499 1453 q 613 1463 579 1463 m 319 1297 l 492 1297 l 626 1108 l 487 1108 l 406 1231 l 324 1108 l 184 1108 l 319 1297 z "},"Ễ":{"ha":746,"x_min":76,"x_max":710,"o":"m 279 177 l 710 177 l 710 0 l 76 0 l 76 1028 l 703 1028 l 703 851 l 279 851 l 279 614 l 634 614 l 634 437 l 279 437 l 279 177 m 499 1419 q 564 1430 535 1419 q 626 1466 592 1440 l 626 1369 q 568 1336 598 1345 q 497 1326 539 1326 q 450 1332 472 1326 q 393 1350 428 1338 q 348 1365 367 1360 q 312 1370 330 1370 q 247 1359 276 1370 q 184 1323 219 1349 l 184 1419 q 243 1454 213 1444 q 313 1463 272 1463 q 361 1457 338 1463 q 418 1440 384 1451 q 464 1424 447 1429 q 499 1419 482 1419 m 319 1297 l 492 1297 l 626 1108 l 487 1108 l 406 1231 l 324 1108 l 184 1108 l 319 1297 z "},"Ȅ":{"ha":746,"x_min":76,"x_max":710,"o":"m 279 177 l 710 177 l 710 0 l 76 0 l 76 1028 l 703 1028 l 703 851 l 279 851 l 279 614 l 634 614 l 634 437 l 279 437 l 279 177 m 196 1108 l 110 1318 l 275 1318 l 351 1108 l 196 1108 m 459 1108 l 373 1318 l 539 1318 l 615 1108 l 459 1108 z "},"Ë":{"ha":746,"x_min":76,"x_max":710,"o":"m 279 177 l 710 177 l 710 0 l 76 0 l 76 1028 l 703 1028 l 703 851 l 279 851 l 279 614 l 634 614 l 634 437 l 279 437 l 279 177 m 247 1115 q 162 1141 192 1115 q 132 1216 132 1167 q 162 1290 132 1264 q 247 1317 192 1317 q 331 1290 301 1317 q 360 1216 360 1264 q 331 1141 360 1167 q 247 1115 301 1115 m 565 1115 q 480 1141 510 1115 q 450 1216 450 1168 q 480 1290 450 1264 q 565 1317 510 1317 q 649 1290 619 1317 q 679 1216 679 1264 q 649 1141 679 1167 q 565 1115 619 1115 z "},"Ė":{"ha":746,"x_min":76,"x_max":710,"o":"m 279 177 l 710 177 l 710 0 l 76 0 l 76 1028 l 703 1028 l 703 851 l 279 851 l 279 614 l 634 614 l 634 437 l 279 437 l 279 177 m 406 1115 q 311 1140 345 1115 q 277 1216 277 1166 q 311 1291 277 1265 q 406 1317 345 1317 q 500 1291 466 1317 q 533 1216 533 1265 q 500 1140 533 1166 q 406 1115 466 1115 z "},"Ẹ":{"ha":746,"x_min":76,"x_max":710,"o":"m 279 177 l 710 177 l 710 0 l 76 0 l 76 1028 l 703 1028 l 703 851 l 279 851 l 279 614 l 634 614 l 634 437 l 279 437 l 279 177 m 406 -290 q 311 -265 344 -290 q 277 -190 277 -240 q 311 -115 277 -140 q 406 -89 345 -89 q 500 -115 466 -89 q 533 -190 533 -140 q 500 -265 533 -240 q 406 -290 466 -290 z "},"È":{"ha":746,"x_min":76,"x_max":710,"o":"m 279 177 l 710 177 l 710 0 l 76 0 l 76 1028 l 703 1028 l 703 851 l 279 851 l 279 614 l 634 614 l 634 437 l 279 437 l 279 177 m 315 1108 l 179 1318 l 390 1318 l 495 1108 l 315 1108 z "},"Ẻ":{"ha":746,"x_min":76,"x_max":710,"o":"m 279 177 l 710 177 l 710 0 l 76 0 l 76 1028 l 703 1028 l 703 851 l 279 851 l 279 614 l 634 614 l 634 437 l 279 437 l 279 177 m 353 1108 q 374 1159 356 1142 q 424 1193 392 1177 q 449 1208 441 1201 q 457 1222 457 1214 q 441 1242 457 1235 q 388 1249 424 1249 q 326 1244 358 1249 q 265 1231 293 1240 l 265 1313 q 330 1327 290 1322 q 405 1332 370 1332 q 530 1309 490 1332 q 570 1239 570 1286 q 556 1198 570 1213 q 512 1166 541 1183 q 474 1139 487 1151 q 458 1108 460 1126 l 353 1108 z "},"Ȇ":{"ha":746,"x_min":76,"x_max":710,"o":"m 279 177 l 710 177 l 710 0 l 76 0 l 76 1028 l 703 1028 l 703 851 l 279 851 l 279 614 l 634 614 l 634 437 l 279 437 l 279 177 m 177 1113 q 245 1264 186 1212 q 405 1315 303 1315 q 566 1263 506 1315 q 634 1113 625 1211 l 509 1113 q 478 1189 503 1166 q 405 1213 453 1213 q 332 1189 357 1213 q 302 1113 308 1166 l 177 1113 z "},"Ē":{"ha":746,"x_min":76,"x_max":710,"o":"m 279 177 l 710 177 l 710 0 l 76 0 l 76 1028 l 703 1028 l 703 851 l 279 851 l 279 614 l 634 614 l 634 437 l 279 437 l 279 177 m 172 1147 l 172 1280 l 639 1280 l 639 1147 l 172 1147 z "},"Ḗ":{"ha":746,"x_min":76,"x_max":710,"o":"m 279 177 l 710 177 l 710 0 l 76 0 l 76 1028 l 703 1028 l 703 851 l 279 851 l 279 614 l 634 614 l 634 437 l 279 437 l 279 177 m 307 1358 l 413 1519 l 640 1519 l 504 1358 l 307 1358 m 172 1147 l 172 1280 l 639 1280 l 639 1147 l 172 1147 z "},"Ḕ":{"ha":746,"x_min":76,"x_max":710,"o":"m 279 177 l 710 177 l 710 0 l 76 0 l 76 1028 l 703 1028 l 703 851 l 279 851 l 279 614 l 634 614 l 634 437 l 279 437 l 279 177 m 307 1358 l 171 1519 l 399 1519 l 504 1358 l 307 1358 m 172 1147 l 172 1280 l 639 1280 l 639 1147 l 172 1147 z "},"Ę":{"ha":746,"x_min":76,"x_max":710,"o":"m 655 0 q 532 -73 565 -36 q 498 -153 498 -109 q 590 -221 498 -221 q 683 -200 634 -221 l 683 -285 q 565 -307 626 -307 q 427 -270 474 -307 q 381 -164 381 -233 q 407 -75 381 -115 q 490 0 432 -35 l 76 0 l 76 1028 l 703 1028 l 703 851 l 279 851 l 279 614 l 634 614 l 634 437 l 279 437 l 279 177 l 710 177 l 710 0 l 655 0 z "},"Ẽ":{"ha":746,"x_min":76,"x_max":710,"o":"m 279 177 l 710 177 l 710 0 l 76 0 l 76 1028 l 703 1028 l 703 851 l 279 851 l 279 614 l 634 614 l 634 437 l 279 437 l 279 177 m 515 1124 q 459 1132 484 1124 q 394 1153 433 1139 q 339 1173 361 1167 q 294 1179 317 1179 q 226 1167 256 1179 q 168 1127 197 1154 l 168 1255 q 223 1294 192 1281 q 296 1306 253 1306 q 354 1299 327 1306 q 417 1276 381 1291 q 472 1256 450 1263 q 517 1250 494 1250 q 584 1263 555 1250 q 643 1302 613 1275 l 643 1174 q 588 1136 619 1148 q 515 1124 557 1124 z "},"F":{"ha":710,"x_min":76,"x_max":701,"o":"m 701 849 l 283 849 l 283 592 l 635 592 l 635 413 l 283 413 l 283 0 l 76 0 l 76 1028 l 701 1028 l 701 849 z "},"G":{"ha":853,"x_min":47,"x_max":786,"o":"m 786 500 l 786 8 q 566 -12 667 -12 q 176 114 305 -12 q 47 513 47 240 q 176 913 47 784 q 556 1041 306 1041 q 763 1015 669 1041 l 763 841 q 578 866 667 866 q 398 833 467 866 q 295 722 329 799 q 262 510 262 644 q 294 306 262 383 q 388 196 326 229 q 544 163 449 163 q 594 164 561 163 l 594 500 l 786 500 z "},"Ǵ":{"ha":853,"x_min":47,"x_max":786,"o":"m 786 500 l 786 8 q 566 -12 667 -12 q 176 114 305 -12 q 47 513 47 240 q 176 913 47 784 q 556 1041 306 1041 q 763 1015 669 1041 l 763 841 q 578 866 667 866 q 398 833 467 866 q 295 722 329 799 q 262 510 262 644 q 294 306 262 383 q 388 196 326 229 q 544 163 449 163 q 594 164 561 163 l 594 500 l 786 500 m 403 1108 l 509 1318 l 719 1318 l 583 1108 l 403 1108 z "},"Ğ":{"ha":853,"x_min":47,"x_max":786,"o":"m 786 500 l 786 8 q 566 -12 667 -12 q 176 114 305 -12 q 47 513 47 240 q 176 913 47 784 q 556 1041 306 1041 q 763 1015 669 1041 l 763 841 q 578 866 667 866 q 398 833 467 866 q 295 722 329 799 q 262 510 262 644 q 294 306 262 383 q 388 196 326 229 q 544 163 449 163 q 594 164 561 163 l 594 500 l 786 500 m 494 1110 q 333 1162 392 1110 q 265 1313 274 1214 l 390 1313 q 421 1236 397 1260 q 494 1213 446 1213 q 567 1236 542 1213 q 597 1313 592 1260 l 722 1313 q 654 1162 713 1214 q 494 1110 595 1110 z "},"Ǧ":{"ha":853,"x_min":47,"x_max":786,"o":"m 786 500 l 786 8 q 566 -12 667 -12 q 176 114 305 -12 q 47 513 47 240 q 176 913 47 784 q 556 1041 306 1041 q 763 1015 669 1041 l 763 841 q 578 866 667 866 q 398 833 467 866 q 295 722 329 799 q 262 510 262 644 q 294 306 262 383 q 388 196 326 229 q 544 163 449 163 q 594 164 561 163 l 594 500 l 786 500 m 575 1318 l 715 1318 l 581 1108 l 407 1108 l 272 1318 l 412 1318 l 494 1183 l 575 1318 z "},"Ĝ":{"ha":853,"x_min":47,"x_max":786,"o":"m 786 500 l 786 8 q 566 -12 667 -12 q 176 114 305 -12 q 47 513 47 240 q 176 913 47 784 q 556 1041 306 1041 q 763 1015 669 1041 l 763 841 q 578 866 667 866 q 398 833 467 866 q 295 722 329 799 q 262 510 262 644 q 294 306 262 383 q 388 196 326 229 q 544 163 449 163 q 594 164 561 163 l 594 500 l 786 500 m 715 1108 l 575 1108 l 494 1243 l 412 1108 l 272 1108 l 407 1318 l 581 1318 l 715 1108 z "},"Ģ":{"ha":853,"x_min":47,"x_max":786,"o":"m 786 500 l 786 8 q 566 -12 667 -12 q 176 114 305 -12 q 47 513 47 240 q 176 913 47 784 q 556 1041 306 1041 q 763 1015 669 1041 l 763 841 q 578 866 667 866 q 398 833 467 866 q 295 722 329 799 q 262 510 262 644 q 294 306 262 383 q 388 196 326 229 q 544 163 449 163 q 594 164 561 163 l 594 500 l 786 500 m 493 -89 q 608 -192 608 -89 q 593 -269 608 -227 q 556 -344 578 -312 l 428 -344 q 465 -243 458 -283 q 401 -218 422 -238 q 379 -166 379 -198 q 408 -109 379 -129 q 493 -89 436 -89 z "},"Ġ":{"ha":853,"x_min":47,"x_max":786,"o":"m 786 500 l 786 8 q 566 -12 667 -12 q 176 114 305 -12 q 47 513 47 240 q 176 913 47 784 q 556 1041 306 1041 q 763 1015 669 1041 l 763 841 q 578 866 667 866 q 398 833 467 866 q 295 722 329 799 q 262 510 262 644 q 294 306 262 383 q 388 196 326 229 q 544 163 449 163 q 594 164 561 163 l 594 500 l 786 500 m 494 1115 q 399 1140 433 1115 q 365 1216 365 1166 q 399 1291 365 1265 q 494 1317 433 1317 q 588 1291 554 1317 q 622 1216 622 1265 q 588 1140 622 1166 q 494 1115 554 1115 z "},"Ḡ":{"ha":853,"x_min":47,"x_max":786,"o":"m 786 500 l 786 8 q 566 -12 667 -12 q 176 114 305 -12 q 47 513 47 240 q 176 913 47 784 q 556 1041 306 1041 q 763 1015 669 1041 l 763 841 q 578 866 667 866 q 398 833 467 866 q 295 722 329 799 q 262 510 262 644 q 294 306 262 383 q 388 196 326 229 q 544 163 449 163 q 594 164 561 163 l 594 500 l 786 500 m 260 1147 l 260 1280 l 727 1280 l 727 1147 l 260 1147 z "},"H":{"ha":919,"x_min":76,"x_max":842,"o":"m 76 0 l 76 1028 l 283 1028 l 283 620 l 636 620 l 636 1028 l 842 1028 l 842 0 l 636 0 l 636 431 l 283 431 l 283 0 l 76 0 z "},"Ħ":{"ha":919,"x_min":-1,"x_max":919,"o":"m 919 886 l 919 756 l 842 756 l 842 0 l 636 0 l 636 431 l 283 431 l 283 0 l 76 0 l 76 756 l -1 756 l -1 886 l 76 886 l 76 1028 l 283 1028 l 283 886 l 636 886 l 636 1028 l 842 1028 l 842 886 l 919 886 m 636 620 l 636 756 l 283 756 l 283 620 l 636 620 z "},"Ḫ":{"ha":919,"x_min":76,"x_max":842,"o":"m 76 0 l 76 1028 l 283 1028 l 283 620 l 636 620 l 636 1028 l 842 1028 l 842 0 l 636 0 l 636 431 l 283 431 l 283 0 l 76 0 m 460 -302 q 298 -249 358 -302 q 231 -99 238 -197 l 356 -99 q 386 -175 361 -151 q 460 -199 412 -199 q 533 -175 508 -199 q 563 -99 558 -151 l 688 -99 q 622 -250 681 -197 q 460 -302 563 -302 z "},"Ĥ":{"ha":919,"x_min":76,"x_max":842,"o":"m 76 0 l 76 1028 l 283 1028 l 283 620 l 636 620 l 636 1028 l 842 1028 l 842 0 l 636 0 l 636 431 l 283 431 l 283 0 l 76 0 m 681 1108 l 541 1108 l 460 1243 l 378 1108 l 238 1108 l 373 1318 l 547 1318 l 681 1108 z "},"Ḥ":{"ha":919,"x_min":76,"x_max":842,"o":"m 76 0 l 76 1028 l 283 1028 l 283 620 l 636 620 l 636 1028 l 842 1028 l 842 0 l 636 0 l 636 431 l 283 431 l 283 0 l 76 0 m 460 -290 q 365 -265 399 -290 q 331 -190 331 -240 q 365 -115 331 -140 q 460 -89 399 -89 q 554 -115 520 -89 q 588 -190 588 -140 q 554 -265 588 -240 q 460 -290 520 -290 z "},"I":{"ha":359,"x_min":76,"x_max":283,"o":"m 76 0 l 76 1028 l 283 1028 l 283 0 l 76 0 z "},"Í":{"ha":359,"x_min":76,"x_max":406,"o":"m 76 0 l 76 1028 l 283 1028 l 283 0 l 76 0 m 90 1108 l 195 1318 l 406 1318 l 269 1108 l 90 1108 z "},"Ĭ":{"ha":359,"x_min":-49,"x_max":408,"o":"m 76 0 l 76 1028 l 283 1028 l 283 0 l 76 0 m 180 1110 q 19 1162 78 1110 q -49 1313 -40 1214 l 76 1313 q 107 1236 83 1260 q 180 1213 132 1213 q 253 1236 228 1213 q 283 1313 278 1260 l 408 1313 q 340 1162 399 1214 q 180 1110 281 1110 z "},"Î":{"ha":359,"x_min":-42,"x_max":401,"o":"m 76 0 l 76 1028 l 283 1028 l 283 0 l 76 0 m 401 1108 l 261 1108 l 180 1243 l 98 1108 l -42 1108 l 93 1318 l 267 1318 l 401 1108 z "},"Ȉ":{"ha":359,"x_min":-116,"x_max":390,"o":"m 76 0 l 76 1028 l 283 1028 l 283 0 l 76 0 m -30 1108 l -116 1318 l 49 1318 l 126 1108 l -30 1108 m 233 1108 l 147 1318 l 313 1318 l 390 1108 l 233 1108 z "},"Ï":{"ha":359,"x_min":-94,"x_max":453,"o":"m 76 0 l 76 1028 l 283 1028 l 283 0 l 76 0 m 21 1115 q -64 1141 -33 1115 q -94 1216 -94 1167 q -64 1290 -94 1264 q 21 1317 -33 1317 q 105 1290 75 1317 q 135 1216 135 1264 q 105 1141 135 1167 q 21 1115 75 1115 m 339 1115 q 255 1141 285 1115 q 224 1216 224 1168 q 255 1290 224 1264 q 339 1317 285 1317 q 423 1290 393 1317 q 453 1216 453 1264 q 423 1141 453 1167 q 339 1115 393 1115 z "},"Ḯ":{"ha":359,"x_min":-94,"x_max":453,"o":"m 76 0 l 76 1028 l 283 1028 l 283 0 l 76 0 m 81 1358 l 187 1519 l 415 1519 l 278 1358 l 81 1358 m 21 1115 q -64 1141 -33 1115 q -94 1216 -94 1167 q -64 1290 -94 1264 q 21 1317 -33 1317 q 105 1290 75 1317 q 135 1216 135 1264 q 105 1141 135 1167 q 21 1115 75 1115 m 339 1115 q 255 1141 285 1115 q 224 1216 224 1168 q 255 1290 224 1264 q 339 1317 285 1317 q 423 1290 393 1317 q 453 1216 453 1264 q 423 1141 453 1167 q 339 1115 393 1115 z "},"İ":{"ha":359,"x_min":51,"x_max":308,"o":"m 76 0 l 76 1028 l 283 1028 l 283 0 l 76 0 m 180 1115 q 85 1140 119 1115 q 51 1216 51 1166 q 85 1291 51 1265 q 180 1317 119 1317 q 274 1291 240 1317 q 308 1216 308 1265 q 274 1140 308 1166 q 180 1115 240 1115 z "},"Ị":{"ha":359,"x_min":51,"x_max":308,"o":"m 76 0 l 76 1028 l 283 1028 l 283 0 l 76 0 m 180 -290 q 85 -265 119 -290 q 51 -190 51 -240 q 85 -115 51 -140 q 180 -89 119 -89 q 274 -115 240 -89 q 308 -190 308 -140 q 274 -265 308 -240 q 180 -290 240 -290 z "},"Ì":{"ha":359,"x_min":-47,"x_max":283,"o":"m 76 0 l 76 1028 l 283 1028 l 283 0 l 76 0 m 90 1108 l -47 1318 l 164 1318 l 269 1108 l 90 1108 z "},"Ỉ":{"ha":359,"x_min":40,"x_max":344,"o":"m 76 0 l 76 1028 l 283 1028 l 283 0 l 76 0 m 128 1108 q 148 1159 130 1142 q 199 1193 167 1177 q 223 1208 215 1201 q 231 1222 231 1214 q 215 1242 231 1235 q 163 1249 199 1249 q 100 1244 133 1249 q 40 1231 67 1240 l 40 1313 q 105 1327 65 1322 q 179 1332 144 1332 q 304 1309 264 1332 q 344 1239 344 1286 q 330 1198 344 1213 q 286 1166 315 1183 q 248 1139 261 1151 q 232 1108 235 1126 l 128 1108 z "},"Ȋ":{"ha":359,"x_min":-49,"x_max":408,"o":"m 76 0 l 76 1028 l 283 1028 l 283 0 l 76 0 m -49 1113 q 19 1264 -40 1212 q 179 1315 78 1315 q 340 1263 281 1315 q 408 1113 399 1211 l 283 1113 q 252 1189 277 1166 q 179 1213 227 1213 q 107 1189 131 1213 q 76 1113 82 1166 l -49 1113 z "},"Ī":{"ha":359,"x_min":-53,"x_max":413,"o":"m 76 0 l 76 1028 l 283 1028 l 283 0 l 76 0 m -53 1147 l -53 1280 l 413 1280 l 413 1147 l -53 1147 z "},"Į":{"ha":359,"x_min":9,"x_max":311,"o":"m 217 -221 q 311 -200 262 -221 l 311 -285 q 192 -307 254 -307 q 55 -270 101 -307 q 9 -164 9 -233 q 34 -75 9 -115 q 117 0 60 -35 l 76 0 l 76 1028 l 283 1028 l 283 0 q 159 -73 193 -36 q 126 -153 126 -109 q 217 -221 126 -221 z "},"Ĩ":{"ha":359,"x_min":-58,"x_max":417,"o":"m 76 0 l 76 1028 l 283 1028 l 283 0 l 76 0 m 289 1124 q 233 1132 258 1124 q 168 1153 208 1139 q 113 1173 135 1167 q 68 1179 91 1179 q 1 1167 30 1179 q -58 1127 -28 1154 l -58 1255 q -3 1294 -33 1281 q 70 1306 28 1306 q 128 1299 101 1306 q 192 1276 156 1291 q 246 1256 224 1263 q 291 1250 268 1250 q 358 1263 329 1250 q 417 1302 388 1275 l 417 1174 q 362 1136 393 1148 q 289 1124 331 1124 z "},"J":{"ha":359,"x_min":-26,"x_max":283,"o":"m -26 -152 q 54 13 32 -67 q 76 208 76 93 l 76 1028 l 283 1028 l 283 210 q 242 -27 281 78 q 110 -241 202 -132 l -26 -152 z "},"Ĵ":{"ha":359,"x_min":-42,"x_max":401,"o":"m -26 -152 q 54 13 32 -67 q 76 208 76 93 l 76 1028 l 283 1028 l 283 210 q 242 -27 281 78 q 110 -241 202 -132 l -26 -152 m 401 1108 l 261 1108 l 180 1243 l 98 1108 l -42 1108 l 93 1318 l 267 1318 l 401 1108 z "},"K":{"ha":819,"x_min":76,"x_max":861,"o":"m 640 0 l 367 431 l 283 431 l 283 0 l 76 0 l 76 1028 l 283 1028 l 283 619 l 369 619 l 620 1028 l 835 1028 l 529 531 l 861 0 l 640 0 z "},"Ķ":{"ha":819,"x_min":76,"x_max":861,"o":"m 640 0 l 367 431 l 283 431 l 283 0 l 76 0 l 76 1028 l 283 1028 l 283 619 l 369 619 l 620 1028 l 835 1028 l 529 531 l 861 0 l 640 0 m 429 -89 q 544 -192 544 -89 q 530 -269 544 -227 q 492 -344 515 -312 l 364 -344 q 401 -243 394 -283 q 337 -218 358 -238 q 315 -166 315 -198 q 344 -109 315 -129 q 429 -89 372 -89 z "},"L":{"ha":690,"x_min":76,"x_max":687,"o":"m 76 0 l 76 1028 l 283 1028 l 283 183 l 687 183 l 687 0 l 76 0 z "},"Ǉ":{"ha":1049,"x_min":76,"x_max":972,"o":"m 76 0 l 76 1028 l 283 1028 l 283 183 l 687 183 l 687 0 l 76 0 m 664 -152 q 744 13 722 -67 q 766 208 766 93 l 766 1028 l 972 1028 l 972 210 q 931 -27 971 78 q 799 -241 892 -132 l 664 -152 z "},"Ĺ":{"ha":690,"x_min":76,"x_max":687,"o":"m 76 0 l 76 1028 l 283 1028 l 283 183 l 687 183 l 687 0 l 76 0 m 93 1108 l 199 1318 l 409 1318 l 273 1108 l 93 1108 z "},"Ľ":{"ha":690,"x_min":76,"x_max":687,"o":"m 76 0 l 76 1028 l 283 1028 l 283 183 l 687 183 l 687 0 l 76 0 m 430 792 q 445 942 441 867 q 449 1122 449 1017 l 589 1122 q 543 792 589 922 l 430 792 z "},"Ļ":{"ha":690,"x_min":76,"x_max":687,"o":"m 76 0 l 76 1028 l 283 1028 l 283 183 l 687 183 l 687 0 l 76 0 m 381 -89 q 497 -192 497 -89 q 482 -269 497 -227 q 444 -344 467 -312 l 316 -344 q 353 -243 347 -283 q 289 -218 310 -238 q 267 -166 267 -198 q 296 -109 267 -129 q 381 -89 324 -89 z "},"Ŀ":{"ha":690,"x_min":76,"x_max":687,"o":"m 76 0 l 76 1028 l 283 1028 l 283 183 l 687 183 l 687 0 l 76 0 m 521 481 q 426 511 458 481 q 394 596 394 541 q 426 681 394 651 q 521 711 458 711 q 617 681 585 711 q 649 596 649 651 q 617 511 649 541 q 521 481 585 481 z "},"Ḷ":{"ha":690,"x_min":76,"x_max":687,"o":"m 76 0 l 76 1028 l 283 1028 l 283 183 l 687 183 l 687 0 l 76 0 m 382 -290 q 287 -265 321 -290 q 253 -190 253 -240 q 288 -115 253 -140 q 382 -89 322 -89 q 476 -115 442 -89 q 510 -190 510 -140 q 476 -265 510 -240 q 382 -290 442 -290 z "},"ǈ":{"ha":1028,"x_min":76,"x_max":986,"o":"m 76 0 l 76 1028 l 283 1028 l 283 183 l 687 183 l 687 0 l 76 0 m 655 -238 q 735 -73 713 -153 q 758 122 758 7 l 758 760 l 961 760 l 961 132 q 922 -111 961 -4 q 790 -327 883 -217 l 655 -238 m 859 871 q 764 901 795 871 q 732 985 732 931 q 764 1070 732 1040 q 859 1101 795 1101 q 955 1070 923 1101 q 986 985 986 1040 q 955 901 986 931 q 859 871 923 871 z "},"Ḻ":{"ha":690,"x_min":76,"x_max":687,"o":"m 76 0 l 76 1028 l 283 1028 l 283 183 l 687 183 l 687 0 l 76 0 m 149 -251 l 149 -118 l 615 -118 l 615 -251 l 149 -251 z "},"Ł":{"ha":708,"x_min":-20,"x_max":706,"o":"m 301 183 l 706 183 l 706 0 l 95 0 l 95 432 l 46 403 l -20 528 l 95 595 l 95 1028 l 301 1028 l 301 716 l 463 810 l 529 685 l 301 552 l 301 183 z "},"M":{"ha":1160,"x_min":79,"x_max":1081,"o":"m 828 1028 l 1081 1028 l 1081 0 l 890 0 l 890 735 l 663 149 l 498 149 l 271 719 l 271 0 l 79 0 l 79 1028 l 332 1028 l 584 377 l 828 1028 z "},"Ṃ":{"ha":1160,"x_min":79,"x_max":1081,"o":"m 828 1028 l 1081 1028 l 1081 0 l 890 0 l 890 735 l 663 149 l 498 149 l 271 719 l 271 0 l 79 0 l 79 1028 l 332 1028 l 584 377 l 828 1028 m 593 -290 q 498 -265 532 -290 q 465 -190 465 -240 q 499 -115 465 -140 q 593 -89 533 -89 q 687 -115 653 -89 q 721 -190 721 -140 q 687 -265 721 -240 q 593 -290 653 -290 z "},"N":{"ha":931,"x_min":76,"x_max":855,"o":"m 662 1028 l 855 1028 l 855 0 l 648 0 l 269 683 l 269 0 l 76 0 l 76 1028 l 283 1028 l 662 345 l 662 1028 z "},"Ǌ":{"ha":1290,"x_min":76,"x_max":1214,"o":"m 662 1028 l 855 1028 l 855 0 l 648 0 l 269 683 l 269 0 l 76 0 l 76 1028 l 283 1028 l 662 345 l 662 1028 m 906 -152 q 985 13 963 -67 q 1008 208 1008 93 l 1008 1028 l 1214 1028 l 1214 210 q 1173 -27 1213 78 q 1041 -241 1133 -132 l 906 -152 z "},"Ń":{"ha":931,"x_min":76,"x_max":855,"o":"m 662 1028 l 855 1028 l 855 0 l 648 0 l 269 683 l 269 0 l 76 0 l 76 1028 l 283 1028 l 662 345 l 662 1028 m 375 1108 l 481 1318 l 691 1318 l 555 1108 l 375 1108 z "},"Ň":{"ha":931,"x_min":76,"x_max":855,"o":"m 662 1028 l 855 1028 l 855 0 l 648 0 l 269 683 l 269 0 l 76 0 l 76 1028 l 283 1028 l 662 345 l 662 1028 m 547 1318 l 686 1318 l 552 1108 l 378 1108 l 244 1318 l 383 1318 l 465 1183 l 547 1318 z "},"Ņ":{"ha":931,"x_min":76,"x_max":855,"o":"m 662 1028 l 855 1028 l 855 0 l 648 0 l 269 683 l 269 0 l 76 0 l 76 1028 l 283 1028 l 662 345 l 662 1028 m 465 -89 q 580 -192 580 -89 q 565 -269 580 -227 q 528 -344 550 -312 l 399 -344 q 437 -243 430 -283 q 372 -218 394 -238 q 351 -166 351 -198 q 379 -109 351 -129 q 465 -89 408 -89 z "},"Ṅ":{"ha":931,"x_min":76,"x_max":855,"o":"m 662 1028 l 855 1028 l 855 0 l 648 0 l 269 683 l 269 0 l 76 0 l 76 1028 l 283 1028 l 662 345 l 662 1028 m 465 1115 q 371 1140 405 1115 q 337 1216 337 1166 q 371 1291 337 1265 q 465 1317 405 1317 q 559 1291 526 1317 q 593 1216 593 1265 q 559 1140 593 1166 q 465 1115 526 1115 z "},"Ṇ":{"ha":931,"x_min":76,"x_max":855,"o":"m 662 1028 l 855 1028 l 855 0 l 648 0 l 269 683 l 269 0 l 76 0 l 76 1028 l 283 1028 l 662 345 l 662 1028 m 465 -290 q 370 -265 404 -290 q 337 -190 337 -240 q 371 -115 337 -140 q 465 -89 405 -89 q 559 -115 526 -89 q 593 -190 593 -140 q 559 -265 593 -240 q 465 -290 526 -290 z "},"Ŋ":{"ha":931,"x_min":76,"x_max":855,"o":"m 855 1028 l 855 151 q 838 -29 855 51 q 784 -180 822 -108 q 684 -327 747 -252 l 549 -238 q 616 -124 592 -178 q 652 -8 641 -69 l 269 683 l 269 0 l 76 0 l 76 1028 l 283 1028 l 662 344 l 662 1028 l 855 1028 z "},"ǋ":{"ha":1270,"x_min":76,"x_max":1228,"o":"m 662 1028 l 855 1028 l 855 0 l 648 0 l 269 683 l 269 0 l 76 0 l 76 1028 l 283 1028 l 662 345 l 662 1028 m 897 -238 q 977 -73 954 -153 q 999 122 999 7 l 999 760 l 1203 760 l 1203 132 q 1164 -111 1203 -4 q 1032 -327 1125 -217 l 897 -238 m 1101 871 q 1005 901 1037 871 q 974 985 974 931 q 1005 1070 974 1040 q 1101 1101 1037 1101 q 1196 1070 1165 1101 q 1228 985 1228 1040 q 1196 901 1228 931 q 1101 871 1165 871 z "},"Ṉ":{"ha":931,"x_min":76,"x_max":855,"o":"m 662 1028 l 855 1028 l 855 0 l 648 0 l 269 683 l 269 0 l 76 0 l 76 1028 l 283 1028 l 662 345 l 662 1028 m 232 -251 l 232 -118 l 699 -118 l 699 -251 l 232 -251 z "},"Ñ":{"ha":931,"x_min":76,"x_max":855,"o":"m 662 1028 l 855 1028 l 855 0 l 648 0 l 269 683 l 269 0 l 76 0 l 76 1028 l 283 1028 l 662 345 l 662 1028 m 574 1124 q 518 1132 544 1124 q 453 1153 493 1139 q 399 1173 421 1167 q 353 1179 376 1179 q 286 1167 315 1179 q 228 1127 257 1154 l 228 1255 q 283 1294 252 1281 q 356 1306 313 1306 q 414 1299 387 1306 q 477 1276 441 1291 q 532 1256 510 1263 q 576 1250 553 1250 q 644 1263 615 1250 q 703 1302 673 1275 l 703 1174 q 648 1136 678 1148 q 574 1124 617 1124 z "},"O":{"ha":922,"x_min":47,"x_max":875,"o":"m 461 -13 q 157 115 267 -13 q 47 514 47 242 q 157 913 47 785 q 461 1041 267 1041 q 765 913 656 1041 q 875 514 875 785 q 765 115 875 242 q 461 -13 656 -13 m 461 158 q 571 192 526 158 q 639 303 615 226 q 663 509 663 381 q 640 722 663 642 q 572 835 616 801 q 461 869 527 869 q 351 836 395 869 q 283 725 306 802 q 259 519 259 647 q 283 306 259 385 q 351 192 306 226 q 461 158 395 158 z "},"Ó":{"ha":922,"x_min":47,"x_max":875,"o":"m 461 -13 q 157 115 267 -13 q 47 514 47 242 q 157 913 47 785 q 461 1041 267 1041 q 765 913 656 1041 q 875 514 875 785 q 765 115 875 242 q 461 -13 656 -13 m 461 158 q 571 192 526 158 q 639 303 615 226 q 663 509 663 381 q 640 722 663 642 q 572 835 616 801 q 461 869 527 869 q 351 836 395 869 q 283 725 306 802 q 259 519 259 647 q 283 306 259 385 q 351 192 306 226 q 461 158 395 158 m 371 1108 l 476 1318 l 687 1318 l 551 1108 l 371 1108 z "},"Ŏ":{"ha":922,"x_min":47,"x_max":875,"o":"m 461 -13 q 157 115 267 -13 q 47 514 47 242 q 157 913 47 785 q 461 1041 267 1041 q 765 913 656 1041 q 875 514 875 785 q 765 115 875 242 q 461 -13 656 -13 m 461 158 q 571 192 526 158 q 639 303 615 226 q 663 509 663 381 q 640 722 663 642 q 572 835 616 801 q 461 869 527 869 q 351 836 395 869 q 283 725 306 802 q 259 519 259 647 q 283 306 259 385 q 351 192 306 226 q 461 158 395 158 m 461 1110 q 301 1162 360 1110 q 233 1313 242 1214 l 358 1313 q 389 1236 364 1260 q 461 1213 413 1213 q 534 1236 509 1213 q 565 1313 559 1260 l 690 1313 q 622 1162 681 1214 q 461 1110 563 1110 z "},"Ô":{"ha":922,"x_min":47,"x_max":875,"o":"m 461 -13 q 157 115 267 -13 q 47 514 47 242 q 157 913 47 785 q 461 1041 267 1041 q 765 913 656 1041 q 875 514 875 785 q 765 115 875 242 q 461 -13 656 -13 m 461 158 q 571 192 526 158 q 639 303 615 226 q 663 509 663 381 q 640 722 663 642 q 572 835 616 801 q 461 869 527 869 q 351 836 395 869 q 283 725 306 802 q 259 519 259 647 q 283 306 259 385 q 351 192 306 226 q 461 158 395 158 m 682 1108 l 542 1108 l 461 1243 l 379 1108 l 240 1108 l 374 1318 l 548 1318 l 682 1108 z "},"Ố":{"ha":922,"x_min":47,"x_max":875,"o":"m 461 -13 q 157 115 267 -13 q 47 514 47 242 q 157 913 47 785 q 461 1041 267 1041 q 765 913 656 1041 q 875 514 875 785 q 765 115 875 242 q 461 -13 656 -13 m 461 158 q 571 192 526 158 q 639 303 615 226 q 663 509 663 381 q 640 722 663 642 q 572 835 616 801 q 461 869 527 869 q 351 836 395 869 q 283 725 306 802 q 259 519 259 647 q 283 306 259 385 q 351 192 306 226 q 461 158 395 158 m 685 1433 l 815 1433 l 717 1262 l 617 1262 l 685 1433 m 374 1297 l 548 1297 l 682 1108 l 542 1108 l 461 1231 l 379 1108 l 240 1108 l 374 1297 z "},"Ộ":{"ha":922,"x_min":47,"x_max":875,"o":"m 461 -13 q 157 115 267 -13 q 47 514 47 242 q 157 913 47 785 q 461 1041 267 1041 q 765 913 656 1041 q 875 514 875 785 q 765 115 875 242 q 461 -13 656 -13 m 461 158 q 571 192 526 158 q 639 303 615 226 q 663 509 663 381 q 640 722 663 642 q 572 835 616 801 q 461 869 527 869 q 351 836 395 869 q 283 725 306 802 q 259 519 259 647 q 283 306 259 385 q 351 192 306 226 q 461 158 395 158 m 461 -290 q 366 -265 400 -290 q 333 -190 333 -240 q 367 -115 333 -140 q 461 -89 401 -89 q 555 -115 522 -89 q 589 -190 589 -140 q 555 -265 589 -240 q 461 -290 522 -290 m 682 1108 l 542 1108 l 461 1243 l 379 1108 l 240 1108 l 374 1318 l 548 1318 l 682 1108 z "},"Ồ":{"ha":922,"x_min":47,"x_max":875,"o":"m 461 -13 q 157 115 267 -13 q 47 514 47 242 q 157 913 47 785 q 461 1041 267 1041 q 765 913 656 1041 q 875 514 875 785 q 765 115 875 242 q 461 -13 656 -13 m 461 158 q 571 192 526 158 q 639 303 615 226 q 663 509 663 381 q 640 722 663 642 q 572 835 616 801 q 461 869 527 869 q 351 836 395 869 q 283 725 306 802 q 259 519 259 647 q 283 306 259 385 q 351 192 306 226 q 461 158 395 158 m 740 1262 l 640 1262 l 542 1433 l 672 1433 l 740 1262 m 374 1297 l 548 1297 l 682 1108 l 542 1108 l 461 1231 l 379 1108 l 240 1108 l 374 1297 z "},"Ổ":{"ha":922,"x_min":47,"x_max":875,"o":"m 461 -13 q 157 115 267 -13 q 47 514 47 242 q 157 913 47 785 q 461 1041 267 1041 q 765 913 656 1041 q 875 514 875 785 q 765 115 875 242 q 461 -13 656 -13 m 461 158 q 571 192 526 158 q 639 303 615 226 q 663 509 663 381 q 640 722 663 642 q 572 835 616 801 q 461 869 527 869 q 351 836 395 869 q 283 725 306 802 q 259 519 259 647 q 283 306 259 385 q 351 192 306 226 q 461 158 395 158 m 668 1463 q 793 1442 753 1463 q 833 1380 833 1422 q 819 1343 833 1356 q 775 1314 804 1330 q 737 1290 750 1301 q 721 1262 724 1279 l 617 1262 q 637 1308 619 1292 q 687 1338 656 1324 q 712 1352 704 1347 q 720 1365 720 1358 q 651 1390 720 1390 q 589 1386 622 1390 q 528 1374 556 1382 l 528 1446 q 594 1458 554 1453 q 668 1463 635 1463 m 374 1297 l 548 1297 l 682 1108 l 542 1108 l 461 1231 l 379 1108 l 240 1108 l 374 1297 z "},"Ỗ":{"ha":922,"x_min":47,"x_max":875,"o":"m 461 -13 q 157 115 267 -13 q 47 514 47 242 q 157 913 47 785 q 461 1041 267 1041 q 765 913 656 1041 q 875 514 875 785 q 765 115 875 242 q 461 -13 656 -13 m 461 158 q 571 192 526 158 q 639 303 615 226 q 663 509 663 381 q 640 722 663 642 q 572 835 616 801 q 461 869 527 869 q 351 836 395 869 q 283 725 306 802 q 259 519 259 647 q 283 306 259 385 q 351 192 306 226 q 461 158 395 158 m 555 1419 q 619 1430 591 1419 q 682 1466 648 1440 l 682 1369 q 624 1336 653 1345 q 553 1326 594 1326 q 506 1332 528 1326 q 449 1350 483 1338 q 404 1365 422 1360 q 367 1370 385 1370 q 303 1359 331 1370 q 240 1323 274 1349 l 240 1419 q 298 1454 269 1444 q 369 1463 328 1463 q 417 1457 394 1463 q 474 1440 440 1451 q 520 1424 502 1429 q 555 1419 538 1419 m 374 1297 l 548 1297 l 682 1108 l 542 1108 l 461 1231 l 379 1108 l 240 1108 l 374 1297 z "},"Ȍ":{"ha":922,"x_min":47,"x_max":875,"o":"m 461 -13 q 157 115 267 -13 q 47 514 47 242 q 157 913 47 785 q 461 1041 267 1041 q 765 913 656 1041 q 875 514 875 785 q 765 115 875 242 q 461 -13 656 -13 m 461 158 q 571 192 526 158 q 639 303 615 226 q 663 509 663 381 q 640 722 663 642 q 572 835 616 801 q 461 869 527 869 q 351 836 395 869 q 283 725 306 802 q 259 519 259 647 q 283 306 259 385 q 351 192 306 226 q 461 158 395 158 m 251 1108 l 165 1318 l 331 1318 l 407 1108 l 251 1108 m 515 1108 l 428 1318 l 594 1318 l 671 1108 l 515 1108 z "},"Ö":{"ha":922,"x_min":47,"x_max":875,"o":"m 461 -13 q 157 115 267 -13 q 47 514 47 242 q 157 913 47 785 q 461 1041 267 1041 q 765 913 656 1041 q 875 514 875 785 q 765 115 875 242 q 461 -13 656 -13 m 461 158 q 571 192 526 158 q 639 303 615 226 q 663 509 663 381 q 640 722 663 642 q 572 835 616 801 q 461 869 527 869 q 351 836 395 869 q 283 725 306 802 q 259 519 259 647 q 283 306 259 385 q 351 192 306 226 q 461 158 395 158 m 302 1115 q 218 1141 248 1115 q 188 1216 188 1167 q 218 1290 188 1264 q 302 1317 248 1317 q 386 1290 356 1317 q 416 1216 416 1264 q 386 1141 416 1167 q 302 1115 356 1115 m 620 1115 q 536 1141 566 1115 q 506 1216 506 1168 q 536 1290 506 1264 q 620 1317 566 1317 q 705 1290 674 1317 q 735 1216 735 1264 q 705 1141 735 1167 q 620 1115 674 1115 z "},"Ȫ":{"ha":922,"x_min":47,"x_max":875,"o":"m 461 -13 q 157 115 267 -13 q 47 514 47 242 q 157 913 47 785 q 461 1041 267 1041 q 765 913 656 1041 q 875 514 875 785 q 765 115 875 242 q 461 -13 656 -13 m 461 158 q 571 192 526 158 q 639 303 615 226 q 663 509 663 381 q 640 722 663 642 q 572 835 616 801 q 461 869 527 869 q 351 836 395 869 q 283 725 306 802 q 259 519 259 647 q 283 306 259 385 q 351 192 306 226 q 461 158 395 158 m 302 1115 q 218 1141 248 1115 q 188 1216 188 1167 q 218 1290 188 1264 q 302 1317 248 1317 q 386 1290 356 1317 q 416 1216 416 1264 q 386 1141 416 1167 q 302 1115 356 1115 m 620 1115 q 536 1141 566 1115 q 506 1216 506 1168 q 536 1290 506 1264 q 620 1317 566 1317 q 705 1290 674 1317 q 735 1216 735 1264 q 705 1141 735 1167 q 620 1115 674 1115 m 228 1398 l 228 1531 l 694 1531 l 694 1398 l 228 1398 z "},"Ȱ":{"ha":922,"x_min":47,"x_max":875,"o":"m 461 -13 q 157 115 267 -13 q 47 514 47 242 q 157 913 47 785 q 461 1041 267 1041 q 765 913 656 1041 q 875 514 875 785 q 765 115 875 242 q 461 -13 656 -13 m 461 158 q 571 192 526 158 q 639 303 615 226 q 663 509 663 381 q 640 722 663 642 q 572 835 616 801 q 461 869 527 869 q 351 836 395 869 q 283 725 306 802 q 259 519 259 647 q 283 306 259 385 q 351 192 306 226 q 461 158 395 158 m 461 1115 q 367 1140 401 1115 q 333 1216 333 1166 q 367 1291 333 1265 q 461 1317 401 1317 q 555 1291 522 1317 q 589 1216 589 1265 q 555 1140 589 1166 q 461 1115 522 1115 m 228 1398 l 228 1531 l 694 1531 l 694 1398 l 228 1398 z "},"Ọ":{"ha":922,"x_min":47,"x_max":875,"o":"m 461 -13 q 157 115 267 -13 q 47 514 47 242 q 157 913 47 785 q 461 1041 267 1041 q 765 913 656 1041 q 875 514 875 785 q 765 115 875 242 q 461 -13 656 -13 m 461 158 q 571 192 526 158 q 639 303 615 226 q 663 509 663 381 q 640 722 663 642 q 572 835 616 801 q 461 869 527 869 q 351 836 395 869 q 283 725 306 802 q 259 519 259 647 q 283 306 259 385 q 351 192 306 226 q 461 158 395 158 m 461 -290 q 366 -265 400 -290 q 333 -190 333 -240 q 367 -115 333 -140 q 461 -89 401 -89 q 555 -115 522 -89 q 589 -190 589 -140 q 555 -265 589 -240 q 461 -290 522 -290 z "},"Ò":{"ha":922,"x_min":47,"x_max":875,"o":"m 461 -13 q 157 115 267 -13 q 47 514 47 242 q 157 913 47 785 q 461 1041 267 1041 q 765 913 656 1041 q 875 514 875 785 q 765 115 875 242 q 461 -13 656 -13 m 461 158 q 571 192 526 158 q 639 303 615 226 q 663 509 663 381 q 640 722 663 642 q 572 835 616 801 q 461 869 527 869 q 351 836 395 869 q 283 725 306 802 q 259 519 259 647 q 283 306 259 385 q 351 192 306 226 q 461 158 395 158 m 371 1108 l 235 1318 l 445 1318 l 551 1108 l 371 1108 z "},"Ỏ":{"ha":922,"x_min":47,"x_max":875,"o":"m 461 -13 q 157 115 267 -13 q 47 514 47 242 q 157 913 47 785 q 461 1041 267 1041 q 765 913 656 1041 q 875 514 875 785 q 765 115 875 242 q 461 -13 656 -13 m 461 158 q 571 192 526 158 q 639 303 615 226 q 663 509 663 381 q 640 722 663 642 q 572 835 616 801 q 461 869 527 869 q 351 836 395 869 q 283 725 306 802 q 259 519 259 647 q 283 306 259 385 q 351 192 306 226 q 461 158 395 158 m 409 1108 q 430 1159 411 1142 q 480 1193 448 1177 q 505 1208 497 1201 q 513 1222 513 1214 q 496 1242 513 1235 q 444 1249 480 1249 q 381 1244 414 1249 q 321 1231 349 1240 l 321 1313 q 386 1327 346 1322 q 460 1332 426 1332 q 585 1309 545 1332 q 626 1239 626 1286 q 611 1198 626 1213 q 567 1166 597 1183 q 529 1139 542 1151 q 513 1108 516 1126 l 409 1108 z "},"Ơ":{"ha":922,"x_min":47,"x_max":885,"o":"m 885 1124 q 848 997 885 1044 q 746 935 811 950 q 875 514 875 804 q 766 114 875 242 q 461 -13 657 -13 q 156 114 265 -13 q 47 514 47 242 q 157 913 47 785 q 461 1041 267 1041 q 511 1039 487 1041 q 558 1033 536 1036 q 631 1027 601 1027 q 712 1052 684 1027 q 740 1135 740 1078 q 726 1233 740 1183 l 870 1233 q 885 1124 885 1187 m 461 158 q 571 192 526 158 q 639 303 615 226 q 663 509 663 381 q 640 722 663 642 q 572 835 616 801 q 461 869 527 869 q 351 836 395 869 q 283 725 306 802 q 259 519 259 647 q 283 306 259 385 q 351 192 306 226 q 461 158 395 158 z "},"Ớ":{"ha":922,"x_min":47,"x_max":885,"o":"m 885 1124 q 848 997 885 1044 q 746 935 811 950 q 875 514 875 804 q 766 114 875 242 q 461 -13 657 -13 q 156 114 265 -13 q 47 514 47 242 q 157 913 47 785 q 461 1041 267 1041 q 511 1039 487 1041 q 558 1033 536 1036 q 631 1027 601 1027 q 712 1052 684 1027 q 740 1135 740 1078 q 726 1233 740 1183 l 870 1233 q 885 1124 885 1187 m 461 158 q 571 192 526 158 q 639 303 615 226 q 663 509 663 381 q 640 722 663 642 q 572 835 616 801 q 461 869 527 869 q 351 836 395 869 q 283 725 306 802 q 259 519 259 647 q 283 306 259 385 q 351 192 306 226 q 461 158 395 158 m 371 1108 l 476 1318 l 687 1318 l 551 1108 l 371 1108 z "},"Ợ":{"ha":922,"x_min":47,"x_max":885,"o":"m 885 1124 q 848 997 885 1044 q 746 935 811 950 q 875 514 875 804 q 766 114 875 242 q 461 -13 657 -13 q 156 114 265 -13 q 47 514 47 242 q 157 913 47 785 q 461 1041 267 1041 q 511 1039 487 1041 q 558 1033 536 1036 q 631 1027 601 1027 q 712 1052 684 1027 q 740 1135 740 1078 q 726 1233 740 1183 l 870 1233 q 885 1124 885 1187 m 461 158 q 571 192 526 158 q 639 303 615 226 q 663 509 663 381 q 640 722 663 642 q 572 835 616 801 q 461 869 527 869 q 351 836 395 869 q 283 725 306 802 q 259 519 259 647 q 283 306 259 385 q 351 192 306 226 q 461 158 395 158 m 461 -290 q 366 -265 400 -290 q 333 -190 333 -240 q 367 -115 333 -140 q 461 -89 401 -89 q 555 -115 522 -89 q 589 -190 589 -140 q 555 -265 589 -240 q 461 -290 522 -290 z "},"Ờ":{"ha":922,"x_min":47,"x_max":885,"o":"m 885 1124 q 848 997 885 1044 q 746 935 811 950 q 875 514 875 804 q 766 114 875 242 q 461 -13 657 -13 q 156 114 265 -13 q 47 514 47 242 q 157 913 47 785 q 461 1041 267 1041 q 511 1039 487 1041 q 558 1033 536 1036 q 631 1027 601 1027 q 712 1052 684 1027 q 740 1135 740 1078 q 726 1233 740 1183 l 870 1233 q 885 1124 885 1187 m 461 158 q 571 192 526 158 q 639 303 615 226 q 663 509 663 381 q 640 722 663 642 q 572 835 616 801 q 461 869 527 869 q 351 836 395 869 q 283 725 306 802 q 259 519 259 647 q 283 306 259 385 q 351 192 306 226 q 461 158 395 158 m 371 1108 l 235 1318 l 445 1318 l 551 1108 l 371 1108 z "},"Ở":{"ha":922,"x_min":47,"x_max":885,"o":"m 885 1124 q 848 997 885 1044 q 746 935 811 950 q 875 514 875 804 q 766 114 875 242 q 461 -13 657 -13 q 156 114 265 -13 q 47 514 47 242 q 157 913 47 785 q 461 1041 267 1041 q 511 1039 487 1041 q 558 1033 536 1036 q 631 1027 601 1027 q 712 1052 684 1027 q 740 1135 740 1078 q 726 1233 740 1183 l 870 1233 q 885 1124 885 1187 m 461 158 q 571 192 526 158 q 639 303 615 226 q 663 509 663 381 q 640 722 663 642 q 572 835 616 801 q 461 869 527 869 q 351 836 395 869 q 283 725 306 802 q 259 519 259 647 q 283 306 259 385 q 351 192 306 226 q 461 158 395 158 m 409 1108 q 430 1159 411 1142 q 480 1193 448 1177 q 505 1208 497 1201 q 513 1222 513 1214 q 496 1242 513 1235 q 444 1249 480 1249 q 381 1244 414 1249 q 321 1231 349 1240 l 321 1313 q 386 1327 346 1322 q 460 1332 426 1332 q 585 1309 545 1332 q 626 1239 626 1286 q 611 1198 626 1213 q 567 1166 597 1183 q 529 1139 542 1151 q 513 1108 516 1126 l 409 1108 z "},"Ỡ":{"ha":922,"x_min":47,"x_max":885,"o":"m 563 1124 q 509 1132 534 1124 q 450 1154 483 1140 q 398 1173 416 1167 q 358 1179 379 1179 q 296 1167 323 1179 q 242 1127 269 1154 l 242 1255 q 293 1294 265 1281 q 360 1306 321 1306 q 413 1299 389 1306 q 472 1276 438 1291 q 522 1257 501 1263 q 563 1250 542 1250 q 626 1263 599 1250 q 680 1302 653 1275 l 680 1174 q 630 1136 658 1148 q 563 1124 601 1124 m 885 1124 q 848 997 885 1044 q 746 935 811 950 q 875 514 875 804 q 766 114 875 242 q 461 -13 657 -13 q 156 114 265 -13 q 47 514 47 242 q 157 913 47 785 q 461 1041 267 1041 q 511 1039 487 1041 q 558 1033 536 1036 q 631 1027 601 1027 q 712 1052 684 1027 q 740 1135 740 1078 q 726 1233 740 1183 l 870 1233 q 885 1124 885 1187 m 461 158 q 571 192 526 158 q 639 303 615 226 q 663 509 663 381 q 640 722 663 642 q 572 835 616 801 q 461 869 527 869 q 351 836 395 869 q 283 725 306 802 q 259 519 259 647 q 283 306 259 385 q 351 192 306 226 q 461 158 395 158 z "},"Ő":{"ha":922,"x_min":47,"x_max":875,"o":"m 461 -13 q 157 115 267 -13 q 47 514 47 242 q 157 913 47 785 q 461 1041 267 1041 q 765 913 656 1041 q 875 514 875 785 q 765 115 875 242 q 461 -13 656 -13 m 461 158 q 571 192 526 158 q 639 303 615 226 q 663 509 663 381 q 640 722 663 642 q 572 835 616 801 q 461 869 527 869 q 351 836 395 869 q 283 725 306 802 q 259 519 259 647 q 283 306 259 385 q 351 192 306 226 q 461 158 395 158 m 251 1108 l 328 1318 l 494 1318 l 407 1108 l 251 1108 m 515 1108 l 591 1318 l 757 1318 l 671 1108 l 515 1108 z "},"Ȏ":{"ha":922,"x_min":47,"x_max":875,"o":"m 461 -13 q 157 115 267 -13 q 47 514 47 242 q 157 913 47 785 q 461 1041 267 1041 q 765 913 656 1041 q 875 514 875 785 q 765 115 875 242 q 461 -13 656 -13 m 461 158 q 571 192 526 158 q 639 303 615 226 q 663 509 663 381 q 640 722 663 642 q 572 835 616 801 q 461 869 527 869 q 351 836 395 869 q 283 725 306 802 q 259 519 259 647 q 283 306 259 385 q 351 192 306 226 q 461 158 395 158 m 233 1113 q 300 1264 242 1212 q 460 1315 359 1315 q 621 1263 562 1315 q 690 1113 681 1211 l 565 1113 q 533 1189 558 1166 q 460 1213 508 1213 q 388 1189 413 1213 q 358 1113 363 1166 l 233 1113 z "},"Ō":{"ha":922,"x_min":47,"x_max":875,"o":"m 461 -13 q 157 115 267 -13 q 47 514 47 242 q 157 913 47 785 q 461 1041 267 1041 q 765 913 656 1041 q 875 514 875 785 q 765 115 875 242 q 461 -13 656 -13 m 461 158 q 571 192 526 158 q 639 303 615 226 q 663 509 663 381 q 640 722 663 642 q 572 835 616 801 q 461 869 527 869 q 351 836 395 869 q 283 725 306 802 q 259 519 259 647 q 283 306 259 385 q 351 192 306 226 q 461 158 395 158 m 228 1147 l 228 1280 l 694 1280 l 694 1147 l 228 1147 z "},"Ṓ":{"ha":922,"x_min":47,"x_max":875,"o":"m 461 -13 q 157 115 267 -13 q 47 514 47 242 q 157 913 47 785 q 461 1041 267 1041 q 765 913 656 1041 q 875 514 875 785 q 765 115 875 242 q 461 -13 656 -13 m 461 158 q 571 192 526 158 q 639 303 615 226 q 663 509 663 381 q 640 722 663 642 q 572 835 616 801 q 461 869 527 869 q 351 836 395 869 q 283 725 306 802 q 259 519 259 647 q 283 306 259 385 q 351 192 306 226 q 461 158 395 158 m 363 1358 l 468 1519 l 696 1519 l 560 1358 l 363 1358 m 228 1147 l 228 1280 l 694 1280 l 694 1147 l 228 1147 z "},"Ṑ":{"ha":922,"x_min":47,"x_max":875,"o":"m 461 -13 q 157 115 267 -13 q 47 514 47 242 q 157 913 47 785 q 461 1041 267 1041 q 765 913 656 1041 q 875 514 875 785 q 765 115 875 242 q 461 -13 656 -13 m 461 158 q 571 192 526 158 q 639 303 615 226 q 663 509 663 381 q 640 722 663 642 q 572 835 616 801 q 461 869 527 869 q 351 836 395 869 q 283 725 306 802 q 259 519 259 647 q 283 306 259 385 q 351 192 306 226 q 461 158 395 158 m 363 1358 l 226 1519 l 454 1519 l 560 1358 l 363 1358 m 228 1147 l 228 1280 l 694 1280 l 694 1147 l 228 1147 z "},"Ǫ":{"ha":922,"x_min":47,"x_max":875,"o":"m 622 12 q 488 -64 528 -24 q 447 -153 447 -105 q 538 -221 447 -221 q 632 -200 583 -221 l 632 -285 q 513 -307 575 -307 q 376 -270 422 -307 q 329 -164 329 -233 q 351 -81 329 -118 q 422 -12 373 -44 q 145 128 243 0 q 47 514 47 256 q 157 913 47 785 q 461 1041 267 1041 q 765 913 656 1041 q 875 514 875 785 q 807 177 875 298 q 622 12 738 56 m 259 519 q 283 306 259 385 q 351 192 306 226 q 461 158 395 158 q 571 192 526 158 q 639 303 615 226 q 663 509 663 381 q 640 722 663 642 q 572 835 616 801 q 461 869 527 869 q 351 836 395 869 q 283 725 306 802 q 259 519 259 647 z "},"Ø":{"ha":922,"x_min":47,"x_max":875,"o":"m 777 898 q 875 514 875 765 q 765 115 875 242 q 461 -13 656 -13 q 228 50 321 -13 l 174 -33 l 80 28 l 145 129 q 47 514 47 263 q 157 913 47 785 q 461 1041 267 1041 q 694 978 601 1041 l 748 1061 l 842 999 l 777 898 m 259 519 q 276 332 259 404 l 590 817 q 461 869 543 869 q 351 836 395 869 q 283 725 306 802 q 259 519 259 647 m 461 158 q 571 192 526 158 q 639 303 615 226 q 663 509 663 381 q 646 696 663 624 l 332 210 q 461 158 378 158 z "},"Ǿ":{"ha":922,"x_min":47,"x_max":875,"o":"m 777 898 q 875 514 875 765 q 765 115 875 242 q 461 -13 656 -13 q 228 50 321 -13 l 174 -33 l 80 28 l 145 129 q 47 514 47 263 q 157 913 47 785 q 461 1041 267 1041 q 694 978 601 1041 l 748 1061 l 842 999 l 777 898 m 259 519 q 276 332 259 404 l 590 817 q 461 869 543 869 q 351 836 395 869 q 283 725 306 802 q 259 519 259 647 m 461 158 q 571 192 526 158 q 639 303 615 226 q 663 509 663 381 q 646 696 663 624 l 332 210 q 461 158 378 158 m 372 1108 l 478 1318 l 688 1318 l 552 1108 l 372 1108 z "},"Õ":{"ha":922,"x_min":47,"x_max":875,"o":"m 461 -13 q 157 115 267 -13 q 47 514 47 242 q 157 913 47 785 q 461 1041 267 1041 q 765 913 656 1041 q 875 514 875 785 q 765 115 875 242 q 461 -13 656 -13 m 461 158 q 571 192 526 158 q 639 303 615 226 q 663 509 663 381 q 640 722 663 642 q 572 835 616 801 q 461 869 527 869 q 351 836 395 869 q 283 725 306 802 q 259 519 259 647 q 283 306 259 385 q 351 192 306 226 q 461 158 395 158 m 570 1124 q 514 1132 540 1124 q 449 1153 489 1139 q 394 1173 417 1167 q 349 1179 372 1179 q 282 1167 311 1179 q 224 1127 253 1154 l 224 1255 q 278 1294 248 1281 q 351 1306 309 1306 q 410 1299 383 1306 q 473 1276 437 1291 q 527 1256 506 1263 q 572 1250 549 1250 q 640 1263 610 1250 q 699 1302 669 1275 l 699 1174 q 643 1136 674 1148 q 570 1124 613 1124 z "},"Ṍ":{"ha":922,"x_min":47,"x_max":875,"o":"m 461 -13 q 157 115 267 -13 q 47 514 47 242 q 157 913 47 785 q 461 1041 267 1041 q 765 913 656 1041 q 875 514 875 785 q 765 115 875 242 q 461 -13 656 -13 m 461 158 q 571 192 526 158 q 639 303 615 226 q 663 509 663 381 q 640 722 663 642 q 572 835 616 801 q 461 869 527 869 q 351 836 395 869 q 283 725 306 802 q 259 519 259 647 q 283 306 259 385 q 351 192 306 226 q 461 158 395 158 m 363 1358 l 468 1519 l 696 1519 l 560 1358 l 363 1358 m 570 1124 q 514 1132 540 1124 q 449 1153 489 1139 q 394 1173 417 1167 q 349 1179 372 1179 q 282 1167 311 1179 q 224 1127 253 1154 l 224 1255 q 278 1294 248 1281 q 351 1306 309 1306 q 410 1299 383 1306 q 473 1276 437 1291 q 527 1256 506 1263 q 572 1250 549 1250 q 640 1263 610 1250 q 699 1302 669 1275 l 699 1174 q 643 1136 674 1148 q 570 1124 613 1124 z "},"Ṏ":{"ha":922,"x_min":47,"x_max":875,"o":"m 461 -13 q 157 115 267 -13 q 47 514 47 242 q 157 913 47 785 q 461 1041 267 1041 q 765 913 656 1041 q 875 514 875 785 q 765 115 875 242 q 461 -13 656 -13 m 461 158 q 571 192 526 158 q 639 303 615 226 q 663 509 663 381 q 640 722 663 642 q 572 835 616 801 q 461 869 527 869 q 351 836 395 869 q 283 725 306 802 q 259 519 259 647 q 283 306 259 385 q 351 192 306 226 q 461 158 395 158 m 570 1124 q 514 1132 540 1124 q 449 1153 489 1139 q 394 1173 417 1167 q 349 1179 372 1179 q 282 1167 311 1179 q 224 1127 253 1154 l 224 1255 q 278 1294 248 1281 q 351 1306 309 1306 q 410 1299 383 1306 q 473 1276 437 1291 q 527 1256 506 1263 q 572 1250 549 1250 q 640 1263 610 1250 q 699 1302 669 1275 l 699 1174 q 643 1136 674 1148 q 570 1124 613 1124 m 302 1365 q 218 1392 248 1365 q 188 1467 188 1418 q 218 1541 188 1515 q 302 1567 248 1567 q 386 1541 356 1567 q 416 1467 416 1515 q 386 1392 416 1418 q 302 1365 356 1365 m 620 1365 q 536 1392 566 1365 q 506 1467 506 1419 q 536 1541 506 1515 q 620 1567 566 1567 q 705 1541 674 1567 q 735 1467 735 1515 q 705 1392 735 1418 q 620 1365 674 1365 z "},"Ȭ":{"ha":922,"x_min":47,"x_max":875,"o":"m 461 -13 q 157 115 267 -13 q 47 514 47 242 q 157 913 47 785 q 461 1041 267 1041 q 765 913 656 1041 q 875 514 875 785 q 765 115 875 242 q 461 -13 656 -13 m 461 158 q 571 192 526 158 q 639 303 615 226 q 663 509 663 381 q 640 722 663 642 q 572 835 616 801 q 461 869 527 869 q 351 836 395 869 q 283 725 306 802 q 259 519 259 647 q 283 306 259 385 q 351 192 306 226 q 461 158 395 158 m 570 1124 q 514 1132 540 1124 q 449 1153 489 1139 q 394 1173 417 1167 q 349 1179 372 1179 q 282 1167 311 1179 q 224 1127 253 1154 l 224 1255 q 278 1294 248 1281 q 351 1306 309 1306 q 410 1299 383 1306 q 473 1276 437 1291 q 527 1256 506 1263 q 572 1250 549 1250 q 640 1263 610 1250 q 699 1302 669 1275 l 699 1174 q 643 1136 674 1148 q 570 1124 613 1124 m 228 1398 l 228 1531 l 694 1531 l 694 1398 l 228 1398 z "},"Œ":{"ha":1252,"x_min":47,"x_max":1217,"o":"m 1217 177 l 1217 0 l 731 0 q 646 -3 697 0 q 542 -7 563 -7 q 171 120 296 -7 q 47 514 47 248 q 176 907 47 778 q 546 1035 305 1035 q 649 1031 583 1035 q 730 1028 696 1028 l 1210 1028 l 1210 851 l 802 851 l 802 614 l 1140 614 l 1140 437 l 802 437 l 802 177 l 1217 177 m 599 858 q 510 863 558 863 q 371 828 426 863 q 288 718 316 794 q 259 514 259 641 q 288 309 259 385 q 374 199 317 232 q 515 165 430 165 q 599 168 567 165 l 599 858 z "},"P":{"ha":813,"x_min":76,"x_max":771,"o":"m 76 1010 q 351 1040 217 1040 q 667 950 563 1040 q 771 669 771 860 q 667 393 771 488 q 365 299 564 299 q 311 301 344 299 l 283 301 l 283 0 l 76 0 l 76 1010 m 368 466 q 521 514 472 466 q 570 666 570 561 q 522 824 570 774 q 370 874 473 874 q 283 866 325 874 l 283 472 q 368 466 319 466 z "},"Þ":{"ha":819,"x_min":76,"x_max":771,"o":"m 76 1028 l 283 1028 l 283 894 q 353 899 319 899 q 667 808 563 899 q 771 527 771 718 q 668 251 771 344 q 367 158 565 158 q 283 160 340 158 l 283 0 l 76 0 l 76 1028 m 368 325 q 521 372 472 325 q 570 524 570 419 q 522 682 570 633 q 370 732 473 732 q 283 724 320 732 l 283 330 q 368 325 321 325 z "},"Q":{"ha":922,"x_min":47,"x_max":875,"o":"m 875 514 q 802 178 875 304 q 590 19 729 52 q 859 -41 718 -22 l 820 -210 q 360 -67 529 -159 q 119 166 191 26 q 47 514 47 307 q 157 913 47 785 q 461 1041 267 1041 q 765 913 656 1041 q 875 514 875 785 m 259 519 q 283 306 259 385 q 351 192 306 226 q 461 158 395 158 q 571 192 526 158 q 639 303 615 226 q 663 509 663 381 q 640 722 663 642 q 572 835 616 801 q 461 869 527 869 q 351 836 395 869 q 283 725 306 802 q 259 519 259 647 z "},"R":{"ha":853,"x_min":76,"x_max":845,"o":"m 625 0 l 386 379 l 369 379 q 279 382 335 379 l 279 0 l 76 0 l 76 1010 q 358 1040 217 1040 q 666 958 564 1040 q 769 711 769 876 q 720 528 769 603 q 578 415 670 453 l 845 0 l 625 0 m 279 547 q 368 542 327 542 q 523 582 473 542 q 574 710 574 622 q 527 838 574 797 q 385 879 480 879 q 279 871 333 879 l 279 547 z "},"Ŕ":{"ha":853,"x_min":76,"x_max":845,"o":"m 625 0 l 386 379 l 369 379 q 279 382 335 379 l 279 0 l 76 0 l 76 1010 q 358 1040 217 1040 q 666 958 564 1040 q 769 711 769 876 q 720 528 769 603 q 578 415 670 453 l 845 0 l 625 0 m 279 547 q 368 542 327 542 q 523 582 473 542 q 574 710 574 622 q 527 838 574 797 q 385 879 480 879 q 279 871 333 879 l 279 547 m 322 1108 l 428 1318 l 638 1318 l 502 1108 l 322 1108 z "},"Ř":{"ha":853,"x_min":76,"x_max":845,"o":"m 625 0 l 386 379 l 369 379 q 279 382 335 379 l 279 0 l 76 0 l 76 1010 q 358 1040 217 1040 q 666 958 564 1040 q 769 711 769 876 q 720 528 769 603 q 578 415 670 453 l 845 0 l 625 0 m 279 547 q 368 542 327 542 q 523 582 473 542 q 574 710 574 622 q 527 838 574 797 q 385 879 480 879 q 279 871 333 879 l 279 547 m 494 1318 l 633 1318 l 499 1108 l 326 1108 l 191 1318 l 331 1318 l 413 1183 l 494 1318 z "},"Ŗ":{"ha":853,"x_min":76,"x_max":845,"o":"m 625 0 l 386 379 l 369 379 q 279 382 335 379 l 279 0 l 76 0 l 76 1010 q 358 1040 217 1040 q 666 958 564 1040 q 769 711 769 876 q 720 528 769 603 q 578 415 670 453 l 845 0 l 625 0 m 279 547 q 368 542 327 542 q 523 582 473 542 q 574 710 574 622 q 527 838 574 797 q 385 879 480 879 q 279 871 333 879 l 279 547 m 456 -89 q 571 -192 571 -89 q 556 -269 571 -227 q 519 -344 541 -312 l 390 -344 q 428 -243 421 -283 q 363 -218 385 -238 q 342 -166 342 -198 q 370 -109 342 -129 q 456 -89 399 -89 z "},"Ȑ":{"ha":853,"x_min":76,"x_max":845,"o":"m 625 0 l 386 379 l 369 379 q 279 382 335 379 l 279 0 l 76 0 l 76 1010 q 358 1040 217 1040 q 666 958 564 1040 q 769 711 769 876 q 720 528 769 603 q 578 415 670 453 l 845 0 l 625 0 m 279 547 q 368 542 327 542 q 523 582 473 542 q 574 710 574 622 q 527 838 574 797 q 385 879 480 879 q 279 871 333 879 l 279 547 m 203 1108 l 117 1318 l 282 1318 l 358 1108 l 203 1108 m 466 1108 l 380 1318 l 546 1318 l 622 1108 l 466 1108 z "},"Ṛ":{"ha":853,"x_min":76,"x_max":845,"o":"m 625 0 l 386 379 l 369 379 q 279 382 335 379 l 279 0 l 76 0 l 76 1010 q 358 1040 217 1040 q 666 958 564 1040 q 769 711 769 876 q 720 528 769 603 q 578 415 670 453 l 845 0 l 625 0 m 279 547 q 368 542 327 542 q 523 582 473 542 q 574 710 574 622 q 527 838 574 797 q 385 879 480 879 q 279 871 333 879 l 279 547 m 456 -290 q 361 -265 395 -290 q 328 -190 328 -240 q 362 -115 328 -140 q 456 -89 396 -89 q 550 -115 517 -89 q 584 -190 584 -140 q 550 -265 584 -240 q 456 -290 517 -290 z "},"Ȓ":{"ha":853,"x_min":76,"x_max":845,"o":"m 625 0 l 386 379 l 369 379 q 279 382 335 379 l 279 0 l 76 0 l 76 1010 q 358 1040 217 1040 q 666 958 564 1040 q 769 711 769 876 q 720 528 769 603 q 578 415 670 453 l 845 0 l 625 0 m 279 547 q 368 542 327 542 q 523 582 473 542 q 574 710 574 622 q 527 838 574 797 q 385 879 480 879 q 279 871 333 879 l 279 547 m 184 1113 q 252 1264 193 1212 q 412 1315 310 1315 q 573 1263 513 1315 q 641 1113 632 1211 l 516 1113 q 485 1189 510 1166 q 412 1213 460 1213 q 339 1189 364 1213 q 309 1113 315 1166 l 184 1113 z "},"Ṟ":{"ha":853,"x_min":76,"x_max":845,"o":"m 625 0 l 386 379 l 369 379 q 279 382 335 379 l 279 0 l 76 0 l 76 1010 q 358 1040 217 1040 q 666 958 564 1040 q 769 711 769 876 q 720 528 769 603 q 578 415 670 453 l 845 0 l 625 0 m 279 547 q 368 542 327 542 q 523 582 473 542 q 574 710 574 622 q 527 838 574 797 q 385 879 480 879 q 279 871 333 879 l 279 547 m 223 -251 l 223 -118 l 690 -118 l 690 -251 l 223 -251 z "},"S":{"ha":692,"x_min":24,"x_max":667,"o":"m 293 -13 q 168 -3 234 -13 q 49 27 102 8 l 49 201 q 289 160 174 160 q 460 282 460 160 q 448 338 460 315 q 406 379 435 360 q 322 415 376 397 l 253 438 q 84 547 145 475 q 24 731 24 619 q 67 897 24 828 q 195 1004 110 967 q 408 1041 281 1041 q 520 1034 466 1041 q 617 1015 575 1027 l 617 841 q 427 867 530 867 q 231 747 231 867 q 242 694 231 715 q 280 655 253 672 q 356 622 307 638 l 424 599 q 605 487 543 558 q 667 300 667 416 q 623 133 667 203 q 495 25 579 63 q 293 -13 411 -13 z "},"Ś":{"ha":692,"x_min":24,"x_max":667,"o":"m 293 -13 q 168 -3 234 -13 q 49 27 102 8 l 49 201 q 289 160 174 160 q 460 282 460 160 q 448 338 460 315 q 406 379 435 360 q 322 415 376 397 l 253 438 q 84 547 145 475 q 24 731 24 619 q 67 897 24 828 q 195 1004 110 967 q 408 1041 281 1041 q 520 1034 466 1041 q 617 1015 575 1027 l 617 841 q 427 867 530 867 q 231 747 231 867 q 242 694 231 715 q 280 655 253 672 q 356 622 307 638 l 424 599 q 605 487 543 558 q 667 300 667 416 q 623 133 667 203 q 495 25 579 63 q 293 -13 411 -13 m 263 1108 l 368 1318 l 578 1318 l 442 1108 l 263 1108 z "},"Ṥ":{"ha":692,"x_min":24,"x_max":667,"o":"m 293 -13 q 168 -3 234 -13 q 49 27 102 8 l 49 201 q 289 160 174 160 q 460 282 460 160 q 448 338 460 315 q 406 379 435 360 q 322 415 376 397 l 253 438 q 84 547 145 475 q 24 731 24 619 q 67 897 24 828 q 195 1004 110 967 q 408 1041 281 1041 q 520 1034 466 1041 q 617 1015 575 1027 l 617 841 q 427 867 530 867 q 231 747 231 867 q 242 694 231 715 q 280 655 253 672 q 356 622 307 638 l 424 599 q 605 487 543 558 q 667 300 667 416 q 623 133 667 203 q 495 25 579 63 q 293 -13 411 -13 m 198 1290 q 121 1311 149 1290 q 93 1374 93 1333 q 121 1436 93 1415 q 198 1457 149 1457 q 274 1436 247 1457 q 302 1374 302 1415 q 275 1311 302 1333 q 198 1290 247 1290 m 263 1108 l 368 1318 l 578 1318 l 442 1108 l 263 1108 z "},"Š":{"ha":692,"x_min":24,"x_max":667,"o":"m 293 -13 q 168 -3 234 -13 q 49 27 102 8 l 49 201 q 289 160 174 160 q 460 282 460 160 q 448 338 460 315 q 406 379 435 360 q 322 415 376 397 l 253 438 q 84 547 145 475 q 24 731 24 619 q 67 897 24 828 q 195 1004 110 967 q 408 1041 281 1041 q 520 1034 466 1041 q 617 1015 575 1027 l 617 841 q 427 867 530 867 q 231 747 231 867 q 242 694 231 715 q 280 655 253 672 q 356 622 307 638 l 424 599 q 605 487 543 558 q 667 300 667 416 q 623 133 667 203 q 495 25 579 63 q 293 -13 411 -13 m 434 1318 l 574 1318 l 440 1108 l 266 1108 l 131 1318 l 271 1318 l 353 1183 l 434 1318 z "},"Ṧ":{"ha":692,"x_min":24,"x_max":667,"o":"m 293 -13 q 168 -3 234 -13 q 49 27 102 8 l 49 201 q 289 160 174 160 q 460 282 460 160 q 448 338 460 315 q 406 379 435 360 q 322 415 376 397 l 253 438 q 84 547 145 475 q 24 731 24 619 q 67 897 24 828 q 195 1004 110 967 q 408 1041 281 1041 q 520 1034 466 1041 q 617 1015 575 1027 l 617 841 q 427 867 530 867 q 231 747 231 867 q 242 694 231 715 q 280 655 253 672 q 356 622 307 638 l 424 599 q 605 487 543 558 q 667 300 667 416 q 623 133 667 203 q 495 25 579 63 q 293 -13 411 -13 m 353 1338 q 276 1359 303 1338 q 248 1421 248 1380 q 276 1483 248 1462 q 353 1504 303 1504 q 430 1483 402 1504 q 458 1421 458 1462 q 430 1359 458 1380 q 353 1338 402 1338 m 434 1318 l 574 1318 l 440 1108 l 266 1108 l 131 1318 l 271 1318 l 353 1183 l 434 1318 z "},"Ş":{"ha":692,"x_min":24,"x_max":667,"o":"m 667 300 q 595 96 667 176 q 391 -6 524 16 l 391 -62 q 480 -100 449 -70 q 510 -181 510 -131 q 466 -274 510 -242 q 330 -307 422 -307 q 201 -287 258 -307 l 201 -202 q 260 -218 229 -212 q 319 -223 292 -223 q 379 -211 359 -223 q 399 -173 399 -200 q 377 -134 399 -147 q 317 -121 356 -121 l 288 -121 l 288 -13 q 165 -2 229 -12 q 49 27 101 8 l 49 201 q 289 160 174 160 q 460 282 460 160 q 448 338 460 315 q 406 379 435 360 q 322 415 376 397 l 253 438 q 84 547 145 475 q 24 731 24 619 q 67 897 24 828 q 195 1004 110 967 q 408 1041 281 1041 q 520 1034 466 1041 q 617 1015 575 1027 l 617 841 q 427 867 530 867 q 231 747 231 867 q 242 694 231 715 q 280 655 253 672 q 356 622 307 638 l 424 599 q 605 487 543 558 q 667 300 667 416 z "},"Ŝ":{"ha":692,"x_min":24,"x_max":667,"o":"m 293 -13 q 168 -3 234 -13 q 49 27 102 8 l 49 201 q 289 160 174 160 q 460 282 460 160 q 448 338 460 315 q 406 379 435 360 q 322 415 376 397 l 253 438 q 84 547 145 475 q 24 731 24 619 q 67 897 24 828 q 195 1004 110 967 q 408 1041 281 1041 q 520 1034 466 1041 q 617 1015 575 1027 l 617 841 q 427 867 530 867 q 231 747 231 867 q 242 694 231 715 q 280 655 253 672 q 356 622 307 638 l 424 599 q 605 487 543 558 q 667 300 667 416 q 623 133 667 203 q 495 25 579 63 q 293 -13 411 -13 m 574 1108 l 434 1108 l 353 1243 l 271 1108 l 131 1108 l 266 1318 l 440 1318 l 574 1108 z "},"Ș":{"ha":692,"x_min":24,"x_max":667,"o":"m 293 -13 q 168 -3 234 -13 q 49 27 102 8 l 49 201 q 289 160 174 160 q 460 282 460 160 q 448 338 460 315 q 406 379 435 360 q 322 415 376 397 l 253 438 q 84 547 145 475 q 24 731 24 619 q 67 897 24 828 q 195 1004 110 967 q 408 1041 281 1041 q 520 1034 466 1041 q 617 1015 575 1027 l 617 841 q 427 867 530 867 q 231 747 231 867 q 242 694 231 715 q 280 655 253 672 q 356 622 307 638 l 424 599 q 605 487 543 558 q 667 300 667 416 q 623 133 667 203 q 495 25 579 63 q 293 -13 411 -13 m 352 -89 q 467 -192 467 -89 q 452 -269 467 -227 q 415 -344 438 -312 l 287 -344 q 324 -243 317 -283 q 260 -218 281 -238 q 238 -166 238 -198 q 267 -109 238 -129 q 352 -89 295 -89 z "},"Ṡ":{"ha":692,"x_min":24,"x_max":667,"o":"m 293 -13 q 168 -3 234 -13 q 49 27 102 8 l 49 201 q 289 160 174 160 q 460 282 460 160 q 448 338 460 315 q 406 379 435 360 q 322 415 376 397 l 253 438 q 84 547 145 475 q 24 731 24 619 q 67 897 24 828 q 195 1004 110 967 q 408 1041 281 1041 q 520 1034 466 1041 q 617 1015 575 1027 l 617 841 q 427 867 530 867 q 231 747 231 867 q 242 694 231 715 q 280 655 253 672 q 356 622 307 638 l 424 599 q 605 487 543 558 q 667 300 667 416 q 623 133 667 203 q 495 25 579 63 q 293 -13 411 -13 m 353 1115 q 258 1140 292 1115 q 224 1216 224 1166 q 258 1291 224 1265 q 353 1317 292 1317 q 447 1291 413 1317 q 481 1216 481 1265 q 447 1140 481 1166 q 353 1115 413 1115 z "},"Ṣ":{"ha":692,"x_min":24,"x_max":667,"o":"m 293 -13 q 168 -3 234 -13 q 49 27 102 8 l 49 201 q 289 160 174 160 q 460 282 460 160 q 448 338 460 315 q 406 379 435 360 q 322 415 376 397 l 253 438 q 84 547 145 475 q 24 731 24 619 q 67 897 24 828 q 195 1004 110 967 q 408 1041 281 1041 q 520 1034 466 1041 q 617 1015 575 1027 l 617 841 q 427 867 530 867 q 231 747 231 867 q 242 694 231 715 q 280 655 253 672 q 356 622 307 638 l 424 599 q 605 487 543 558 q 667 300 667 416 q 623 133 667 203 q 495 25 579 63 q 293 -13 411 -13 m 353 -290 q 258 -265 292 -290 q 224 -190 224 -240 q 258 -115 224 -140 q 353 -89 292 -89 q 447 -115 413 -89 q 481 -190 481 -140 q 447 -265 481 -240 q 353 -290 413 -290 z "},"Ṩ":{"ha":692,"x_min":24,"x_max":667,"o":"m 293 -13 q 168 -3 234 -13 q 49 27 102 8 l 49 201 q 289 160 174 160 q 460 282 460 160 q 448 338 460 315 q 406 379 435 360 q 322 415 376 397 l 253 438 q 84 547 145 475 q 24 731 24 619 q 67 897 24 828 q 195 1004 110 967 q 408 1041 281 1041 q 520 1034 466 1041 q 617 1015 575 1027 l 617 841 q 427 867 530 867 q 231 747 231 867 q 242 694 231 715 q 280 655 253 672 q 356 622 307 638 l 424 599 q 605 487 543 558 q 667 300 667 416 q 623 133 667 203 q 495 25 579 63 q 293 -13 411 -13 m 353 -290 q 258 -265 292 -290 q 224 -190 224 -240 q 258 -115 224 -140 q 353 -89 292 -89 q 447 -115 413 -89 q 481 -190 481 -140 q 447 -265 481 -240 q 353 -290 413 -290 m 353 1115 q 258 1140 292 1115 q 224 1216 224 1166 q 258 1291 224 1265 q 353 1317 292 1317 q 447 1291 413 1317 q 481 1216 481 1265 q 447 1140 481 1166 q 353 1115 413 1115 z "},"ẞ":{"ha":1099,"x_min":76,"x_max":1075,"o":"m 839 599 q 1015 487 955 558 q 1075 300 1075 416 q 1032 133 1075 203 q 906 25 989 63 q 706 -13 823 -13 q 588 -3 652 -13 q 475 25 524 7 l 475 199 q 590 170 531 181 q 703 160 649 160 q 869 282 869 160 q 841 360 869 331 q 741 415 813 390 l 674 438 q 509 547 569 474 q 450 731 450 619 q 476 865 450 807 q 433 870 457 870 q 319 828 356 870 q 283 697 283 785 l 283 0 l 76 0 l 76 670 q 166 947 76 852 q 433 1041 255 1041 q 624 1006 545 1041 q 832 1041 710 1041 q 934 1035 882 1041 q 1026 1017 985 1028 l 1026 844 q 938 861 985 855 q 849 867 892 867 q 656 747 656 867 q 667 693 656 715 q 702 655 677 672 q 772 622 727 638 l 839 599 z "},"Ə":{"ha":910,"x_min":40,"x_max":863,"o":"m 360 1041 q 738 911 613 1041 q 863 504 863 781 q 811 214 863 329 q 667 42 759 98 q 454 -13 576 -13 q 236 41 329 -13 q 92 210 144 94 q 40 504 40 325 l 40 580 l 655 580 q 610 754 647 690 q 509 844 574 817 q 339 871 443 871 q 217 863 280 871 q 99 841 153 856 l 99 1013 q 226 1034 158 1026 q 360 1041 294 1041 m 455 155 q 560 180 518 155 q 625 263 601 204 q 656 422 649 321 l 254 422 q 283 264 260 322 q 348 180 306 206 q 455 155 390 155 z "},"T":{"ha":781,"x_min":3,"x_max":778,"o":"m 288 0 l 288 845 l 3 845 l 3 1028 l 778 1028 l 778 845 l 494 845 l 494 0 l 288 0 z "},"Ŧ":{"ha":781,"x_min":3,"x_max":778,"o":"m 778 845 l 494 845 l 494 576 l 674 576 l 674 438 l 494 438 l 494 0 l 288 0 l 288 438 l 108 438 l 108 576 l 288 576 l 288 845 l 3 845 l 3 1028 l 778 1028 l 778 845 z "},"Ť":{"ha":781,"x_min":3,"x_max":778,"o":"m 288 0 l 288 845 l 3 845 l 3 1028 l 778 1028 l 778 845 l 494 845 l 494 0 l 288 0 m 472 1318 l 612 1318 l 478 1108 l 304 1108 l 169 1318 l 309 1318 l 391 1183 l 472 1318 z "},"Ţ":{"ha":781,"x_min":3,"x_max":778,"o":"m 429 0 l 429 -62 q 518 -100 487 -70 q 549 -181 549 -131 q 505 -274 549 -242 q 368 -307 460 -307 q 240 -287 296 -307 l 240 -202 q 299 -218 267 -212 q 357 -223 330 -223 q 417 -211 397 -223 q 437 -173 437 -200 q 416 -134 437 -147 q 355 -121 394 -121 l 326 -121 l 326 0 l 288 0 l 288 845 l 3 845 l 3 1028 l 778 1028 l 778 845 l 494 845 l 494 0 l 429 0 z "},"Ț":{"ha":781,"x_min":3,"x_max":778,"o":"m 288 0 l 288 845 l 3 845 l 3 1028 l 778 1028 l 778 845 l 494 845 l 494 0 l 288 0 m 390 -89 q 506 -192 506 -89 q 491 -269 506 -227 q 453 -344 476 -312 l 325 -344 q 363 -243 356 -283 q 298 -218 319 -238 q 276 -166 276 -198 q 305 -109 276 -129 q 390 -89 333 -89 z "},"Ṭ":{"ha":781,"x_min":3,"x_max":778,"o":"m 288 0 l 288 845 l 3 845 l 3 1028 l 778 1028 l 778 845 l 494 845 l 494 0 l 288 0 m 391 -290 q 296 -265 330 -290 q 263 -190 263 -240 q 297 -115 263 -140 q 391 -89 331 -89 q 485 -115 451 -89 q 519 -190 519 -140 q 485 -265 519 -240 q 391 -290 451 -290 z "},"Ṯ":{"ha":781,"x_min":3,"x_max":778,"o":"m 288 0 l 288 845 l 3 845 l 3 1028 l 778 1028 l 778 845 l 494 845 l 494 0 l 288 0 m 158 -251 l 158 -118 l 624 -118 l 624 -251 l 158 -251 z "},"U":{"ha":901,"x_min":72,"x_max":828,"o":"m 453 -13 q 239 29 323 -13 q 114 162 155 72 q 72 397 72 252 l 72 1028 l 278 1028 l 278 373 q 321 210 278 260 q 453 160 364 160 q 584 210 542 160 q 627 373 627 260 l 627 1028 l 828 1028 l 828 397 q 788 162 828 252 q 665 29 747 72 q 453 -13 582 -13 z "},"Ú":{"ha":901,"x_min":72,"x_max":828,"o":"m 453 -13 q 239 29 323 -13 q 114 162 155 72 q 72 397 72 252 l 72 1028 l 278 1028 l 278 373 q 321 210 278 260 q 453 160 364 160 q 584 210 542 160 q 627 373 627 260 l 627 1028 l 828 1028 l 828 397 q 788 162 828 252 q 665 29 747 72 q 453 -13 582 -13 m 363 1108 l 468 1318 l 678 1318 l 542 1108 l 363 1108 z "},"Ŭ":{"ha":901,"x_min":72,"x_max":828,"o":"m 453 -13 q 239 29 323 -13 q 114 162 155 72 q 72 397 72 252 l 72 1028 l 278 1028 l 278 373 q 321 210 278 260 q 453 160 364 160 q 584 210 542 160 q 627 373 627 260 l 627 1028 l 828 1028 l 828 397 q 788 162 828 252 q 665 29 747 72 q 453 -13 582 -13 m 453 1110 q 292 1162 351 1110 q 224 1313 233 1214 l 349 1313 q 380 1236 356 1260 q 453 1213 405 1213 q 526 1236 501 1213 q 556 1313 551 1260 l 681 1313 q 613 1162 672 1214 q 453 1110 554 1110 z "},"Û":{"ha":901,"x_min":72,"x_max":828,"o":"m 453 -13 q 239 29 323 -13 q 114 162 155 72 q 72 397 72 252 l 72 1028 l 278 1028 l 278 373 q 321 210 278 260 q 453 160 364 160 q 584 210 542 160 q 627 373 627 260 l 627 1028 l 828 1028 l 828 397 q 788 162 828 252 q 665 29 747 72 q 453 -13 582 -13 m 674 1108 l 534 1108 l 453 1243 l 371 1108 l 231 1108 l 366 1318 l 540 1318 l 674 1108 z "},"Ȕ":{"ha":901,"x_min":72,"x_max":828,"o":"m 453 -13 q 239 29 323 -13 q 114 162 155 72 q 72 397 72 252 l 72 1028 l 278 1028 l 278 373 q 321 210 278 260 q 453 160 364 160 q 584 210 542 160 q 627 373 627 260 l 627 1028 l 828 1028 l 828 397 q 788 162 828 252 q 665 29 747 72 q 453 -13 582 -13 m 243 1108 l 157 1318 l 322 1318 l 399 1108 l 243 1108 m 506 1108 l 420 1318 l 586 1318 l 663 1108 l 506 1108 z "},"Ü":{"ha":901,"x_min":72,"x_max":828,"o":"m 453 -13 q 239 29 323 -13 q 114 162 155 72 q 72 397 72 252 l 72 1028 l 278 1028 l 278 373 q 321 210 278 260 q 453 160 364 160 q 584 210 542 160 q 627 373 627 260 l 627 1028 l 828 1028 l 828 397 q 788 162 828 252 q 665 29 747 72 q 453 -13 582 -13 m 294 1115 q 209 1141 240 1115 q 179 1216 179 1167 q 209 1290 179 1264 q 294 1317 240 1317 q 378 1290 348 1317 q 408 1216 408 1264 q 378 1141 408 1167 q 294 1115 348 1115 m 612 1115 q 527 1141 558 1115 q 497 1216 497 1168 q 527 1290 497 1264 q 612 1317 558 1317 q 696 1290 666 1317 q 726 1216 726 1264 q 696 1141 726 1167 q 612 1115 666 1115 z "},"Ụ":{"ha":901,"x_min":72,"x_max":828,"o":"m 453 -13 q 239 29 323 -13 q 114 162 155 72 q 72 397 72 252 l 72 1028 l 278 1028 l 278 373 q 321 210 278 260 q 453 160 364 160 q 584 210 542 160 q 627 373 627 260 l 627 1028 l 828 1028 l 828 397 q 788 162 828 252 q 665 29 747 72 q 453 -13 582 -13 m 453 -290 q 358 -265 392 -290 q 324 -190 324 -240 q 358 -115 324 -140 q 453 -89 392 -89 q 547 -115 513 -89 q 581 -190 581 -140 q 547 -265 581 -240 q 453 -290 513 -290 z "},"Ù":{"ha":901,"x_min":72,"x_max":828,"o":"m 453 -13 q 239 29 323 -13 q 114 162 155 72 q 72 397 72 252 l 72 1028 l 278 1028 l 278 373 q 321 210 278 260 q 453 160 364 160 q 584 210 542 160 q 627 373 627 260 l 627 1028 l 828 1028 l 828 397 q 788 162 828 252 q 665 29 747 72 q 453 -13 582 -13 m 363 1108 l 226 1318 l 437 1318 l 542 1108 l 363 1108 z "},"Ủ":{"ha":901,"x_min":72,"x_max":828,"o":"m 453 -13 q 239 29 323 -13 q 114 162 155 72 q 72 397 72 252 l 72 1028 l 278 1028 l 278 373 q 321 210 278 260 q 453 160 364 160 q 584 210 542 160 q 627 373 627 260 l 627 1028 l 828 1028 l 828 397 q 788 162 828 252 q 665 29 747 72 q 453 -13 582 -13 m 401 1108 q 421 1159 403 1142 q 472 1193 440 1177 q 496 1208 488 1201 q 504 1222 504 1214 q 488 1242 504 1235 q 435 1249 472 1249 q 373 1244 406 1249 q 313 1231 340 1240 l 313 1313 q 377 1327 338 1322 q 452 1332 417 1332 q 577 1309 537 1332 q 617 1239 617 1286 q 603 1198 617 1213 q 559 1166 588 1183 q 521 1139 534 1151 q 505 1108 508 1126 l 401 1108 z "},"Ư":{"ha":906,"x_min":72,"x_max":953,"o":"m 453 -13 q 239 29 323 -13 q 114 162 155 72 q 72 397 72 252 l 72 1028 l 278 1028 l 278 373 q 321 210 278 260 q 453 160 364 160 q 584 210 542 160 q 627 373 627 260 l 627 1028 l 699 1028 q 779 1053 751 1028 q 807 1135 807 1078 q 794 1233 807 1181 l 938 1233 q 953 1124 953 1189 q 920 1003 953 1049 q 828 942 887 958 l 828 397 q 788 162 828 252 q 665 29 747 72 q 453 -13 582 -13 z "},"Ứ":{"ha":906,"x_min":72,"x_max":953,"o":"m 453 -13 q 239 29 323 -13 q 114 162 155 72 q 72 397 72 252 l 72 1028 l 278 1028 l 278 373 q 321 210 278 260 q 453 160 364 160 q 584 210 542 160 q 627 373 627 260 l 627 1028 l 699 1028 q 779 1053 751 1028 q 807 1135 807 1078 q 794 1233 807 1181 l 938 1233 q 953 1124 953 1189 q 920 1003 953 1049 q 828 942 887 958 l 828 397 q 788 162 828 252 q 665 29 747 72 q 453 -13 582 -13 m 360 1108 l 466 1318 l 676 1318 l 540 1108 l 360 1108 z "},"Ự":{"ha":906,"x_min":72,"x_max":953,"o":"m 453 -13 q 239 29 323 -13 q 114 162 155 72 q 72 397 72 252 l 72 1028 l 278 1028 l 278 373 q 321 210 278 260 q 453 160 364 160 q 584 210 542 160 q 627 373 627 260 l 627 1028 l 699 1028 q 779 1053 751 1028 q 807 1135 807 1078 q 794 1233 807 1181 l 938 1233 q 953 1124 953 1189 q 920 1003 953 1049 q 828 942 887 958 l 828 397 q 788 162 828 252 q 665 29 747 72 q 453 -13 582 -13 m 451 -290 q 356 -265 390 -290 q 322 -190 322 -240 q 356 -115 322 -140 q 451 -89 390 -89 q 545 -115 511 -89 q 578 -190 578 -140 q 545 -265 578 -240 q 451 -290 511 -290 z "},"Ừ":{"ha":906,"x_min":72,"x_max":953,"o":"m 453 -13 q 239 29 323 -13 q 114 162 155 72 q 72 397 72 252 l 72 1028 l 278 1028 l 278 373 q 321 210 278 260 q 453 160 364 160 q 584 210 542 160 q 627 373 627 260 l 627 1028 l 699 1028 q 779 1053 751 1028 q 807 1135 807 1078 q 794 1233 807 1181 l 938 1233 q 953 1124 953 1189 q 920 1003 953 1049 q 828 942 887 958 l 828 397 q 788 162 828 252 q 665 29 747 72 q 453 -13 582 -13 m 360 1108 l 224 1318 l 435 1318 l 540 1108 l 360 1108 z "},"Ử":{"ha":906,"x_min":72,"x_max":953,"o":"m 453 -13 q 239 29 323 -13 q 114 162 155 72 q 72 397 72 252 l 72 1028 l 278 1028 l 278 373 q 321 210 278 260 q 453 160 364 160 q 584 210 542 160 q 627 373 627 260 l 627 1028 l 699 1028 q 779 1053 751 1028 q 807 1135 807 1078 q 794 1233 807 1181 l 938 1233 q 953 1124 953 1189 q 920 1003 953 1049 q 828 942 887 958 l 828 397 q 788 162 828 252 q 665 29 747 72 q 453 -13 582 -13 m 399 1108 q 419 1159 401 1142 q 469 1193 438 1177 q 494 1208 486 1201 q 502 1222 502 1214 q 486 1242 502 1235 q 433 1249 469 1249 q 371 1244 403 1249 q 310 1231 338 1240 l 310 1313 q 375 1327 335 1322 q 450 1332 415 1332 q 575 1309 535 1332 q 615 1239 615 1286 q 601 1198 615 1213 q 557 1166 586 1183 q 519 1139 532 1151 q 503 1108 506 1126 l 399 1108 z "},"Ữ":{"ha":906,"x_min":72,"x_max":953,"o":"m 453 -13 q 239 29 323 -13 q 114 162 155 72 q 72 397 72 252 l 72 1028 l 278 1028 l 278 373 q 321 210 278 260 q 453 160 364 160 q 584 210 542 160 q 627 373 627 260 l 627 1028 l 699 1028 q 779 1053 751 1028 q 807 1135 807 1078 q 794 1233 807 1181 l 938 1233 q 953 1124 953 1189 q 920 1003 953 1049 q 828 942 887 958 l 828 397 q 788 162 828 252 q 665 29 747 72 q 453 -13 582 -13 m 560 1124 q 504 1132 529 1124 q 439 1153 478 1139 q 384 1173 406 1167 q 339 1179 362 1179 q 272 1167 301 1179 q 213 1127 242 1154 l 213 1255 q 268 1294 238 1281 q 341 1306 299 1306 q 399 1299 372 1306 q 463 1276 426 1291 q 517 1256 495 1263 q 562 1250 539 1250 q 629 1263 600 1250 q 688 1302 658 1275 l 688 1174 q 633 1136 664 1148 q 560 1124 602 1124 z "},"Ű":{"ha":901,"x_min":72,"x_max":828,"o":"m 453 -13 q 239 29 323 -13 q 114 162 155 72 q 72 397 72 252 l 72 1028 l 278 1028 l 278 373 q 321 210 278 260 q 453 160 364 160 q 584 210 542 160 q 627 373 627 260 l 627 1028 l 828 1028 l 828 397 q 788 162 828 252 q 665 29 747 72 q 453 -13 582 -13 m 243 1108 l 319 1318 l 485 1318 l 399 1108 l 243 1108 m 506 1108 l 583 1318 l 749 1318 l 663 1108 l 506 1108 z "},"Ȗ":{"ha":901,"x_min":72,"x_max":828,"o":"m 453 -13 q 239 29 323 -13 q 114 162 155 72 q 72 397 72 252 l 72 1028 l 278 1028 l 278 373 q 321 210 278 260 q 453 160 364 160 q 584 210 542 160 q 627 373 627 260 l 627 1028 l 828 1028 l 828 397 q 788 162 828 252 q 665 29 747 72 q 453 -13 582 -13 m 224 1113 q 292 1264 233 1212 q 452 1315 351 1315 q 613 1263 553 1315 q 681 1113 672 1211 l 556 1113 q 525 1189 550 1166 q 452 1213 500 1213 q 380 1189 404 1213 q 349 1113 355 1166 l 224 1113 z "},"Ū":{"ha":901,"x_min":72,"x_max":828,"o":"m 453 -13 q 239 29 323 -13 q 114 162 155 72 q 72 397 72 252 l 72 1028 l 278 1028 l 278 373 q 321 210 278 260 q 453 160 364 160 q 584 210 542 160 q 627 373 627 260 l 627 1028 l 828 1028 l 828 397 q 788 162 828 252 q 665 29 747 72 q 453 -13 582 -13 m 219 1147 l 219 1280 l 686 1280 l 686 1147 l 219 1147 z "},"Ṻ":{"ha":901,"x_min":72,"x_max":828,"o":"m 453 -13 q 239 29 323 -13 q 114 162 155 72 q 72 397 72 252 l 72 1028 l 278 1028 l 278 373 q 321 210 278 260 q 453 160 364 160 q 584 210 542 160 q 627 373 627 260 l 627 1028 l 828 1028 l 828 397 q 788 162 828 252 q 665 29 747 72 q 453 -13 582 -13 m 219 1147 l 219 1280 l 686 1280 l 686 1147 l 219 1147 m 294 1365 q 209 1392 240 1365 q 179 1467 179 1418 q 209 1541 179 1515 q 294 1567 240 1567 q 378 1541 348 1567 q 408 1467 408 1515 q 378 1392 408 1418 q 294 1365 348 1365 m 612 1365 q 527 1392 558 1365 q 497 1467 497 1419 q 527 1541 497 1515 q 612 1567 558 1567 q 696 1541 666 1567 q 726 1467 726 1515 q 696 1392 726 1418 q 612 1365 666 1365 z "},"Ų":{"ha":901,"x_min":72,"x_max":828,"o":"m 828 1028 l 828 397 q 778 142 828 238 q 623 11 728 47 q 481 -66 519 -26 q 444 -153 444 -107 q 535 -221 444 -221 q 629 -200 580 -221 l 629 -285 q 510 -307 572 -307 q 373 -270 419 -307 q 327 -164 327 -233 q 349 -82 327 -119 q 419 -12 370 -45 q 224 38 301 -7 q 110 170 148 82 q 72 397 72 259 l 72 1028 l 278 1028 l 278 373 q 321 210 278 260 q 453 160 364 160 q 584 210 542 160 q 627 373 627 260 l 627 1028 l 828 1028 z "},"Ů":{"ha":901,"x_min":72,"x_max":828,"o":"m 453 -13 q 239 29 323 -13 q 114 162 155 72 q 72 397 72 252 l 72 1028 l 278 1028 l 278 373 q 321 210 278 260 q 453 160 364 160 q 584 210 542 160 q 627 373 627 260 l 627 1028 l 828 1028 l 828 397 q 788 162 828 252 q 665 29 747 72 q 453 -13 582 -13 m 453 1099 q 376 1117 410 1099 q 323 1169 342 1136 q 303 1244 303 1202 q 323 1319 303 1285 q 376 1371 342 1352 q 453 1390 410 1390 q 529 1371 495 1390 q 583 1319 563 1352 q 602 1244 602 1285 q 583 1169 602 1202 q 529 1117 563 1136 q 453 1099 495 1099 m 453 1176 q 500 1195 482 1176 q 517 1244 517 1213 q 500 1293 517 1275 q 453 1311 482 1311 q 406 1293 424 1311 q 388 1244 388 1275 q 406 1195 388 1213 q 453 1176 424 1176 z "},"Ũ":{"ha":901,"x_min":72,"x_max":828,"o":"m 453 -13 q 239 29 323 -13 q 114 162 155 72 q 72 397 72 252 l 72 1028 l 278 1028 l 278 373 q 321 210 278 260 q 453 160 364 160 q 584 210 542 160 q 627 373 627 260 l 627 1028 l 828 1028 l 828 397 q 788 162 828 252 q 665 29 747 72 q 453 -13 582 -13 m 562 1124 q 506 1132 531 1124 q 441 1153 481 1139 q 386 1173 408 1167 q 341 1179 364 1179 q 274 1167 303 1179 q 215 1127 244 1154 l 215 1255 q 270 1294 240 1281 q 343 1306 301 1306 q 401 1299 374 1306 q 465 1276 428 1291 q 519 1256 497 1263 q 564 1250 541 1250 q 631 1263 602 1250 q 690 1302 660 1275 l 690 1174 q 635 1136 666 1148 q 562 1124 604 1124 z "},"Ṹ":{"ha":901,"x_min":72,"x_max":828,"o":"m 453 -13 q 239 29 323 -13 q 114 162 155 72 q 72 397 72 252 l 72 1028 l 278 1028 l 278 373 q 321 210 278 260 q 453 160 364 160 q 584 210 542 160 q 627 373 627 260 l 627 1028 l 828 1028 l 828 397 q 788 162 828 252 q 665 29 747 72 q 453 -13 582 -13 m 354 1358 l 460 1519 l 688 1519 l 551 1358 l 354 1358 m 562 1124 q 506 1132 531 1124 q 441 1153 481 1139 q 386 1173 408 1167 q 341 1179 364 1179 q 274 1167 303 1179 q 215 1127 244 1154 l 215 1255 q 270 1294 240 1281 q 343 1306 301 1306 q 401 1299 374 1306 q 465 1276 428 1291 q 519 1256 497 1263 q 564 1250 541 1250 q 631 1263 602 1250 q 690 1302 660 1275 l 690 1174 q 635 1136 666 1148 q 562 1124 604 1124 z "},"V":{"ha":851,"x_min":-7,"x_max":858,"o":"m 661 1028 l 858 1028 l 582 0 l 269 0 l -7 1028 l 205 1028 l 431 159 l 661 1028 z "},"W":{"ha":1356,"x_min":13,"x_max":1342,"o":"m 1149 1028 l 1342 1028 l 1116 0 l 848 0 l 683 765 l 508 0 l 240 0 l 13 1028 l 221 1028 l 390 213 l 572 1028 l 799 1028 l 973 206 l 1149 1028 z "},"Ẃ":{"ha":1356,"x_min":13,"x_max":1342,"o":"m 1149 1028 l 1342 1028 l 1116 0 l 848 0 l 683 765 l 508 0 l 240 0 l 13 1028 l 221 1028 l 390 213 l 572 1028 l 799 1028 l 973 206 l 1149 1028 m 588 1108 l 694 1318 l 904 1318 l 768 1108 l 588 1108 z "},"Ŵ":{"ha":1356,"x_min":13,"x_max":1342,"o":"m 1149 1028 l 1342 1028 l 1116 0 l 848 0 l 683 765 l 508 0 l 240 0 l 13 1028 l 221 1028 l 390 213 l 572 1028 l 799 1028 l 973 206 l 1149 1028 m 899 1108 l 760 1108 l 678 1243 l 597 1108 l 457 1108 l 592 1318 l 765 1318 l 899 1108 z "},"Ẅ":{"ha":1356,"x_min":13,"x_max":1342,"o":"m 1149 1028 l 1342 1028 l 1116 0 l 848 0 l 683 765 l 508 0 l 240 0 l 13 1028 l 221 1028 l 390 213 l 572 1028 l 799 1028 l 973 206 l 1149 1028 m 519 1115 q 435 1141 465 1115 q 405 1216 405 1167 q 435 1290 405 1264 q 519 1317 465 1317 q 603 1290 574 1317 q 633 1216 633 1264 q 603 1141 633 1167 q 519 1115 574 1115 m 838 1115 q 753 1141 783 1115 q 723 1216 723 1168 q 753 1290 723 1264 q 838 1317 783 1317 q 922 1290 892 1317 q 952 1216 952 1264 q 922 1141 952 1167 q 838 1115 892 1115 z "},"Ẁ":{"ha":1356,"x_min":13,"x_max":1342,"o":"m 1149 1028 l 1342 1028 l 1116 0 l 848 0 l 683 765 l 508 0 l 240 0 l 13 1028 l 221 1028 l 390 213 l 572 1028 l 799 1028 l 973 206 l 1149 1028 m 588 1108 l 452 1318 l 663 1318 l 768 1108 l 588 1108 z "},"X":{"ha":852,"x_min":-19,"x_max":866,"o":"m 545 534 l 866 0 l 642 0 l 426 367 l 207 0 l -19 0 l 306 533 l 6 1028 l 231 1028 l 426 702 l 619 1028 l 842 1028 l 545 534 z "},"Y":{"ha":781,"x_min":-40,"x_max":817,"o":"m 817 1028 l 494 437 l 494 0 l 288 0 l 288 435 l -40 1028 l 177 1028 l 397 624 l 617 1028 l 817 1028 z "},"Ý":{"ha":781,"x_min":-40,"x_max":817,"o":"m 817 1028 l 494 437 l 494 0 l 288 0 l 288 435 l -40 1028 l 177 1028 l 397 624 l 617 1028 l 817 1028 m 302 1108 l 408 1318 l 618 1318 l 482 1108 l 302 1108 z "},"Ŷ":{"ha":781,"x_min":-40,"x_max":817,"o":"m 817 1028 l 494 437 l 494 0 l 288 0 l 288 435 l -40 1028 l 177 1028 l 397 624 l 617 1028 l 817 1028 m 613 1108 l 474 1108 l 392 1243 l 310 1108 l 171 1108 l 306 1318 l 479 1318 l 613 1108 z "},"Ÿ":{"ha":781,"x_min":-40,"x_max":817,"o":"m 817 1028 l 494 437 l 494 0 l 288 0 l 288 435 l -40 1028 l 177 1028 l 397 624 l 617 1028 l 817 1028 m 233 1115 q 149 1141 179 1115 q 119 1216 119 1167 q 149 1290 119 1264 q 233 1317 179 1317 q 317 1290 288 1317 q 347 1216 347 1264 q 317 1141 347 1167 q 233 1115 288 1115 m 551 1115 q 467 1141 497 1115 q 437 1216 437 1168 q 467 1290 437 1264 q 551 1317 497 1317 q 636 1290 606 1317 q 666 1216 666 1264 q 636 1141 666 1167 q 551 1115 606 1115 z "},"Ẏ":{"ha":781,"x_min":-40,"x_max":817,"o":"m 817 1028 l 494 437 l 494 0 l 288 0 l 288 435 l -40 1028 l 177 1028 l 397 624 l 617 1028 l 817 1028 m 392 1115 q 298 1140 332 1115 q 264 1216 264 1166 q 298 1291 264 1265 q 392 1317 332 1317 q 486 1291 453 1317 q 520 1216 520 1265 q 486 1140 520 1166 q 392 1115 453 1115 z "},"Ỵ":{"ha":781,"x_min":-40,"x_max":817,"o":"m 817 1028 l 494 437 l 494 0 l 288 0 l 288 435 l -40 1028 l 177 1028 l 397 624 l 617 1028 l 817 1028 m 391 -290 q 296 -265 330 -290 q 263 -190 263 -240 q 297 -115 263 -140 q 391 -89 331 -89 q 485 -115 451 -89 q 519 -190 519 -140 q 485 -265 519 -240 q 391 -290 451 -290 z "},"Ỳ":{"ha":781,"x_min":-40,"x_max":817,"o":"m 817 1028 l 494 437 l 494 0 l 288 0 l 288 435 l -40 1028 l 177 1028 l 397 624 l 617 1028 l 817 1028 m 302 1108 l 166 1318 l 376 1318 l 482 1108 l 302 1108 z "},"Ỷ":{"ha":781,"x_min":-40,"x_max":817,"o":"m 817 1028 l 494 437 l 494 0 l 288 0 l 288 435 l -40 1028 l 177 1028 l 397 624 l 617 1028 l 817 1028 m 340 1108 q 361 1159 342 1142 q 411 1193 379 1177 q 436 1208 428 1201 q 444 1222 444 1214 q 427 1242 444 1235 q 375 1249 411 1249 q 313 1244 345 1249 q 252 1231 280 1240 l 252 1313 q 317 1327 277 1322 q 392 1332 357 1332 q 517 1309 476 1332 q 557 1239 557 1286 q 542 1198 557 1213 q 499 1166 528 1183 q 460 1139 474 1151 q 444 1108 447 1126 l 340 1108 z "},"Ȳ":{"ha":781,"x_min":-40,"x_max":817,"o":"m 817 1028 l 494 437 l 494 0 l 288 0 l 288 435 l -40 1028 l 177 1028 l 397 624 l 617 1028 l 817 1028 m 159 1147 l 159 1280 l 626 1280 l 626 1147 l 159 1147 z "},"Ỹ":{"ha":781,"x_min":-40,"x_max":817,"o":"m 817 1028 l 494 437 l 494 0 l 288 0 l 288 435 l -40 1028 l 177 1028 l 397 624 l 617 1028 l 817 1028 m 501 1124 q 445 1132 471 1124 q 381 1153 420 1139 q 326 1173 348 1167 q 281 1179 303 1179 q 213 1167 242 1179 q 155 1127 184 1154 l 155 1255 q 210 1294 179 1281 q 283 1306 240 1306 q 341 1299 314 1306 q 404 1276 368 1291 q 459 1256 437 1263 q 503 1250 481 1250 q 571 1263 542 1250 q 630 1302 600 1275 l 630 1174 q 575 1136 606 1148 q 501 1124 544 1124 z "},"Z":{"ha":739,"x_min":27,"x_max":712,"o":"m 294 183 l 712 183 l 712 0 l 27 0 l 27 116 l 438 845 l 34 845 l 34 1028 l 705 1028 l 705 912 l 294 183 z "},"Ź":{"ha":739,"x_min":27,"x_max":712,"o":"m 294 183 l 712 183 l 712 0 l 27 0 l 27 116 l 438 845 l 34 845 l 34 1028 l 705 1028 l 705 912 l 294 183 m 281 1108 l 386 1318 l 597 1318 l 460 1108 l 281 1108 z "},"Ž":{"ha":739,"x_min":27,"x_max":712,"o":"m 294 183 l 712 183 l 712 0 l 27 0 l 27 116 l 438 845 l 34 845 l 34 1028 l 705 1028 l 705 912 l 294 183 m 452 1318 l 592 1318 l 458 1108 l 284 1108 l 149 1318 l 289 1318 l 371 1183 l 452 1318 z "},"Ż":{"ha":739,"x_min":27,"x_max":712,"o":"m 294 183 l 712 183 l 712 0 l 27 0 l 27 116 l 438 845 l 34 845 l 34 1028 l 705 1028 l 705 912 l 294 183 m 371 1115 q 276 1140 310 1115 q 242 1216 242 1166 q 276 1291 242 1265 q 371 1317 310 1317 q 465 1291 431 1317 q 499 1216 499 1265 q 465 1140 499 1166 q 371 1115 431 1115 z "},"Ẓ":{"ha":739,"x_min":27,"x_max":712,"o":"m 294 183 l 712 183 l 712 0 l 27 0 l 27 116 l 438 845 l 34 845 l 34 1028 l 705 1028 l 705 912 l 294 183 m 367 -290 q 272 -265 306 -290 q 238 -190 238 -240 q 272 -115 238 -140 q 367 -89 306 -89 q 461 -115 427 -89 q 494 -190 494 -140 q 461 -265 494 -240 q 367 -290 427 -290 z "},"a":{"ha":668,"x_min":31,"x_max":604,"o":"m 301 772 q 474 743 408 772 q 572 648 540 714 q 604 471 604 583 l 604 0 l 440 0 l 424 80 l 415 80 q 345 9 389 32 q 244 -14 301 -14 q 133 13 181 -14 q 58 89 85 39 q 31 204 31 138 q 99 375 31 315 q 312 446 166 435 l 408 454 l 408 480 q 393 557 408 529 q 348 597 379 585 q 263 608 317 608 q 175 601 222 608 q 85 581 128 594 l 85 744 q 190 764 132 757 q 301 772 249 772 m 314 138 q 364 149 340 138 q 408 185 388 160 l 408 334 l 335 328 q 256 298 283 324 q 230 228 230 273 q 252 160 230 183 q 314 138 274 138 z "},"á":{"ha":668,"x_min":31,"x_max":604,"o":"m 301 772 q 474 743 408 772 q 572 648 540 714 q 604 471 604 583 l 604 0 l 440 0 l 424 80 l 415 80 q 345 9 389 32 q 244 -14 301 -14 q 133 13 181 -14 q 58 89 85 39 q 31 204 31 138 q 99 375 31 315 q 312 446 166 435 l 408 454 l 408 480 q 393 557 408 529 q 348 597 379 585 q 263 608 317 608 q 175 601 222 608 q 85 581 128 594 l 85 744 q 190 764 132 757 q 301 772 249 772 m 314 138 q 364 149 340 138 q 408 185 388 160 l 408 334 l 335 328 q 256 298 283 324 q 230 228 230 273 q 252 160 230 183 q 314 138 274 138 m 244 856 l 376 1122 l 581 1122 l 419 856 l 244 856 z "},"ă":{"ha":668,"x_min":31,"x_max":604,"o":"m 301 772 q 474 743 408 772 q 572 648 540 714 q 604 471 604 583 l 604 0 l 440 0 l 424 80 l 415 80 q 345 9 389 32 q 244 -14 301 -14 q 133 13 181 -14 q 58 89 85 39 q 31 204 31 138 q 99 375 31 315 q 312 446 166 435 l 408 454 l 408 480 q 393 557 408 529 q 348 597 379 585 q 263 608 317 608 q 175 601 222 608 q 85 581 128 594 l 85 744 q 190 764 132 757 q 301 772 249 772 m 314 138 q 364 149 340 138 q 408 185 388 160 l 408 334 l 335 328 q 256 298 283 324 q 230 228 230 273 q 252 160 230 183 q 314 138 274 138 m 332 865 q 177 924 235 865 q 113 1107 119 984 l 238 1107 q 266 1004 242 1036 q 332 972 290 972 q 399 1004 375 972 q 426 1107 423 1036 l 551 1107 q 487 924 544 983 q 332 865 430 865 z "},"ắ":{"ha":668,"x_min":31,"x_max":604,"o":"m 301 772 q 474 743 408 772 q 572 648 540 714 q 604 471 604 583 l 604 0 l 440 0 l 424 80 l 415 80 q 345 9 389 32 q 244 -14 301 -14 q 133 13 181 -14 q 58 89 85 39 q 31 204 31 138 q 99 375 31 315 q 312 446 166 435 l 408 454 l 408 480 q 393 557 408 529 q 348 597 379 585 q 263 608 317 608 q 175 601 222 608 q 85 581 128 594 l 85 744 q 190 764 132 757 q 301 772 249 772 m 314 138 q 364 149 340 138 q 408 185 388 160 l 408 334 l 335 328 q 256 298 283 324 q 230 228 230 273 q 252 160 230 183 q 314 138 274 138 m 263 1109 l 368 1297 l 538 1297 l 401 1109 l 263 1109 m 332 865 q 174 920 233 865 q 107 1083 115 976 l 232 1083 q 263 994 238 1022 q 332 967 287 967 q 402 994 377 967 q 431 1083 426 1022 l 556 1083 q 490 920 548 976 q 332 865 432 865 z "},"ặ":{"ha":668,"x_min":31,"x_max":604,"o":"m 301 772 q 474 743 408 772 q 572 648 540 714 q 604 471 604 583 l 604 0 l 440 0 l 424 80 l 415 80 q 345 9 389 32 q 244 -14 301 -14 q 133 13 181 -14 q 58 89 85 39 q 31 204 31 138 q 99 375 31 315 q 312 446 166 435 l 408 454 l 408 480 q 393 557 408 529 q 348 597 379 585 q 263 608 317 608 q 175 601 222 608 q 85 581 128 594 l 85 744 q 190 764 132 757 q 301 772 249 772 m 314 138 q 364 149 340 138 q 408 185 388 160 l 408 334 l 335 328 q 256 298 283 324 q 230 228 230 273 q 252 160 230 183 q 314 138 274 138 m 333 -308 q 251 -279 281 -308 q 220 -199 220 -250 q 251 -118 220 -147 q 333 -89 281 -89 q 415 -118 384 -89 q 445 -199 445 -147 q 415 -279 445 -250 q 333 -308 384 -308 m 332 865 q 177 924 235 865 q 113 1107 119 984 l 238 1107 q 266 1004 242 1036 q 332 972 290 972 q 399 1004 375 972 q 426 1107 423 1036 l 551 1107 q 487 924 544 983 q 332 865 430 865 z "},"ằ":{"ha":668,"x_min":31,"x_max":604,"o":"m 301 772 q 474 743 408 772 q 572 648 540 714 q 604 471 604 583 l 604 0 l 440 0 l 424 80 l 415 80 q 345 9 389 32 q 244 -14 301 -14 q 133 13 181 -14 q 58 89 85 39 q 31 204 31 138 q 99 375 31 315 q 312 446 166 435 l 408 454 l 408 480 q 393 557 408 529 q 348 597 379 585 q 263 608 317 608 q 175 601 222 608 q 85 581 128 594 l 85 744 q 190 764 132 757 q 301 772 249 772 m 314 138 q 364 149 340 138 q 408 185 388 160 l 408 334 l 335 328 q 256 298 283 324 q 230 228 230 273 q 252 160 230 183 q 314 138 274 138 m 263 1109 l 126 1297 l 296 1297 l 401 1109 l 263 1109 m 332 865 q 174 920 233 865 q 107 1083 115 976 l 232 1083 q 263 994 238 1022 q 332 967 287 967 q 402 994 377 967 q 431 1083 426 1022 l 556 1083 q 490 920 548 976 q 332 865 432 865 z "},"ẳ":{"ha":668,"x_min":31,"x_max":604,"o":"m 301 772 q 474 743 408 772 q 572 648 540 714 q 604 471 604 583 l 604 0 l 440 0 l 424 80 l 415 80 q 345 9 389 32 q 244 -14 301 -14 q 133 13 181 -14 q 58 89 85 39 q 31 204 31 138 q 99 375 31 315 q 312 446 166 435 l 408 454 l 408 480 q 393 557 408 529 q 348 597 379 585 q 263 608 317 608 q 175 601 222 608 q 85 581 128 594 l 85 744 q 190 764 132 757 q 301 772 249 772 m 314 138 q 364 149 340 138 q 408 185 388 160 l 408 334 l 335 328 q 256 298 283 324 q 230 228 230 273 q 252 160 230 183 q 314 138 274 138 m 280 1109 q 300 1156 282 1140 q 349 1185 318 1172 q 375 1200 367 1194 q 383 1213 383 1206 q 315 1238 383 1238 q 252 1233 285 1238 q 192 1222 219 1229 l 192 1293 q 257 1305 217 1301 q 331 1310 297 1310 q 456 1289 416 1310 q 497 1227 497 1269 q 482 1190 497 1203 q 438 1161 467 1177 q 400 1138 413 1149 q 384 1109 387 1126 l 280 1109 m 332 865 q 174 920 233 865 q 107 1083 115 976 l 232 1083 q 263 994 238 1022 q 332 967 287 967 q 402 994 377 967 q 431 1083 426 1022 l 556 1083 q 490 920 548 976 q 332 865 432 865 z "},"ẵ":{"ha":668,"x_min":31,"x_max":604,"o":"m 301 772 q 474 743 408 772 q 572 648 540 714 q 604 471 604 583 l 604 0 l 440 0 l 424 80 l 415 80 q 345 9 389 32 q 244 -14 301 -14 q 133 13 181 -14 q 58 89 85 39 q 31 204 31 138 q 99 375 31 315 q 312 446 166 435 l 408 454 l 408 480 q 393 557 408 529 q 348 597 379 585 q 263 608 317 608 q 175 601 222 608 q 85 581 128 594 l 85 744 q 190 764 132 757 q 301 772 249 772 m 314 138 q 364 149 340 138 q 408 185 388 160 l 408 334 l 335 328 q 256 298 283 324 q 230 228 230 273 q 252 160 230 183 q 314 138 274 138 m 438 1125 q 382 1132 408 1125 q 321 1151 355 1139 q 268 1169 289 1163 q 224 1174 247 1174 q 159 1163 188 1174 q 101 1128 131 1152 l 101 1240 q 156 1274 126 1263 q 226 1285 185 1285 q 282 1278 256 1285 q 343 1258 308 1272 q 397 1241 376 1247 q 440 1235 417 1235 q 505 1246 476 1235 q 563 1281 533 1257 l 563 1169 q 509 1135 539 1146 q 438 1125 479 1125 m 332 865 q 174 920 233 865 q 107 1083 115 976 l 232 1083 q 263 994 238 1022 q 332 967 287 967 q 402 994 377 967 q 431 1083 426 1022 l 556 1083 q 490 920 548 976 q 332 865 432 865 z "},"â":{"ha":668,"x_min":31,"x_max":604,"o":"m 301 772 q 474 743 408 772 q 572 648 540 714 q 604 471 604 583 l 604 0 l 440 0 l 424 80 l 415 80 q 345 9 389 32 q 244 -14 301 -14 q 133 13 181 -14 q 58 89 85 39 q 31 204 31 138 q 99 375 31 315 q 312 446 166 435 l 408 454 l 408 480 q 393 557 408 529 q 348 597 379 585 q 263 608 317 608 q 175 601 222 608 q 85 581 128 594 l 85 744 q 190 764 132 757 q 301 772 249 772 m 314 138 q 364 149 340 138 q 408 185 388 160 l 408 334 l 335 328 q 256 298 283 324 q 230 228 230 273 q 252 160 230 183 q 314 138 274 138 m 549 856 l 410 856 l 332 1028 l 253 856 l 115 856 l 245 1122 l 419 1122 l 549 856 z "},"ấ":{"ha":668,"x_min":31,"x_max":756,"o":"m 301 772 q 474 743 408 772 q 572 648 540 714 q 604 471 604 583 l 604 0 l 440 0 l 424 80 l 415 80 q 345 9 389 32 q 244 -14 301 -14 q 133 13 181 -14 q 58 89 85 39 q 31 204 31 138 q 99 375 31 315 q 312 446 166 435 l 408 454 l 408 480 q 393 557 408 529 q 348 597 379 585 q 263 608 317 608 q 175 601 222 608 q 85 581 128 594 l 85 744 q 190 764 132 757 q 301 772 249 772 m 314 138 q 364 149 340 138 q 408 185 388 160 l 408 334 l 335 328 q 256 298 283 324 q 230 228 230 273 q 252 160 230 183 q 314 138 274 138 m 586 1297 l 756 1297 l 619 1109 l 481 1109 l 586 1297 m 245 1122 l 419 1122 l 549 856 l 410 856 l 332 1028 l 253 856 l 115 856 l 245 1122 z "},"ậ":{"ha":668,"x_min":31,"x_max":604,"o":"m 301 772 q 474 743 408 772 q 572 648 540 714 q 604 471 604 583 l 604 0 l 440 0 l 424 80 l 415 80 q 345 9 389 32 q 244 -14 301 -14 q 133 13 181 -14 q 58 89 85 39 q 31 204 31 138 q 99 375 31 315 q 312 446 166 435 l 408 454 l 408 480 q 393 557 408 529 q 348 597 379 585 q 263 608 317 608 q 175 601 222 608 q 85 581 128 594 l 85 744 q 190 764 132 757 q 301 772 249 772 m 314 138 q 364 149 340 138 q 408 185 388 160 l 408 334 l 335 328 q 256 298 283 324 q 230 228 230 273 q 252 160 230 183 q 314 138 274 138 m 333 -308 q 251 -279 281 -308 q 220 -199 220 -250 q 251 -118 220 -147 q 333 -89 281 -89 q 415 -118 384 -89 q 445 -199 445 -147 q 415 -279 445 -250 q 333 -308 384 -308 m 549 856 l 410 856 l 332 1028 l 253 856 l 115 856 l 245 1122 l 419 1122 l 549 856 z "},"ầ":{"ha":668,"x_min":31,"x_max":639,"o":"m 301 772 q 474 743 408 772 q 572 648 540 714 q 604 471 604 583 l 604 0 l 440 0 l 424 80 l 415 80 q 345 9 389 32 q 244 -14 301 -14 q 133 13 181 -14 q 58 89 85 39 q 31 204 31 138 q 99 375 31 315 q 312 446 166 435 l 408 454 l 408 480 q 393 557 408 529 q 348 597 379 585 q 263 608 317 608 q 175 601 222 608 q 85 581 128 594 l 85 744 q 190 764 132 757 q 301 772 249 772 m 314 138 q 364 149 340 138 q 408 185 388 160 l 408 334 l 335 328 q 256 298 283 324 q 230 228 230 273 q 252 160 230 183 q 314 138 274 138 m 639 1109 l 501 1109 l 365 1297 l 533 1297 l 639 1109 m 245 1122 l 419 1122 l 549 856 l 410 856 l 332 1028 l 253 856 l 115 856 l 245 1122 z "},"ẩ":{"ha":668,"x_min":31,"x_max":692,"o":"m 301 772 q 474 743 408 772 q 572 648 540 714 q 604 471 604 583 l 604 0 l 440 0 l 424 80 l 415 80 q 345 9 389 32 q 244 -14 301 -14 q 133 13 181 -14 q 58 89 85 39 q 31 204 31 138 q 99 375 31 315 q 312 446 166 435 l 408 454 l 408 480 q 393 557 408 529 q 348 597 379 585 q 263 608 317 608 q 175 601 222 608 q 85 581 128 594 l 85 744 q 190 764 132 757 q 301 772 249 772 m 314 138 q 364 149 340 138 q 408 185 388 160 l 408 334 l 335 328 q 256 298 283 324 q 230 228 230 273 q 252 160 230 183 q 314 138 274 138 m 526 1310 q 651 1289 611 1310 q 692 1227 692 1269 q 677 1190 692 1203 q 633 1161 663 1177 q 595 1138 608 1149 q 579 1109 582 1126 l 475 1109 q 495 1156 477 1140 q 544 1185 513 1172 q 570 1200 563 1194 q 578 1213 578 1206 q 510 1238 578 1238 q 447 1233 480 1238 q 387 1222 415 1229 l 387 1293 q 452 1305 413 1301 q 526 1310 492 1310 m 245 1122 l 419 1122 l 549 856 l 410 856 l 332 1028 l 253 856 l 115 856 l 245 1122 z "},"ẫ":{"ha":668,"x_min":31,"x_max":604,"o":"m 301 772 q 474 743 408 772 q 572 648 540 714 q 604 471 604 583 l 604 0 l 440 0 l 424 80 l 415 80 q 345 9 389 32 q 244 -14 301 -14 q 133 13 181 -14 q 58 89 85 39 q 31 204 31 138 q 99 375 31 315 q 312 446 166 435 l 408 454 l 408 480 q 393 557 408 529 q 348 597 379 585 q 263 608 317 608 q 175 601 222 608 q 85 581 128 594 l 85 744 q 190 764 132 757 q 301 772 249 772 m 314 138 q 364 149 340 138 q 408 185 388 160 l 408 334 l 335 328 q 256 298 283 324 q 230 228 230 273 q 252 160 230 183 q 314 138 274 138 m 441 1235 q 508 1246 478 1235 q 567 1282 538 1258 l 567 1169 q 512 1136 543 1147 q 440 1125 481 1125 q 384 1132 410 1125 q 320 1151 358 1138 q 267 1169 288 1163 q 222 1174 245 1174 q 156 1163 185 1174 q 97 1128 126 1152 l 97 1240 q 152 1274 122 1263 q 224 1285 183 1285 q 281 1278 254 1285 q 344 1258 307 1272 q 397 1241 374 1247 q 441 1235 419 1235 m 245 1084 l 419 1084 l 549 857 l 410 857 l 332 1007 l 253 857 l 115 857 l 245 1084 z "},"ȁ":{"ha":668,"x_min":26,"x_max":604,"o":"m 301 772 q 474 743 408 772 q 572 648 540 714 q 604 471 604 583 l 604 0 l 440 0 l 424 80 l 415 80 q 345 9 389 32 q 244 -14 301 -14 q 133 13 181 -14 q 58 89 85 39 q 31 204 31 138 q 99 375 31 315 q 312 446 166 435 l 408 454 l 408 480 q 393 557 408 529 q 348 597 379 585 q 263 608 317 608 q 175 601 222 608 q 85 581 128 594 l 85 744 q 190 764 132 757 q 301 772 249 772 m 314 138 q 364 149 340 138 q 408 185 388 160 l 408 334 l 335 328 q 256 298 283 324 q 230 228 230 273 q 252 160 230 183 q 314 138 274 138 m 122 856 l 26 1122 l 192 1122 l 278 856 l 122 856 m 385 856 l 290 1122 l 456 1122 l 542 856 l 385 856 z "},"ä":{"ha":668,"x_min":31,"x_max":604,"o":"m 301 772 q 474 743 408 772 q 572 648 540 714 q 604 471 604 583 l 604 0 l 440 0 l 424 80 l 415 80 q 345 9 389 32 q 244 -14 301 -14 q 133 13 181 -14 q 58 89 85 39 q 31 204 31 138 q 99 375 31 315 q 312 446 166 435 l 408 454 l 408 480 q 393 557 408 529 q 348 597 379 585 q 263 608 317 608 q 175 601 222 608 q 85 581 128 594 l 85 744 q 190 764 132 757 q 301 772 249 772 m 314 138 q 364 149 340 138 q 408 185 388 160 l 408 334 l 335 328 q 256 298 283 324 q 230 228 230 273 q 252 160 230 183 q 314 138 274 138 m 181 876 q 99 905 129 876 q 68 985 68 935 q 99 1066 68 1037 q 181 1096 129 1096 q 263 1066 232 1096 q 293 985 293 1037 q 263 905 293 935 q 181 876 232 876 m 483 876 q 401 905 432 876 q 371 985 371 935 q 401 1066 371 1037 q 483 1096 432 1096 q 565 1066 535 1096 q 596 985 596 1037 q 565 905 596 935 q 483 876 535 876 z "},"ạ":{"ha":668,"x_min":31,"x_max":604,"o":"m 301 772 q 474 743 408 772 q 572 648 540 714 q 604 471 604 583 l 604 0 l 440 0 l 424 80 l 415 80 q 345 9 389 32 q 244 -14 301 -14 q 133 13 181 -14 q 58 89 85 39 q 31 204 31 138 q 99 375 31 315 q 312 446 166 435 l 408 454 l 408 480 q 393 557 408 529 q 348 597 379 585 q 263 608 317 608 q 175 601 222 608 q 85 581 128 594 l 85 744 q 190 764 132 757 q 301 772 249 772 m 314 138 q 364 149 340 138 q 408 185 388 160 l 408 334 l 335 328 q 256 298 283 324 q 230 228 230 273 q 252 160 230 183 q 314 138 274 138 m 333 -308 q 251 -279 281 -308 q 220 -199 220 -250 q 251 -118 220 -147 q 333 -89 281 -89 q 415 -118 384 -89 q 445 -199 445 -147 q 415 -279 445 -250 q 333 -308 384 -308 z "},"à":{"ha":668,"x_min":31,"x_max":604,"o":"m 301 772 q 474 743 408 772 q 572 648 540 714 q 604 471 604 583 l 604 0 l 440 0 l 424 80 l 415 80 q 345 9 389 32 q 244 -14 301 -14 q 133 13 181 -14 q 58 89 85 39 q 31 204 31 138 q 99 375 31 315 q 312 446 166 435 l 408 454 l 408 480 q 393 557 408 529 q 348 597 379 585 q 263 608 317 608 q 175 601 222 608 q 85 581 128 594 l 85 744 q 190 764 132 757 q 301 772 249 772 m 314 138 q 364 149 340 138 q 408 185 388 160 l 408 334 l 335 328 q 256 298 283 324 q 230 228 230 273 q 252 160 230 183 q 314 138 274 138 m 244 856 l 83 1122 l 288 1122 l 419 856 l 244 856 z "},"ả":{"ha":668,"x_min":31,"x_max":604,"o":"m 301 772 q 474 743 408 772 q 572 648 540 714 q 604 471 604 583 l 604 0 l 440 0 l 424 80 l 415 80 q 345 9 389 32 q 244 -14 301 -14 q 133 13 181 -14 q 58 89 85 39 q 31 204 31 138 q 99 375 31 315 q 312 446 166 435 l 408 454 l 408 480 q 393 557 408 529 q 348 597 379 585 q 263 608 317 608 q 175 601 222 608 q 85 581 128 594 l 85 744 q 190 764 132 757 q 301 772 249 772 m 314 138 q 364 149 340 138 q 408 185 388 160 l 408 334 l 335 328 q 256 298 283 324 q 230 228 230 273 q 252 160 230 183 q 314 138 274 138 m 279 856 q 290 904 281 884 q 310 937 299 924 q 340 965 322 949 q 364 989 357 980 q 372 1010 372 998 q 313 1046 372 1046 q 208 1029 258 1046 l 208 1113 q 265 1126 232 1121 q 328 1131 299 1131 q 446 1104 407 1131 q 485 1024 485 1078 q 471 970 485 990 q 431 928 458 950 q 398 895 409 910 q 384 856 386 880 l 279 856 z "},"ȃ":{"ha":668,"x_min":31,"x_max":604,"o":"m 301 772 q 474 743 408 772 q 572 648 540 714 q 604 471 604 583 l 604 0 l 440 0 l 424 80 l 415 80 q 345 9 389 32 q 244 -14 301 -14 q 133 13 181 -14 q 58 89 85 39 q 31 204 31 138 q 99 375 31 315 q 312 446 166 435 l 408 454 l 408 480 q 393 557 408 529 q 348 597 379 585 q 263 608 317 608 q 175 601 222 608 q 85 581 128 594 l 85 744 q 190 764 132 757 q 301 772 249 772 m 314 138 q 364 149 340 138 q 408 185 388 160 l 408 334 l 335 328 q 256 298 283 324 q 230 228 230 273 q 252 160 230 183 q 314 138 274 138 m 113 876 q 176 1059 119 1000 q 331 1118 233 1118 q 486 1059 428 1118 q 551 876 544 999 l 426 876 q 398 981 422 949 q 331 1013 374 1013 q 264 981 286 1013 q 238 876 241 949 l 113 876 z "},"ā":{"ha":668,"x_min":31,"x_max":604,"o":"m 301 772 q 474 743 408 772 q 572 648 540 714 q 604 471 604 583 l 604 0 l 440 0 l 424 80 l 415 80 q 345 9 389 32 q 244 -14 301 -14 q 133 13 181 -14 q 58 89 85 39 q 31 204 31 138 q 99 375 31 315 q 312 446 166 435 l 408 454 l 408 480 q 393 557 408 529 q 348 597 379 585 q 263 608 317 608 q 175 601 222 608 q 85 581 128 594 l 85 744 q 190 764 132 757 q 301 772 249 772 m 314 138 q 364 149 340 138 q 408 185 388 160 l 408 334 l 335 328 q 256 298 283 324 q 230 228 230 273 q 252 160 230 183 q 314 138 274 138 m 106 920 l 106 1052 l 558 1052 l 558 920 l 106 920 z "},"ą":{"ha":668,"x_min":31,"x_max":624,"o":"m 539 -221 q 624 -199 577 -221 l 624 -284 q 514 -307 572 -307 q 388 -269 432 -307 q 344 -164 344 -231 q 368 -75 344 -115 q 445 0 391 -35 l 440 0 l 424 80 l 415 80 q 345 9 389 32 q 244 -14 301 -14 q 133 13 181 -14 q 58 89 85 39 q 31 204 31 138 q 99 375 31 315 q 312 446 166 435 l 408 454 l 408 480 q 393 557 408 529 q 348 597 379 585 q 263 608 317 608 q 175 601 222 608 q 85 581 128 594 l 85 744 q 190 764 132 757 q 301 772 249 772 q 474 743 408 772 q 572 648 540 714 q 604 471 604 583 l 604 0 q 492 -73 524 -36 q 461 -153 461 -110 q 481 -203 461 -185 q 539 -221 501 -221 m 314 138 q 364 149 340 138 q 408 185 388 160 l 408 334 l 335 328 q 256 298 283 324 q 230 228 230 273 q 252 160 230 183 q 314 138 274 138 z "},"å":{"ha":668,"x_min":31,"x_max":604,"o":"m 301 772 q 474 743 408 772 q 572 648 540 714 q 604 471 604 583 l 604 0 l 440 0 l 424 80 l 415 80 q 345 9 389 32 q 244 -14 301 -14 q 133 13 181 -14 q 58 89 85 39 q 31 204 31 138 q 99 375 31 315 q 312 446 166 435 l 408 454 l 408 480 q 393 557 408 529 q 348 597 379 585 q 263 608 317 608 q 175 601 222 608 q 85 581 128 594 l 85 744 q 190 764 132 757 q 301 772 249 772 m 314 138 q 364 149 340 138 q 408 185 388 160 l 408 334 l 335 328 q 256 298 283 324 q 230 228 230 273 q 252 160 230 183 q 314 138 274 138 m 332 853 q 256 872 290 853 q 202 923 222 890 q 183 998 183 956 q 202 1073 183 1040 q 256 1124 222 1106 q 332 1143 290 1143 q 408 1124 374 1143 q 462 1073 442 1106 q 481 998 481 1040 q 462 923 481 956 q 408 872 442 890 q 332 853 374 853 m 332 931 q 379 949 361 931 q 397 998 397 967 q 379 1047 397 1028 q 332 1065 361 1065 q 285 1047 303 1065 q 267 998 267 1028 q 285 949 267 967 q 332 931 303 931 z "},"ǻ":{"ha":668,"x_min":31,"x_max":604,"o":"m 301 772 q 474 743 408 772 q 572 648 540 714 q 604 471 604 583 l 604 0 l 440 0 l 424 80 l 415 80 q 345 9 389 32 q 244 -14 301 -14 q 133 13 181 -14 q 58 89 85 39 q 31 204 31 138 q 99 375 31 315 q 312 446 166 435 l 408 454 l 408 480 q 393 557 408 529 q 348 597 379 585 q 263 608 317 608 q 175 601 222 608 q 85 581 128 594 l 85 744 q 190 764 132 757 q 301 772 249 772 m 314 138 q 364 149 340 138 q 408 185 388 160 l 408 334 l 335 328 q 256 298 283 324 q 230 228 230 273 q 252 160 230 183 q 314 138 274 138 m 460 1076 q 481 998 481 1042 q 462 923 481 956 q 408 872 442 890 q 332 853 374 853 q 256 872 290 853 q 202 923 222 890 q 183 998 183 956 q 202 1073 183 1040 q 256 1124 222 1106 q 332 1143 290 1143 q 363 1140 349 1143 l 436 1236 l 597 1236 l 460 1076 m 332 931 q 379 949 361 931 q 397 998 397 967 q 379 1047 397 1028 q 332 1065 361 1065 q 285 1047 303 1065 q 267 998 267 1028 q 285 949 267 967 q 332 931 303 931 z "},"ã":{"ha":668,"x_min":31,"x_max":604,"o":"m 301 772 q 474 743 408 772 q 572 648 540 714 q 604 471 604 583 l 604 0 l 440 0 l 424 80 l 415 80 q 345 9 389 32 q 244 -14 301 -14 q 133 13 181 -14 q 58 89 85 39 q 31 204 31 138 q 99 375 31 315 q 312 446 166 435 l 408 454 l 408 480 q 393 557 408 529 q 348 597 379 585 q 263 608 317 608 q 175 601 222 608 q 85 581 128 594 l 85 744 q 190 764 132 757 q 301 772 249 772 m 314 138 q 364 149 340 138 q 408 185 388 160 l 408 334 l 335 328 q 256 298 283 324 q 230 228 230 273 q 252 160 230 183 q 314 138 274 138 m 433 894 q 380 903 405 894 q 320 928 356 912 q 270 950 290 943 q 228 958 249 958 q 164 943 192 958 q 106 899 135 929 l 106 1035 q 161 1075 131 1062 q 231 1088 191 1088 q 284 1079 259 1088 q 344 1053 308 1070 q 394 1032 374 1039 q 435 1024 415 1024 q 500 1039 471 1024 q 558 1083 528 1053 l 558 948 q 503 907 533 920 q 433 894 473 894 z "},"æ":{"ha":1018,"x_min":31,"x_max":988,"o":"m 988 317 l 605 317 q 626 216 608 253 q 682 164 644 180 q 784 149 719 149 q 951 174 854 149 l 951 11 q 852 -8 897 -2 q 760 -15 806 -15 q 589 12 658 -15 q 478 96 519 39 q 383 11 437 35 q 263 -14 330 -14 q 139 12 191 -14 q 59 88 87 38 q 31 206 31 138 q 102 379 31 316 q 319 442 172 442 l 411 442 l 411 478 q 395 556 411 528 q 347 597 379 585 q 260 608 314 608 q 175 601 221 608 q 85 581 128 594 l 85 744 q 292 772 187 772 q 432 749 376 772 q 520 681 488 726 q 713 772 588 772 q 915 674 842 772 q 988 377 988 576 l 988 317 m 703 638 q 650 620 671 638 q 617 561 628 603 q 604 442 605 518 l 798 442 q 786 561 797 519 q 755 621 775 604 q 703 638 734 638 m 317 138 q 379 153 351 138 q 431 201 407 167 q 413 324 417 254 l 343 324 q 257 298 285 324 q 230 225 230 272 q 253 160 230 183 q 317 138 276 138 z "},"ǽ":{"ha":1018,"x_min":31,"x_max":988,"o":"m 988 317 l 605 317 q 626 216 608 253 q 682 164 644 180 q 784 149 719 149 q 951 174 854 149 l 951 11 q 852 -8 897 -2 q 760 -15 806 -15 q 589 12 658 -15 q 478 96 519 39 q 383 11 437 35 q 263 -14 330 -14 q 139 12 191 -14 q 59 88 87 38 q 31 206 31 138 q 102 379 31 316 q 319 442 172 442 l 411 442 l 411 478 q 395 556 411 528 q 347 597 379 585 q 260 608 314 608 q 175 601 221 608 q 85 581 128 594 l 85 744 q 292 772 187 772 q 432 749 376 772 q 520 681 488 726 q 713 772 588 772 q 915 674 842 772 q 988 377 988 576 l 988 317 m 703 638 q 650 620 671 638 q 617 561 628 603 q 604 442 605 518 l 798 442 q 786 561 797 519 q 755 621 775 604 q 703 638 734 638 m 317 138 q 379 153 351 138 q 431 201 407 167 q 413 324 417 254 l 343 324 q 257 298 285 324 q 230 225 230 272 q 253 160 230 183 q 317 138 276 138 m 420 856 l 553 1122 l 757 1122 l 596 856 l 420 856 z "},"b":{"ha":728,"x_min":68,"x_max":690,"o":"m 315 -13 q 185 -3 251 -13 q 68 26 119 7 l 68 1122 l 271 1122 l 271 684 l 281 684 q 345 748 304 725 q 440 772 385 772 q 566 732 510 772 q 657 607 623 692 q 690 392 690 522 q 598 89 690 190 q 315 -13 506 -13 m 327 143 q 414 165 380 143 q 465 237 447 186 q 483 374 483 288 q 467 513 483 463 q 424 581 452 563 q 354 600 397 600 q 307 590 330 600 q 271 562 285 580 l 271 151 q 327 143 296 143 z "},"c":{"ha":557,"x_min":38,"x_max":535,"o":"m 373 -15 q 123 81 208 -15 q 38 379 38 177 q 131 678 38 584 q 400 772 225 772 q 535 758 472 772 l 535 592 q 438 602 485 602 q 330 581 371 602 q 269 513 289 560 q 249 383 249 465 q 268 247 249 297 q 323 176 286 197 q 417 156 359 156 q 535 178 467 156 l 535 11 q 373 -15 458 -15 z "},"ć":{"ha":557,"x_min":38,"x_max":560,"o":"m 373 -15 q 123 81 208 -15 q 38 379 38 177 q 131 678 38 584 q 400 772 225 772 q 535 758 472 772 l 535 592 q 438 602 485 602 q 330 581 371 602 q 269 513 289 560 q 249 383 249 465 q 268 247 249 297 q 323 176 286 197 q 417 156 359 156 q 535 178 467 156 l 535 11 q 373 -15 458 -15 m 224 856 l 356 1122 l 560 1122 l 399 856 l 224 856 z "},"č":{"ha":557,"x_min":38,"x_max":535,"o":"m 373 -15 q 123 81 208 -15 q 38 379 38 177 q 131 678 38 584 q 400 772 225 772 q 535 758 472 772 l 535 592 q 438 602 485 602 q 330 581 371 602 q 269 513 289 560 q 249 383 249 465 q 268 247 249 297 q 323 176 286 197 q 417 156 359 156 q 535 178 467 156 l 535 11 q 373 -15 458 -15 m 390 1122 l 528 1122 l 399 856 l 225 856 l 94 1122 l 233 1122 l 312 950 l 390 1122 z "},"ç":{"ha":557,"x_min":38,"x_max":535,"o":"m 438 602 q 330 581 371 602 q 269 513 289 560 q 249 383 249 465 q 268 247 249 297 q 323 176 286 197 q 417 156 359 156 q 535 178 467 156 l 535 11 q 379 -15 460 -13 l 379 -62 q 457 -103 429 -72 q 484 -181 484 -133 q 442 -274 484 -240 q 315 -307 400 -307 q 202 -287 254 -307 l 202 -203 q 306 -223 253 -223 q 356 -211 340 -223 q 372 -174 372 -200 q 303 -121 372 -121 l 277 -121 l 277 -6 q 38 379 38 45 q 131 678 38 584 q 400 772 225 772 q 535 758 472 772 l 535 592 q 438 602 485 602 z "},"ḉ":{"ha":557,"x_min":38,"x_max":560,"o":"m 560 1122 l 399 856 l 224 856 l 356 1122 l 560 1122 m 38 379 q 131 678 38 584 q 400 772 225 772 q 535 758 472 772 l 535 592 q 438 602 485 602 q 330 581 371 602 q 269 513 289 560 q 249 383 249 465 q 268 247 249 297 q 323 176 286 197 q 417 156 359 156 q 535 178 467 156 l 535 11 q 379 -15 460 -13 l 379 -62 q 457 -103 429 -72 q 484 -181 484 -133 q 442 -274 484 -240 q 315 -307 400 -307 q 202 -287 254 -307 l 202 -203 q 306 -223 253 -223 q 356 -211 340 -223 q 372 -174 372 -200 q 303 -121 372 -121 l 277 -121 l 277 -6 q 38 379 38 45 z "},"ĉ":{"ha":557,"x_min":38,"x_max":535,"o":"m 373 -15 q 123 81 208 -15 q 38 379 38 177 q 131 678 38 584 q 400 772 225 772 q 535 758 472 772 l 535 592 q 438 602 485 602 q 330 581 371 602 q 269 513 289 560 q 249 383 249 465 q 268 247 249 297 q 323 176 286 197 q 417 156 359 156 q 535 178 467 156 l 535 11 q 373 -15 458 -15 m 528 856 l 390 856 l 312 1028 l 233 856 l 94 856 l 225 1122 l 399 1122 l 528 856 z "},"ċ":{"ha":557,"x_min":38,"x_max":535,"o":"m 373 -15 q 123 81 208 -15 q 38 379 38 177 q 131 678 38 584 q 400 772 225 772 q 535 758 472 772 l 535 592 q 438 602 485 602 q 330 581 371 602 q 269 513 289 560 q 249 383 249 465 q 268 247 249 297 q 323 176 286 197 q 417 156 359 156 q 535 178 467 156 l 535 11 q 373 -15 458 -15 m 312 871 q 216 901 248 871 q 185 985 185 931 q 216 1070 185 1040 q 312 1101 248 1101 q 407 1070 376 1101 q 439 985 439 1040 q 407 901 439 931 q 312 871 376 871 z "},"d":{"ha":728,"x_min":38,"x_max":660,"o":"m 302 -15 q 169 25 228 -15 q 73 150 109 65 q 38 365 38 235 q 131 669 38 567 q 418 771 224 771 q 457 769 438 771 l 457 1122 l 660 1122 l 660 0 l 488 0 l 474 81 l 465 81 q 400 11 442 36 q 302 -15 359 -15 m 368 157 q 418 168 394 157 q 457 199 442 179 l 457 610 q 401 615 429 615 q 315 593 349 615 q 263 520 281 572 q 245 383 245 469 q 260 244 245 294 q 302 176 275 194 q 368 157 328 157 z "},"ð":{"ha":710,"x_min":38,"x_max":672,"o":"m 528 919 q 633 676 595 806 q 672 420 672 546 q 591 88 672 192 q 356 -17 511 -17 q 119 79 201 -17 q 38 376 38 175 q 118 673 38 577 q 340 769 198 769 q 422 751 381 769 q 353 881 393 820 l 114 831 l 89 941 l 280 981 q 142 1122 220 1053 l 363 1122 q 460 1019 414 1079 l 629 1055 l 655 945 l 528 919 m 356 136 q 416 157 392 136 q 452 228 440 177 q 465 372 465 280 q 452 522 465 469 q 415 596 439 576 q 355 617 392 617 q 294 597 318 617 q 258 524 271 576 q 245 376 245 471 q 258 228 245 280 q 294 156 270 176 q 356 136 317 136 z "},"ď":{"ha":728,"x_min":38,"x_max":859,"o":"m 302 -15 q 169 25 228 -15 q 73 150 109 65 q 38 365 38 235 q 131 669 38 567 q 418 771 224 771 q 457 769 438 771 l 457 1122 l 660 1122 l 660 0 l 488 0 l 474 81 l 465 81 q 400 11 442 36 q 302 -15 359 -15 m 368 157 q 418 168 394 157 q 457 199 442 179 l 457 610 q 401 615 429 615 q 315 593 349 615 q 263 520 281 572 q 245 383 245 469 q 260 244 245 294 q 302 176 275 194 q 368 157 328 157 m 700 819 q 715 966 711 894 q 719 1122 719 1038 l 859 1122 q 847 960 859 1040 q 813 819 835 881 l 700 819 z "},"đ":{"ha":728,"x_min":38,"x_max":726,"o":"m 726 869 l 660 869 l 660 0 l 488 0 l 474 81 l 465 81 q 400 11 442 36 q 302 -15 359 -15 q 169 25 228 -15 q 73 150 109 65 q 38 365 38 235 q 131 669 38 567 q 418 771 224 771 q 457 769 438 771 l 457 869 l 283 869 l 283 1009 l 457 1009 l 457 1122 l 660 1122 l 660 1009 l 726 1009 l 726 869 m 457 610 q 401 615 429 615 q 315 593 349 615 q 263 520 281 572 q 245 383 245 469 q 260 244 245 294 q 302 176 275 194 q 368 157 328 157 q 418 168 394 157 q 457 199 442 179 l 457 610 z "},"ḍ":{"ha":728,"x_min":38,"x_max":660,"o":"m 302 -15 q 169 25 228 -15 q 73 150 109 65 q 38 365 38 235 q 131 669 38 567 q 418 771 224 771 q 457 769 438 771 l 457 1122 l 660 1122 l 660 0 l 488 0 l 474 81 l 465 81 q 400 11 442 36 q 302 -15 359 -15 m 368 157 q 418 168 394 157 q 457 199 442 179 l 457 610 q 401 615 429 615 q 315 593 349 615 q 263 520 281 572 q 245 383 245 469 q 260 244 245 294 q 302 176 275 194 q 368 157 328 157 m 368 -308 q 286 -279 317 -308 q 256 -199 256 -250 q 286 -118 256 -147 q 368 -89 317 -89 q 450 -118 419 -89 q 481 -199 481 -147 q 450 -279 481 -250 q 368 -308 419 -308 z "},"ḏ":{"ha":728,"x_min":38,"x_max":660,"o":"m 302 -15 q 169 25 228 -15 q 73 150 109 65 q 38 365 38 235 q 131 669 38 567 q 418 771 224 771 q 457 769 438 771 l 457 1122 l 660 1122 l 660 0 l 488 0 l 474 81 l 465 81 q 400 11 442 36 q 302 -15 359 -15 m 368 157 q 418 168 394 157 q 457 199 442 179 l 457 610 q 401 615 429 615 q 315 593 349 615 q 263 520 281 572 q 245 383 245 469 q 260 244 245 294 q 302 176 275 194 q 368 157 328 157 m 149 -262 l 149 -131 l 588 -131 l 588 -262 l 149 -262 z "},"ǳ":{"ha":1308,"x_min":38,"x_max":1285,"o":"m 302 -15 q 169 25 228 -15 q 73 150 109 65 q 38 365 38 235 q 131 669 38 567 q 418 771 224 771 q 457 769 438 771 l 457 1122 l 660 1122 l 660 0 l 488 0 l 474 81 l 465 81 q 400 11 442 36 q 302 -15 359 -15 m 368 157 q 418 168 394 157 q 457 199 442 179 l 457 610 q 401 615 429 615 q 315 593 349 615 q 263 520 281 572 q 245 383 245 469 q 260 244 245 294 q 302 176 275 194 q 368 157 328 157 m 985 160 l 1285 160 l 1285 0 l 760 0 l 760 126 l 1053 600 l 767 600 l 767 760 l 1278 760 l 1278 634 l 985 160 z "},"ǆ":{"ha":1308,"x_min":38,"x_max":1285,"o":"m 302 -15 q 169 25 228 -15 q 73 150 109 65 q 38 365 38 235 q 131 669 38 567 q 418 771 224 771 q 457 769 438 771 l 457 1122 l 660 1122 l 660 0 l 488 0 l 474 81 l 465 81 q 400 11 442 36 q 302 -15 359 -15 m 368 157 q 418 168 394 157 q 457 199 442 179 l 457 610 q 401 615 429 615 q 315 593 349 615 q 263 520 281 572 q 245 383 245 469 q 260 244 245 294 q 302 176 275 194 q 368 157 328 157 m 985 160 l 1285 160 l 1285 0 l 760 0 l 760 126 l 1053 600 l 767 600 l 767 760 l 1278 760 l 1278 634 l 985 160 m 1101 1122 l 1240 1122 l 1110 856 l 936 856 l 806 1122 l 944 1122 l 1023 950 l 1101 1122 z "},"e":{"ha":663,"x_min":38,"x_max":632,"o":"m 632 317 l 244 317 q 265 216 247 253 q 322 164 283 180 q 428 149 361 149 q 596 174 499 149 l 596 11 q 496 -8 542 -2 q 402 -15 450 -15 q 194 26 274 -15 q 76 154 114 67 q 38 383 38 241 q 118 673 38 574 q 347 772 198 772 q 559 673 487 772 q 632 377 632 574 l 632 317 m 345 637 q 290 620 312 637 q 256 561 268 603 q 243 442 244 518 l 442 442 q 431 561 442 519 q 399 620 419 603 q 345 637 378 637 z "},"é":{"ha":663,"x_min":38,"x_max":632,"o":"m 632 317 l 244 317 q 265 216 247 253 q 322 164 283 180 q 428 149 361 149 q 596 174 499 149 l 596 11 q 496 -8 542 -2 q 402 -15 450 -15 q 194 26 274 -15 q 76 154 114 67 q 38 383 38 241 q 118 673 38 574 q 347 772 198 772 q 559 673 487 772 q 632 377 632 574 l 632 317 m 345 637 q 290 620 312 637 q 256 561 268 603 q 243 442 244 518 l 442 442 q 431 561 442 519 q 399 620 419 603 q 345 637 378 637 m 252 856 l 385 1122 l 589 1122 l 428 856 l 252 856 z "},"ĕ":{"ha":663,"x_min":38,"x_max":632,"o":"m 632 317 l 244 317 q 265 216 247 253 q 322 164 283 180 q 428 149 361 149 q 596 174 499 149 l 596 11 q 496 -8 542 -2 q 402 -15 450 -15 q 194 26 274 -15 q 76 154 114 67 q 38 383 38 241 q 118 673 38 574 q 347 772 198 772 q 559 673 487 772 q 632 377 632 574 l 632 317 m 345 637 q 290 620 312 637 q 256 561 268 603 q 243 442 244 518 l 442 442 q 431 561 442 519 q 399 620 419 603 q 345 637 378 637 m 340 865 q 185 924 243 865 q 122 1107 128 984 l 247 1107 q 274 1004 250 1036 q 340 972 298 972 q 407 1004 383 972 q 434 1107 431 1036 l 559 1107 q 495 924 553 983 q 340 865 438 865 z "},"ě":{"ha":663,"x_min":38,"x_max":632,"o":"m 632 317 l 244 317 q 265 216 247 253 q 322 164 283 180 q 428 149 361 149 q 596 174 499 149 l 596 11 q 496 -8 542 -2 q 402 -15 450 -15 q 194 26 274 -15 q 76 154 114 67 q 38 383 38 241 q 118 673 38 574 q 347 772 198 772 q 559 673 487 772 q 632 377 632 574 l 632 317 m 345 637 q 290 620 312 637 q 256 561 268 603 q 243 442 244 518 l 442 442 q 431 561 442 519 q 399 620 419 603 q 345 637 378 637 m 419 1122 l 557 1122 l 427 856 l 253 856 l 123 1122 l 262 1122 l 340 950 l 419 1122 z "},"ḝ":{"ha":663,"x_min":38,"x_max":632,"o":"m 340 865 q 185 924 243 865 q 122 1107 128 984 l 247 1107 q 274 1004 250 1036 q 340 972 298 972 q 407 1004 383 972 q 434 1107 431 1036 l 559 1107 q 495 924 553 983 q 340 865 438 865 m 632 317 l 244 317 q 265 216 247 253 q 322 164 283 180 q 428 149 361 149 q 596 174 499 149 l 596 11 q 496 -8 542 -2 q 402 -15 450 -15 l 398 -15 l 398 -62 q 475 -103 448 -72 q 503 -181 503 -133 q 461 -274 503 -240 q 333 -307 419 -307 q 221 -287 273 -307 l 221 -203 q 324 -223 272 -223 q 375 -211 358 -223 q 391 -174 391 -200 q 322 -121 391 -121 l 296 -121 l 296 -6 q 149 55 206 9 q 65 181 92 101 q 38 383 38 262 q 118 673 38 574 q 347 772 198 772 q 559 673 487 772 q 632 377 632 574 l 632 317 m 345 637 q 290 620 312 637 q 256 561 268 603 q 243 442 244 518 l 442 442 q 431 561 442 519 q 399 620 419 603 q 345 637 378 637 z "},"ê":{"ha":663,"x_min":38,"x_max":632,"o":"m 632 317 l 244 317 q 265 216 247 253 q 322 164 283 180 q 428 149 361 149 q 596 174 499 149 l 596 11 q 496 -8 542 -2 q 402 -15 450 -15 q 194 26 274 -15 q 76 154 114 67 q 38 383 38 241 q 118 673 38 574 q 347 772 198 772 q 559 673 487 772 q 632 377 632 574 l 632 317 m 345 637 q 290 620 312 637 q 256 561 268 603 q 243 442 244 518 l 442 442 q 431 561 442 519 q 399 620 419 603 q 345 637 378 637 m 557 856 l 419 856 l 340 1028 l 262 856 l 123 856 l 253 1122 l 427 1122 l 557 856 z "},"ế":{"ha":663,"x_min":38,"x_max":764,"o":"m 632 317 l 244 317 q 265 216 247 253 q 322 164 283 180 q 428 149 361 149 q 596 174 499 149 l 596 11 q 496 -8 542 -2 q 402 -15 450 -15 q 194 26 274 -15 q 76 154 114 67 q 38 383 38 241 q 118 673 38 574 q 347 772 198 772 q 559 673 487 772 q 632 377 632 574 l 632 317 m 345 637 q 290 620 312 637 q 256 561 268 603 q 243 442 244 518 l 442 442 q 431 561 442 519 q 399 620 419 603 q 345 637 378 637 m 594 1297 l 764 1297 l 628 1109 l 490 1109 l 594 1297 m 253 1122 l 427 1122 l 557 856 l 419 856 l 340 1028 l 262 856 l 123 856 l 253 1122 z "},"ệ":{"ha":663,"x_min":38,"x_max":632,"o":"m 632 317 l 244 317 q 265 216 247 253 q 322 164 283 180 q 428 149 361 149 q 596 174 499 149 l 596 11 q 496 -8 542 -2 q 402 -15 450 -15 q 194 26 274 -15 q 76 154 114 67 q 38 383 38 241 q 118 673 38 574 q 347 772 198 772 q 559 673 487 772 q 632 377 632 574 l 632 317 m 345 637 q 290 620 312 637 q 256 561 268 603 q 243 442 244 518 l 442 442 q 431 561 442 519 q 399 620 419 603 q 345 637 378 637 m 340 -308 q 258 -279 289 -308 q 228 -199 228 -250 q 258 -118 228 -147 q 340 -89 289 -89 q 422 -118 392 -89 q 453 -199 453 -147 q 422 -279 453 -250 q 340 -308 392 -308 m 557 856 l 419 856 l 340 1028 l 262 856 l 123 856 l 253 1122 l 427 1122 l 557 856 z "},"ề":{"ha":663,"x_min":38,"x_max":647,"o":"m 632 317 l 244 317 q 265 216 247 253 q 322 164 283 180 q 428 149 361 149 q 596 174 499 149 l 596 11 q 496 -8 542 -2 q 402 -15 450 -15 q 194 26 274 -15 q 76 154 114 67 q 38 383 38 241 q 118 673 38 574 q 347 772 198 772 q 559 673 487 772 q 632 377 632 574 l 632 317 m 345 637 q 290 620 312 637 q 256 561 268 603 q 243 442 244 518 l 442 442 q 431 561 442 519 q 399 620 419 603 q 345 637 378 637 m 647 1109 l 509 1109 l 373 1297 l 542 1297 l 647 1109 m 253 1122 l 427 1122 l 557 856 l 419 856 l 340 1028 l 262 856 l 123 856 l 253 1122 z "},"ể":{"ha":663,"x_min":38,"x_max":700,"o":"m 632 317 l 244 317 q 265 216 247 253 q 322 164 283 180 q 428 149 361 149 q 596 174 499 149 l 596 11 q 496 -8 542 -2 q 402 -15 450 -15 q 194 26 274 -15 q 76 154 114 67 q 38 383 38 241 q 118 673 38 574 q 347 772 198 772 q 559 673 487 772 q 632 377 632 574 l 632 317 m 345 637 q 290 620 312 637 q 256 561 268 603 q 243 442 244 518 l 442 442 q 431 561 442 519 q 399 620 419 603 q 345 637 378 637 m 535 1310 q 660 1289 619 1310 q 700 1227 700 1269 q 685 1190 700 1203 q 642 1161 671 1177 q 603 1138 617 1149 q 588 1109 590 1126 l 483 1109 q 503 1156 485 1140 q 553 1185 522 1172 q 579 1200 571 1194 q 587 1213 587 1206 q 518 1238 587 1238 q 456 1233 488 1238 q 395 1222 423 1229 l 395 1293 q 461 1305 421 1301 q 535 1310 501 1310 m 253 1122 l 427 1122 l 557 856 l 419 856 l 340 1028 l 262 856 l 123 856 l 253 1122 z "},"ễ":{"ha":663,"x_min":38,"x_max":632,"o":"m 632 317 l 244 317 q 265 216 247 253 q 322 164 283 180 q 428 149 361 149 q 596 174 499 149 l 596 11 q 496 -8 542 -2 q 402 -15 450 -15 q 194 26 274 -15 q 76 154 114 67 q 38 383 38 241 q 118 673 38 574 q 347 772 198 772 q 559 673 487 772 q 632 377 632 574 l 632 317 m 345 637 q 290 620 312 637 q 256 561 268 603 q 243 442 244 518 l 442 442 q 431 561 442 519 q 399 620 419 603 q 345 637 378 637 m 449 1235 q 516 1246 487 1235 q 576 1282 546 1258 l 576 1169 q 520 1136 551 1147 q 448 1125 490 1125 q 392 1132 418 1125 q 328 1151 367 1138 q 275 1169 297 1163 q 231 1174 253 1174 q 164 1163 193 1174 q 105 1128 135 1152 l 105 1240 q 160 1274 130 1263 q 233 1285 191 1285 q 289 1278 263 1285 q 352 1258 315 1272 q 405 1241 383 1247 q 449 1235 427 1235 m 253 1084 l 427 1084 l 557 857 l 419 857 l 340 1007 l 262 857 l 123 857 l 253 1084 z "},"ȅ":{"ha":663,"x_min":35,"x_max":632,"o":"m 632 317 l 244 317 q 265 216 247 253 q 322 164 283 180 q 428 149 361 149 q 596 174 499 149 l 596 11 q 496 -8 542 -2 q 402 -15 450 -15 q 194 26 274 -15 q 76 154 114 67 q 38 383 38 241 q 118 673 38 574 q 347 772 198 772 q 559 673 487 772 q 632 377 632 574 l 632 317 m 345 637 q 290 620 312 637 q 256 561 268 603 q 243 442 244 518 l 442 442 q 431 561 442 519 q 399 620 419 603 q 345 637 378 637 m 131 856 l 35 1122 l 201 1122 l 286 856 l 131 856 m 394 856 l 298 1122 l 464 1122 l 550 856 l 394 856 z "},"ë":{"ha":663,"x_min":38,"x_max":632,"o":"m 632 317 l 244 317 q 265 216 247 253 q 322 164 283 180 q 428 149 361 149 q 596 174 499 149 l 596 11 q 496 -8 542 -2 q 402 -15 450 -15 q 194 26 274 -15 q 76 154 114 67 q 38 383 38 241 q 118 673 38 574 q 347 772 198 772 q 559 673 487 772 q 632 377 632 574 l 632 317 m 345 637 q 290 620 312 637 q 256 561 268 603 q 243 442 244 518 l 442 442 q 431 561 442 519 q 399 620 419 603 q 345 637 378 637 m 189 876 q 107 905 138 876 q 76 985 76 935 q 107 1066 76 1037 q 189 1096 138 1096 q 271 1066 240 1096 q 301 985 301 1037 q 271 905 301 935 q 189 876 240 876 m 492 876 q 410 905 440 876 q 379 985 379 935 q 410 1066 379 1037 q 492 1096 440 1096 q 574 1066 543 1096 q 604 985 604 1037 q 574 905 604 935 q 492 876 543 876 z "},"ė":{"ha":663,"x_min":38,"x_max":632,"o":"m 632 317 l 244 317 q 265 216 247 253 q 322 164 283 180 q 428 149 361 149 q 596 174 499 149 l 596 11 q 496 -8 542 -2 q 402 -15 450 -15 q 194 26 274 -15 q 76 154 114 67 q 38 383 38 241 q 118 673 38 574 q 347 772 198 772 q 559 673 487 772 q 632 377 632 574 l 632 317 m 345 637 q 290 620 312 637 q 256 561 268 603 q 243 442 244 518 l 442 442 q 431 561 442 519 q 399 620 419 603 q 345 637 378 637 m 340 871 q 245 901 276 871 q 213 985 213 931 q 245 1070 213 1040 q 340 1101 276 1101 q 436 1070 404 1101 q 467 985 467 1040 q 436 901 467 931 q 340 871 404 871 z "},"ẹ":{"ha":663,"x_min":38,"x_max":632,"o":"m 632 317 l 244 317 q 265 216 247 253 q 322 164 283 180 q 428 149 361 149 q 596 174 499 149 l 596 11 q 496 -8 542 -2 q 402 -15 450 -15 q 194 26 274 -15 q 76 154 114 67 q 38 383 38 241 q 118 673 38 574 q 347 772 198 772 q 559 673 487 772 q 632 377 632 574 l 632 317 m 345 637 q 290 620 312 637 q 256 561 268 603 q 243 442 244 518 l 442 442 q 431 561 442 519 q 399 620 419 603 q 345 637 378 637 m 340 -308 q 258 -279 289 -308 q 228 -199 228 -250 q 258 -118 228 -147 q 340 -89 289 -89 q 422 -118 392 -89 q 453 -199 453 -147 q 422 -279 453 -250 q 340 -308 392 -308 z "},"è":{"ha":663,"x_min":38,"x_max":632,"o":"m 632 317 l 244 317 q 265 216 247 253 q 322 164 283 180 q 428 149 361 149 q 596 174 499 149 l 596 11 q 496 -8 542 -2 q 402 -15 450 -15 q 194 26 274 -15 q 76 154 114 67 q 38 383 38 241 q 118 673 38 574 q 347 772 198 772 q 559 673 487 772 q 632 377 632 574 l 632 317 m 345 637 q 290 620 312 637 q 256 561 268 603 q 243 442 244 518 l 442 442 q 431 561 442 519 q 399 620 419 603 q 345 637 378 637 m 252 856 l 92 1122 l 296 1122 l 428 856 l 252 856 z "},"ẻ":{"ha":663,"x_min":38,"x_max":632,"o":"m 632 317 l 244 317 q 265 216 247 253 q 322 164 283 180 q 428 149 361 149 q 596 174 499 149 l 596 11 q 496 -8 542 -2 q 402 -15 450 -15 q 194 26 274 -15 q 76 154 114 67 q 38 383 38 241 q 118 673 38 574 q 347 772 198 772 q 559 673 487 772 q 632 377 632 574 l 632 317 m 345 637 q 290 620 312 637 q 256 561 268 603 q 243 442 244 518 l 442 442 q 431 561 442 519 q 399 620 419 603 q 345 637 378 637 m 288 856 q 298 904 289 884 q 318 937 307 924 q 348 965 330 949 q 373 989 365 980 q 380 1010 380 998 q 321 1046 380 1046 q 216 1029 266 1046 l 216 1113 q 274 1126 240 1121 q 337 1131 307 1131 q 454 1104 415 1131 q 493 1024 493 1078 q 480 970 493 990 q 440 928 466 950 q 406 895 417 910 q 392 856 394 880 l 288 856 z "},"ȇ":{"ha":663,"x_min":38,"x_max":632,"o":"m 632 317 l 244 317 q 265 216 247 253 q 322 164 283 180 q 428 149 361 149 q 596 174 499 149 l 596 11 q 496 -8 542 -2 q 402 -15 450 -15 q 194 26 274 -15 q 76 154 114 67 q 38 383 38 241 q 118 673 38 574 q 347 772 198 772 q 559 673 487 772 q 632 377 632 574 l 632 317 m 345 637 q 290 620 312 637 q 256 561 268 603 q 243 442 244 518 l 442 442 q 431 561 442 519 q 399 620 419 603 q 345 637 378 637 m 122 876 q 184 1059 128 1000 q 340 1118 241 1118 q 494 1059 436 1118 q 559 876 553 999 l 434 876 q 406 981 431 949 q 340 1013 382 1013 q 272 981 294 1013 q 247 876 249 949 l 122 876 z "},"ē":{"ha":663,"x_min":38,"x_max":632,"o":"m 632 317 l 244 317 q 265 216 247 253 q 322 164 283 180 q 428 149 361 149 q 596 174 499 149 l 596 11 q 496 -8 542 -2 q 402 -15 450 -15 q 194 26 274 -15 q 76 154 114 67 q 38 383 38 241 q 118 673 38 574 q 347 772 198 772 q 559 673 487 772 q 632 377 632 574 l 632 317 m 345 637 q 290 620 312 637 q 256 561 268 603 q 243 442 244 518 l 442 442 q 431 561 442 519 q 399 620 419 603 q 345 637 378 637 m 115 920 l 115 1052 l 566 1052 l 566 920 l 115 920 z "},"ḗ":{"ha":663,"x_min":38,"x_max":632,"o":"m 632 317 l 244 317 q 265 216 247 253 q 322 164 283 180 q 428 149 361 149 q 596 174 499 149 l 596 11 q 496 -8 542 -2 q 402 -15 450 -15 q 194 26 274 -15 q 76 154 114 67 q 38 383 38 241 q 118 673 38 574 q 347 772 198 772 q 559 673 487 772 q 632 377 632 574 l 632 317 m 345 637 q 290 620 312 637 q 256 561 268 603 q 243 442 244 518 l 442 442 q 431 561 442 519 q 399 620 419 603 q 345 637 378 637 m 115 920 l 115 1052 l 566 1052 l 566 920 l 115 920 m 250 1162 l 356 1372 l 566 1372 l 430 1162 l 250 1162 z "},"ḕ":{"ha":663,"x_min":38,"x_max":632,"o":"m 632 317 l 244 317 q 265 216 247 253 q 322 164 283 180 q 428 149 361 149 q 596 174 499 149 l 596 11 q 496 -8 542 -2 q 402 -15 450 -15 q 194 26 274 -15 q 76 154 114 67 q 38 383 38 241 q 118 673 38 574 q 347 772 198 772 q 559 673 487 772 q 632 377 632 574 l 632 317 m 345 637 q 290 620 312 637 q 256 561 268 603 q 243 442 244 518 l 442 442 q 431 561 442 519 q 399 620 419 603 q 345 637 378 637 m 115 920 l 115 1052 l 566 1052 l 566 920 l 115 920 m 250 1162 l 114 1372 l 324 1372 l 430 1162 l 250 1162 z "},"ę":{"ha":663,"x_min":38,"x_max":632,"o":"m 632 317 l 244 317 q 265 216 247 253 q 322 164 283 180 q 428 149 361 149 q 596 174 499 149 l 596 11 q 468 -67 503 -26 q 433 -153 433 -107 q 453 -203 433 -185 q 510 -221 473 -221 q 596 -199 549 -221 l 596 -284 q 485 -307 544 -307 q 360 -269 403 -307 q 316 -164 316 -231 q 335 -82 316 -119 q 397 -15 354 -46 q 192 27 271 -14 q 75 155 113 68 q 38 383 38 242 q 118 673 38 574 q 347 772 198 772 q 559 673 487 772 q 632 377 632 574 l 632 317 m 345 632 q 290 615 312 632 q 256 556 268 599 q 243 438 244 513 l 442 438 q 431 556 442 514 q 399 615 419 599 q 345 632 378 632 z "},"ẽ":{"ha":663,"x_min":38,"x_max":632,"o":"m 632 317 l 244 317 q 265 216 247 253 q 322 164 283 180 q 428 149 361 149 q 596 174 499 149 l 596 11 q 496 -8 542 -2 q 402 -15 450 -15 q 194 26 274 -15 q 76 154 114 67 q 38 383 38 241 q 118 673 38 574 q 347 772 198 772 q 559 673 487 772 q 632 377 632 574 l 632 317 m 345 637 q 290 620 312 637 q 256 561 268 603 q 243 442 244 518 l 442 442 q 431 561 442 519 q 399 620 419 603 q 345 637 378 637 m 442 894 q 389 903 413 894 q 328 928 364 912 q 278 950 299 943 q 237 958 258 958 q 172 943 201 958 q 115 899 144 929 l 115 1035 q 169 1075 139 1062 q 239 1088 199 1088 q 292 1079 267 1088 q 352 1053 317 1070 q 402 1032 382 1039 q 444 1024 423 1024 q 508 1039 479 1024 q 566 1083 537 1053 l 566 948 q 511 907 542 920 q 442 894 481 894 z "},"ə":{"ha":663,"x_min":31,"x_max":625,"o":"m 260 774 q 469 734 389 774 q 587 606 549 693 q 625 377 625 519 q 545 87 625 185 q 316 -12 465 -12 q 103 87 176 -12 q 31 383 31 185 l 31 443 l 419 443 q 398 543 416 507 q 340 595 379 580 q 235 611 301 611 q 67 585 164 611 l 67 749 q 167 768 121 762 q 260 774 213 774 m 317 123 q 373 140 351 123 q 407 199 394 156 q 419 317 419 242 l 220 317 q 232 199 221 241 q 264 140 243 156 q 317 123 285 123 z "},"f":{"ha":477,"x_min":6,"x_max":517,"o":"m 450 971 q 347 942 379 971 q 315 849 315 913 l 315 760 l 489 760 l 489 600 l 315 600 l 315 0 l 115 0 l 115 600 l 6 600 l 6 760 l 115 760 l 115 836 q 192 1059 115 981 q 421 1136 269 1136 q 517 1128 476 1136 l 517 965 q 450 971 484 971 z "},"g":{"ha":728,"x_min":38,"x_max":660,"o":"m 294 -319 q 190 -313 246 -319 q 89 -294 135 -306 l 89 -131 q 277 -158 186 -158 q 413 -117 369 -158 q 457 23 457 -76 l 457 79 l 447 79 q 383 15 424 38 q 288 -8 342 -8 q 164 31 221 -8 q 73 153 108 69 q 38 365 38 237 q 131 669 38 567 q 417 772 224 771 q 544 761 479 772 q 660 732 609 751 l 660 58 q 569 -230 660 -140 q 294 -319 479 -319 m 374 160 q 420 170 398 160 q 457 199 443 181 l 457 610 q 400 615 425 615 q 315 594 349 615 q 263 521 281 572 q 245 384 245 470 q 260 247 245 296 q 303 179 275 198 q 374 160 331 160 z "},"ǵ":{"ha":728,"x_min":38,"x_max":660,"o":"m 294 -319 q 190 -313 246 -319 q 89 -294 135 -306 l 89 -131 q 277 -158 186 -158 q 413 -117 369 -158 q 457 23 457 -76 l 457 79 l 447 79 q 383 15 424 38 q 288 -8 342 -8 q 164 31 221 -8 q 73 153 108 69 q 38 365 38 237 q 131 669 38 567 q 417 772 224 771 q 544 761 479 772 q 660 732 609 751 l 660 58 q 569 -230 660 -140 q 294 -319 479 -319 m 374 160 q 420 170 398 160 q 457 199 443 181 l 457 610 q 400 615 425 615 q 315 594 349 615 q 263 521 281 572 q 245 384 245 470 q 260 247 245 296 q 303 179 275 198 q 374 160 331 160 m 290 856 l 422 1122 l 626 1122 l 465 856 l 290 856 z "},"ğ":{"ha":728,"x_min":38,"x_max":660,"o":"m 294 -319 q 190 -313 246 -319 q 89 -294 135 -306 l 89 -131 q 277 -158 186 -158 q 413 -117 369 -158 q 457 23 457 -76 l 457 79 l 447 79 q 383 15 424 38 q 288 -8 342 -8 q 164 31 221 -8 q 73 153 108 69 q 38 365 38 237 q 131 669 38 567 q 417 772 224 771 q 544 761 479 772 q 660 732 609 751 l 660 58 q 569 -230 660 -140 q 294 -319 479 -319 m 374 160 q 420 170 398 160 q 457 199 443 181 l 457 610 q 400 615 425 615 q 315 594 349 615 q 263 521 281 572 q 245 384 245 470 q 260 247 245 296 q 303 179 275 198 q 374 160 331 160 m 378 865 q 223 924 281 865 q 159 1107 165 984 l 284 1107 q 311 1004 288 1036 q 378 972 335 972 q 445 1004 421 972 q 472 1107 469 1036 l 597 1107 q 533 924 590 983 q 378 865 476 865 z "},"ǧ":{"ha":728,"x_min":38,"x_max":660,"o":"m 294 -319 q 190 -313 246 -319 q 89 -294 135 -306 l 89 -131 q 277 -158 186 -158 q 413 -117 369 -158 q 457 23 457 -76 l 457 79 l 447 79 q 383 15 424 38 q 288 -8 342 -8 q 164 31 221 -8 q 73 153 108 69 q 38 365 38 237 q 131 669 38 567 q 417 772 224 771 q 544 761 479 772 q 660 732 609 751 l 660 58 q 569 -230 660 -140 q 294 -319 479 -319 m 374 160 q 420 170 398 160 q 457 199 443 181 l 457 610 q 400 615 425 615 q 315 594 349 615 q 263 521 281 572 q 245 384 245 470 q 260 247 245 296 q 303 179 275 198 q 374 160 331 160 m 456 1122 l 594 1122 l 465 856 l 291 856 l 160 1122 l 299 1122 l 378 950 l 456 1122 z "},"ĝ":{"ha":728,"x_min":38,"x_max":660,"o":"m 294 -319 q 190 -313 246 -319 q 89 -294 135 -306 l 89 -131 q 277 -158 186 -158 q 413 -117 369 -158 q 457 23 457 -76 l 457 79 l 447 79 q 383 15 424 38 q 288 -8 342 -8 q 164 31 221 -8 q 73 153 108 69 q 38 365 38 237 q 131 669 38 567 q 417 772 224 771 q 544 761 479 772 q 660 732 609 751 l 660 58 q 569 -230 660 -140 q 294 -319 479 -319 m 374 160 q 420 170 398 160 q 457 199 443 181 l 457 610 q 400 615 425 615 q 315 594 349 615 q 263 521 281 572 q 245 384 245 470 q 260 247 245 296 q 303 179 275 198 q 374 160 331 160 m 594 856 l 456 856 l 378 1028 l 299 856 l 160 856 l 291 1122 l 465 1122 l 594 856 z "},"ģ":{"ha":728,"x_min":38,"x_max":660,"o":"m 294 -319 q 190 -313 246 -319 q 89 -294 135 -306 l 89 -131 q 277 -158 186 -158 q 413 -117 369 -158 q 457 23 457 -76 l 457 79 l 447 79 q 383 15 424 38 q 288 -8 342 -8 q 164 31 221 -8 q 73 153 108 69 q 38 365 38 237 q 131 669 38 567 q 417 772 224 771 q 544 761 479 772 q 660 732 609 751 l 660 58 q 569 -230 660 -140 q 294 -319 479 -319 m 374 160 q 420 170 398 160 q 457 199 443 181 l 457 610 q 400 615 425 615 q 315 594 349 615 q 263 521 281 572 q 245 384 245 470 q 260 247 245 296 q 303 179 275 198 q 374 160 331 160 m 406 1026 q 471 1001 449 1022 q 492 949 492 981 q 464 892 492 913 q 378 872 435 872 q 263 975 263 872 q 278 1053 263 1011 q 315 1128 292 1095 l 444 1128 q 406 1026 413 1066 z "},"ġ":{"ha":728,"x_min":38,"x_max":660,"o":"m 294 -319 q 190 -313 246 -319 q 89 -294 135 -306 l 89 -131 q 277 -158 186 -158 q 413 -117 369 -158 q 457 23 457 -76 l 457 79 l 447 79 q 383 15 424 38 q 288 -8 342 -8 q 164 31 221 -8 q 73 153 108 69 q 38 365 38 237 q 131 669 38 567 q 417 772 224 771 q 544 761 479 772 q 660 732 609 751 l 660 58 q 569 -230 660 -140 q 294 -319 479 -319 m 374 160 q 420 170 398 160 q 457 199 443 181 l 457 610 q 400 615 425 615 q 315 594 349 615 q 263 521 281 572 q 245 384 245 470 q 260 247 245 296 q 303 179 275 198 q 374 160 331 160 m 378 871 q 282 901 314 871 q 251 985 251 931 q 282 1070 251 1040 q 378 1101 314 1101 q 473 1070 442 1101 q 505 985 505 1040 q 473 901 505 931 q 378 871 442 871 z "},"ḡ":{"ha":728,"x_min":38,"x_max":660,"o":"m 294 -319 q 190 -313 246 -319 q 89 -294 135 -306 l 89 -131 q 277 -158 186 -158 q 413 -117 369 -158 q 457 23 457 -76 l 457 79 l 447 79 q 383 15 424 38 q 288 -8 342 -8 q 164 31 221 -8 q 73 153 108 69 q 38 365 38 237 q 131 669 38 567 q 417 772 224 771 q 544 761 479 772 q 660 732 609 751 l 660 58 q 569 -230 660 -140 q 294 -319 479 -319 m 374 160 q 420 170 398 160 q 457 199 443 181 l 457 610 q 400 615 425 615 q 315 594 349 615 q 263 521 281 572 q 245 384 245 470 q 260 247 245 296 q 303 179 275 198 q 374 160 331 160 m 152 920 l 152 1052 l 603 1052 l 603 920 l 152 920 z "},"h":{"ha":728,"x_min":68,"x_max":665,"o":"m 68 1122 l 271 1122 l 271 680 l 281 680 q 356 748 311 725 q 462 772 400 772 q 608 708 552 772 q 665 504 665 644 l 665 0 l 462 0 l 462 488 q 440 567 462 544 q 378 590 419 590 q 319 576 349 590 q 271 535 289 563 l 271 0 l 68 0 l 68 1122 z "},"ħ":{"ha":728,"x_min":1,"x_max":665,"o":"m 462 772 q 608 708 552 772 q 665 504 665 644 l 665 0 l 462 0 l 462 488 q 440 567 462 544 q 378 590 419 590 q 319 576 349 590 q 271 535 289 563 l 271 0 l 68 0 l 68 869 l 1 869 l 1 1009 l 68 1009 l 68 1122 l 271 1122 l 271 1009 l 445 1009 l 445 869 l 271 869 l 271 680 l 281 680 q 356 748 311 725 q 462 772 400 772 z "},"ḫ":{"ha":728,"x_min":68,"x_max":665,"o":"m 68 1122 l 271 1122 l 271 680 l 281 680 q 356 748 311 725 q 462 772 400 772 q 608 708 552 772 q 665 504 665 644 l 665 0 l 462 0 l 462 488 q 440 567 462 544 q 378 590 419 590 q 319 576 349 590 q 271 535 289 563 l 271 0 l 68 0 l 68 1122 m 367 -317 q 208 -260 266 -317 q 148 -101 151 -204 l 273 -101 q 298 -185 274 -158 q 367 -212 321 -212 q 435 -185 412 -212 q 460 -101 458 -158 l 585 -101 q 525 -260 583 -204 q 367 -317 467 -317 z "},"ĥ":{"ha":728,"x_min":68,"x_max":665,"o":"m 68 1122 l 271 1122 l 271 680 l 281 680 q 356 748 311 725 q 462 772 400 772 q 608 708 552 772 q 665 504 665 644 l 665 0 l 462 0 l 462 488 q 440 567 462 544 q 378 590 419 590 q 319 576 349 590 q 271 535 289 563 l 271 0 l 68 0 l 68 1122 m 588 1174 l 448 1174 l 367 1310 l 285 1174 l 145 1174 l 280 1385 l 453 1385 l 588 1174 z "},"ḥ":{"ha":728,"x_min":68,"x_max":665,"o":"m 68 1122 l 271 1122 l 271 680 l 281 680 q 356 748 311 725 q 462 772 400 772 q 608 708 552 772 q 665 504 665 644 l 665 0 l 462 0 l 462 488 q 440 567 462 544 q 378 590 419 590 q 319 576 349 590 q 271 535 289 563 l 271 0 l 68 0 l 68 1122 m 367 -308 q 285 -279 315 -308 q 254 -199 254 -250 q 285 -118 254 -147 q 367 -89 315 -89 q 449 -118 418 -89 q 479 -199 479 -147 q 449 -279 479 -250 q 367 -308 418 -308 z "},"i":{"ha":339,"x_min":42,"x_max":297,"o":"m 68 0 l 68 760 l 272 760 l 272 0 l 68 0 m 169 871 q 74 901 106 871 q 42 985 42 931 q 74 1070 42 1040 q 169 1101 106 1101 q 265 1070 233 1101 q 297 985 297 1040 q 265 901 297 931 q 169 871 233 871 z "},"ı":{"ha":339,"x_min":68,"x_max":272,"o":"m 68 0 l 68 760 l 272 760 l 272 0 l 68 0 z "},"í":{"ha":339,"x_min":68,"x_max":418,"o":"m 68 0 l 68 760 l 272 760 l 272 0 l 68 0 m 81 856 l 214 1122 l 418 1122 l 257 856 l 81 856 z "},"ĭ":{"ha":339,"x_min":-49,"x_max":388,"o":"m 68 0 l 68 760 l 272 760 l 272 0 l 68 0 m 169 865 q 15 924 72 865 q -49 1107 -43 984 l 76 1107 q 103 1004 79 1036 q 169 972 127 972 q 236 1004 213 972 q 263 1107 260 1036 l 388 1107 q 325 924 382 983 q 169 865 267 865 z "},"î":{"ha":339,"x_min":-48,"x_max":386,"o":"m 68 0 l 68 760 l 272 760 l 272 0 l 68 0 m 386 856 l 248 856 l 169 1028 l 91 856 l -48 856 l 83 1122 l 256 1122 l 386 856 z "},"ȉ":{"ha":339,"x_min":-136,"x_max":379,"o":"m 68 0 l 68 760 l 272 760 l 272 0 l 68 0 m -40 856 l -136 1122 l 30 1122 l 115 856 l -40 856 m 223 856 l 127 1122 l 293 1122 l 379 856 l 223 856 z "},"ï":{"ha":339,"x_min":-94,"x_max":433,"o":"m 68 0 l 68 760 l 272 760 l 272 0 l 68 0 m 18 876 q -64 905 -33 876 q -94 985 -94 935 q -64 1066 -94 1037 q 18 1096 -33 1096 q 100 1066 69 1096 q 131 985 131 1037 q 100 905 131 935 q 18 876 69 876 m 321 876 q 239 905 269 876 q 208 985 208 935 q 239 1066 208 1037 q 321 1096 269 1096 q 403 1066 372 1096 q 433 985 433 1037 q 403 905 433 935 q 321 876 372 876 z "},"ḯ":{"ha":339,"x_min":-94,"x_max":433,"o":"m 68 0 l 68 760 l 272 760 l 272 0 l 68 0 m 18 876 q -64 905 -33 876 q -94 985 -94 935 q -64 1066 -94 1037 q 18 1096 -33 1096 q 100 1066 69 1096 q 131 985 131 1037 q 100 905 131 935 q 18 876 69 876 m 321 876 q 239 905 269 876 q 208 985 208 935 q 239 1066 208 1037 q 321 1096 269 1096 q 403 1066 372 1096 q 433 985 433 1037 q 403 905 433 935 q 321 876 372 876 m 79 1162 l 185 1372 l 395 1372 l 259 1162 l 79 1162 z "},"ị":{"ha":339,"x_min":42,"x_max":297,"o":"m 68 0 l 68 760 l 272 760 l 272 0 l 68 0 m 169 871 q 74 901 106 871 q 42 985 42 931 q 74 1070 42 1040 q 169 1101 106 1101 q 265 1070 233 1101 q 297 985 297 1040 q 265 901 297 931 q 169 871 233 871 m 169 -308 q 88 -279 118 -308 q 57 -199 57 -250 q 88 -118 57 -147 q 169 -89 118 -89 q 251 -118 221 -89 q 282 -199 282 -147 q 251 -279 282 -250 q 169 -308 221 -308 z "},"ì":{"ha":339,"x_min":-79,"x_max":272,"o":"m 68 0 l 68 760 l 272 760 l 272 0 l 68 0 m 81 856 l -79 1122 l 125 1122 l 257 856 l 81 856 z "},"ỉ":{"ha":339,"x_min":45,"x_max":322,"o":"m 68 0 l 68 760 l 272 760 l 272 0 l 68 0 m 117 856 q 127 904 118 884 q 148 937 136 924 q 177 965 159 949 q 202 989 194 980 q 209 1010 209 998 q 150 1046 209 1046 q 45 1029 95 1046 l 45 1113 q 103 1126 69 1121 q 166 1131 136 1131 q 283 1104 244 1131 q 322 1024 322 1078 q 309 970 322 990 q 269 928 295 950 q 235 895 247 910 q 222 856 224 880 l 117 856 z "},"ȋ":{"ha":339,"x_min":-49,"x_max":388,"o":"m 68 0 l 68 760 l 272 760 l 272 0 l 68 0 m -49 876 q 14 1059 -43 1000 q 169 1118 70 1118 q 324 1059 265 1118 q 388 876 382 999 l 263 876 q 235 981 260 949 q 169 1013 211 1013 q 101 981 124 1013 q 76 876 78 949 l -49 876 z "},"ī":{"ha":339,"x_min":-56,"x_max":395,"o":"m 68 0 l 68 760 l 272 760 l 272 0 l 68 0 m -56 920 l -56 1052 l 395 1052 l 395 920 l -56 920 z "},"į":{"ha":339,"x_min":12,"x_max":297,"o":"m 169 871 q 74 901 106 871 q 42 985 42 931 q 74 1070 42 1040 q 169 1101 106 1101 q 265 1070 233 1101 q 297 985 297 1040 q 265 901 297 931 q 169 871 233 871 m 128 -153 q 149 -203 128 -185 q 206 -221 169 -221 q 292 -199 244 -221 l 292 -284 q 181 -307 240 -307 q 56 -269 99 -307 q 12 -164 12 -231 q 35 -75 12 -115 q 113 0 58 -35 l 68 0 l 68 760 l 272 760 l 272 0 q 160 -73 191 -36 q 128 -153 128 -110 z "},"ĩ":{"ha":339,"x_min":-56,"x_max":395,"o":"m 68 0 l 68 760 l 272 760 l 272 0 l 68 0 m 271 894 q 218 903 242 894 q 158 928 193 912 q 107 950 128 943 q 66 958 87 958 q 1 943 30 958 q -56 899 -27 929 l -56 1035 q -2 1075 -32 1062 q 68 1088 28 1088 q 121 1079 97 1088 q 181 1053 146 1070 q 232 1032 211 1039 q 273 1024 252 1024 q 337 1039 308 1024 q 395 1083 366 1053 l 395 948 q 341 907 371 920 q 271 894 310 894 z "},"j":{"ha":339,"x_min":-35,"x_max":297,"o":"m -35 -238 q 45 -73 23 -153 q 68 122 68 7 l 68 760 l 272 760 l 272 132 q 233 -111 272 -4 q 101 -327 194 -217 l -35 -238 m 169 871 q 74 901 106 871 q 42 985 42 931 q 74 1070 42 1040 q 169 1101 106 1101 q 265 1070 233 1101 q 297 985 297 1040 q 265 901 297 931 q 169 871 233 871 z "},"ȷ":{"ha":339,"x_min":-35,"x_max":272,"o":"m -35 -238 q 45 -73 23 -153 q 68 122 68 7 l 68 760 l 272 760 l 272 132 q 233 -111 272 -4 q 101 -327 194 -217 l -35 -238 z "},"ĵ":{"ha":339,"x_min":-48,"x_max":386,"o":"m -35 -238 q 45 -73 23 -153 q 68 122 68 7 l 68 760 l 272 760 l 272 132 q 233 -111 272 -4 q 101 -327 194 -217 l -35 -238 m 386 856 l 248 856 l 169 1028 l 91 856 l -48 856 l 83 1122 l 256 1122 l 386 856 z "},"k":{"ha":704,"x_min":68,"x_max":731,"o":"m 512 0 l 326 310 l 271 310 l 271 0 l 68 0 l 68 1122 l 271 1122 l 271 470 l 325 470 l 493 760 l 706 760 l 496 394 l 731 0 l 512 0 z "},"ķ":{"ha":704,"x_min":68,"x_max":731,"o":"m 512 0 l 326 310 l 271 310 l 271 0 l 68 0 l 68 1122 l 271 1122 l 271 470 l 325 470 l 493 760 l 706 760 l 496 394 l 731 0 l 512 0 m 381 -89 q 496 -192 496 -89 q 481 -269 496 -227 q 444 -344 466 -312 l 315 -344 q 353 -243 346 -283 q 288 -218 310 -238 q 267 -166 267 -198 q 295 -109 267 -129 q 381 -89 324 -89 z "},"ĸ":{"ha":704,"x_min":68,"x_max":731,"o":"m 512 0 l 326 310 l 271 310 l 271 0 l 68 0 l 68 760 l 271 760 l 271 470 l 325 470 l 493 760 l 706 760 l 496 394 l 731 0 l 512 0 z "},"l":{"ha":338,"x_min":68,"x_max":271,"o":"m 68 0 l 68 1122 l 271 1122 l 271 0 l 68 0 z "},"ĺ":{"ha":338,"x_min":68,"x_max":395,"o":"m 68 0 l 68 1122 l 271 1122 l 271 0 l 68 0 m 79 1174 l 185 1385 l 395 1385 l 259 1174 l 79 1174 z "},"ľ":{"ha":338,"x_min":68,"x_max":469,"o":"m 68 0 l 68 1122 l 271 1122 l 271 0 l 68 0 m 310 819 q 326 966 322 894 q 330 1122 330 1038 l 469 1122 q 457 960 469 1040 q 424 819 445 881 l 310 819 z "},"ļ":{"ha":338,"x_min":55,"x_max":284,"o":"m 68 0 l 68 1122 l 271 1122 l 271 0 l 68 0 m 169 -89 q 284 -192 284 -89 q 269 -269 284 -227 q 232 -344 254 -312 l 103 -344 q 141 -243 134 -283 q 76 -218 98 -238 q 55 -166 55 -198 q 83 -109 55 -129 q 169 -89 112 -89 z "},"ŀ":{"ha":546,"x_min":68,"x_max":568,"o":"m 68 0 l 68 1122 l 271 1122 l 271 0 l 68 0 m 441 437 q 345 467 377 437 q 313 551 313 497 q 345 636 313 606 q 441 666 377 666 q 536 636 504 666 q 568 551 568 606 q 536 467 568 497 q 441 437 504 437 z "},"ḷ":{"ha":338,"x_min":57,"x_max":282,"o":"m 68 0 l 68 1122 l 271 1122 l 271 0 l 68 0 m 169 -308 q 88 -279 118 -308 q 57 -199 57 -250 q 88 -118 57 -147 q 169 -89 118 -89 q 251 -118 221 -89 q 282 -199 282 -147 q 251 -279 282 -250 q 169 -308 221 -308 z "},"ǉ":{"ha":677,"x_min":68,"x_max":635,"o":"m 68 0 l 68 1122 l 271 1122 l 271 0 l 68 0 m 303 -238 q 384 -73 361 -153 q 406 122 406 7 l 406 760 l 610 760 l 610 132 q 571 -111 610 -4 q 439 -327 532 -217 l 303 -238 m 508 871 q 412 901 444 871 q 381 985 381 931 q 412 1070 381 1040 q 508 1101 444 1101 q 603 1070 572 1101 q 635 985 635 1040 q 603 901 635 931 q 508 871 572 871 z "},"ḻ":{"ha":338,"x_min":-50,"x_max":389,"o":"m 68 0 l 68 1122 l 271 1122 l 271 0 l 68 0 m -50 -262 l -50 -131 l 389 -131 l 389 -262 l -50 -262 z "},"ł":{"ha":387,"x_min":-21,"x_max":408,"o":"m 408 542 l 295 477 l 295 0 l 92 0 l 92 362 l 42 333 l -21 450 l 92 515 l 92 1122 l 295 1122 l 295 630 l 346 658 l 408 542 z "},"m":{"ha":1094,"x_min":68,"x_max":1031,"o":"m 815 772 q 972 708 914 772 q 1031 503 1031 644 l 1031 0 l 828 0 l 828 492 q 747 591 828 591 q 695 579 722 591 q 649 542 668 567 q 649 514 649 533 l 649 0 l 451 0 l 451 492 q 430 568 451 545 q 372 591 410 591 q 316 576 345 591 q 271 533 288 562 l 271 0 l 68 0 l 68 760 l 237 760 l 251 679 l 261 679 q 451 772 333 772 q 549 748 506 772 q 618 674 592 725 q 707 747 656 723 q 815 772 758 772 z "},"ṃ":{"ha":1094,"x_min":68,"x_max":1031,"o":"m 815 772 q 972 708 914 772 q 1031 503 1031 644 l 1031 0 l 828 0 l 828 492 q 747 591 828 591 q 695 579 722 591 q 649 542 668 567 q 649 514 649 533 l 649 0 l 451 0 l 451 492 q 430 568 451 545 q 372 591 410 591 q 316 576 345 591 q 271 533 288 562 l 271 0 l 68 0 l 68 760 l 237 760 l 251 679 l 261 679 q 451 772 333 772 q 549 748 506 772 q 618 674 592 725 q 707 747 656 723 q 815 772 758 772 m 551 -308 q 469 -279 499 -308 q 438 -199 438 -250 q 469 -118 438 -147 q 551 -89 499 -89 q 633 -118 602 -89 q 663 -199 663 -147 q 633 -279 663 -250 q 551 -308 602 -308 z "},"n":{"ha":728,"x_min":68,"x_max":665,"o":"m 68 760 l 237 760 l 251 680 l 261 680 q 451 772 333 772 q 607 708 549 772 q 665 506 665 645 l 665 0 l 462 0 l 462 490 q 440 568 462 545 q 378 591 418 591 q 318 577 348 591 q 271 535 289 563 l 271 0 l 68 0 l 68 760 z "},"ń":{"ha":728,"x_min":68,"x_max":665,"o":"m 68 760 l 237 760 l 251 680 l 261 680 q 451 772 333 772 q 607 708 549 772 q 665 506 665 645 l 665 0 l 462 0 l 462 490 q 440 568 462 545 q 378 591 418 591 q 318 577 348 591 q 271 535 289 563 l 271 0 l 68 0 l 68 760 m 278 856 l 411 1122 l 615 1122 l 454 856 l 278 856 z "},"ŉ":{"ha":728,"x_min":7,"x_max":665,"o":"m 68 760 l 237 760 l 251 680 l 261 680 q 451 772 333 772 q 607 708 549 772 q 665 506 665 645 l 665 0 l 462 0 l 462 490 q 440 568 462 545 q 378 591 418 591 q 318 577 348 591 q 271 535 289 563 l 271 0 l 68 0 l 68 760 m 121 1128 q 236 1025 236 1128 q 221 947 236 989 q 184 872 206 904 l 56 872 q 81 928 72 905 q 93 973 90 951 q 28 998 50 978 q 7 1051 7 1019 q 35 1108 7 1088 q 121 1128 64 1128 z "},"ň":{"ha":728,"x_min":68,"x_max":665,"o":"m 68 760 l 237 760 l 251 680 l 261 680 q 451 772 333 772 q 607 708 549 772 q 665 506 665 645 l 665 0 l 462 0 l 462 490 q 440 568 462 545 q 378 591 418 591 q 318 577 348 591 q 271 535 289 563 l 271 0 l 68 0 l 68 760 m 445 1122 l 583 1122 l 453 856 l 280 856 l 149 1122 l 288 1122 l 367 950 l 445 1122 z "},"ņ":{"ha":728,"x_min":68,"x_max":665,"o":"m 68 760 l 237 760 l 251 680 l 261 680 q 451 772 333 772 q 607 708 549 772 q 665 506 665 645 l 665 0 l 462 0 l 462 490 q 440 568 462 545 q 378 591 418 591 q 318 577 348 591 q 271 535 289 563 l 271 0 l 68 0 l 68 760 m 366 -89 q 481 -192 481 -89 q 466 -269 481 -227 q 429 -344 451 -312 l 301 -344 q 338 -243 331 -283 q 274 -218 295 -238 q 252 -166 252 -198 q 281 -109 252 -129 q 366 -89 309 -89 z "},"ṅ":{"ha":728,"x_min":68,"x_max":665,"o":"m 68 760 l 237 760 l 251 680 l 261 680 q 451 772 333 772 q 607 708 549 772 q 665 506 665 645 l 665 0 l 462 0 l 462 490 q 440 568 462 545 q 378 591 418 591 q 318 577 348 591 q 271 535 289 563 l 271 0 l 68 0 l 68 760 m 367 871 q 271 901 303 871 q 240 985 240 931 q 271 1070 240 1040 q 367 1101 303 1101 q 462 1070 431 1101 q 494 985 494 1040 q 462 901 494 931 q 367 871 431 871 z "},"ṇ":{"ha":728,"x_min":68,"x_max":665,"o":"m 68 760 l 237 760 l 251 680 l 261 680 q 451 772 333 772 q 607 708 549 772 q 665 506 665 645 l 665 0 l 462 0 l 462 490 q 440 568 462 545 q 378 591 418 591 q 318 577 348 591 q 271 535 289 563 l 271 0 l 68 0 l 68 760 m 367 -308 q 285 -279 315 -308 q 254 -199 254 -250 q 285 -118 254 -147 q 367 -89 315 -89 q 449 -118 418 -89 q 479 -199 479 -147 q 449 -279 479 -250 q 367 -308 418 -308 z "},"ŋ":{"ha":728,"x_min":68,"x_max":665,"o":"m 359 -238 q 439 -73 417 -153 q 462 122 462 7 l 462 492 q 440 572 462 549 q 378 596 418 596 q 319 582 349 596 q 271 540 289 567 l 271 0 l 68 0 l 68 760 l 237 760 l 251 680 l 261 680 q 451 772 335 772 q 607 708 549 772 q 665 504 665 645 l 665 124 q 625 -114 663 -8 q 494 -327 586 -219 l 359 -238 z "},"ǌ":{"ha":1067,"x_min":68,"x_max":1024,"o":"m 68 760 l 237 760 l 251 680 l 261 680 q 451 772 333 772 q 607 708 549 772 q 665 506 665 645 l 665 0 l 462 0 l 462 490 q 440 568 462 545 q 378 591 418 591 q 318 577 348 591 q 271 535 289 563 l 271 0 l 68 0 l 68 760 m 693 -238 q 773 -73 751 -153 q 796 122 796 7 l 796 760 l 999 760 l 999 132 q 960 -111 999 -4 q 828 -327 922 -217 l 693 -238 m 897 871 q 802 901 833 871 q 770 985 770 931 q 802 1070 770 1040 q 897 1101 833 1101 q 993 1070 961 1101 q 1024 985 1024 1040 q 993 901 1024 931 q 897 871 961 871 z "},"ṉ":{"ha":728,"x_min":68,"x_max":665,"o":"m 68 760 l 237 760 l 251 680 l 261 680 q 451 772 333 772 q 607 708 549 772 q 665 506 665 645 l 665 0 l 462 0 l 462 490 q 440 568 462 545 q 378 591 418 591 q 318 577 348 591 q 271 535 289 563 l 271 0 l 68 0 l 68 760 m 147 -262 l 147 -131 l 586 -131 l 586 -262 l 147 -262 z "},"ñ":{"ha":728,"x_min":68,"x_max":665,"o":"m 68 760 l 237 760 l 251 680 l 261 680 q 451 772 333 772 q 607 708 549 772 q 665 506 665 645 l 665 0 l 462 0 l 462 490 q 440 568 462 545 q 378 591 418 591 q 318 577 348 591 q 271 535 289 563 l 271 0 l 68 0 l 68 760 m 468 894 q 415 903 440 894 q 355 928 390 912 q 305 950 325 943 q 263 958 284 958 q 199 943 227 958 q 141 899 170 929 l 141 1035 q 195 1075 165 1062 q 265 1088 226 1088 q 318 1079 294 1088 q 378 1053 343 1070 q 429 1032 408 1039 q 470 1024 449 1024 q 534 1039 506 1024 q 592 1083 563 1053 l 592 948 q 538 907 568 920 q 468 894 508 894 z "},"o":{"ha":710,"x_min":38,"x_max":672,"o":"m 355 -15 q 119 81 201 -15 q 38 376 38 176 q 355 772 38 772 q 590 674 508 772 q 672 378 672 576 q 355 -15 672 -15 m 355 138 q 416 158 392 138 q 452 229 440 177 q 465 375 465 281 q 452 525 465 472 q 415 599 439 578 q 355 619 392 619 q 294 599 318 619 q 258 526 271 579 q 245 378 245 474 q 258 230 245 283 q 294 158 270 178 q 355 138 317 138 z "},"ó":{"ha":710,"x_min":38,"x_max":672,"o":"m 355 -15 q 119 81 201 -15 q 38 376 38 176 q 355 772 38 772 q 590 674 508 772 q 672 378 672 576 q 355 -15 672 -15 m 355 138 q 416 158 392 138 q 452 229 440 177 q 465 375 465 281 q 452 525 465 472 q 415 599 439 578 q 355 619 392 619 q 294 599 318 619 q 258 526 271 579 q 245 378 245 474 q 258 230 245 283 q 294 158 270 178 q 355 138 317 138 m 267 856 l 399 1122 l 603 1122 l 442 856 l 267 856 z "},"ŏ":{"ha":710,"x_min":38,"x_max":672,"o":"m 355 -15 q 119 81 201 -15 q 38 376 38 176 q 355 772 38 772 q 590 674 508 772 q 672 378 672 576 q 355 -15 672 -15 m 355 138 q 416 158 392 138 q 452 229 440 177 q 465 375 465 281 q 452 525 465 472 q 415 599 439 578 q 355 619 392 619 q 294 599 318 619 q 258 526 271 579 q 245 378 245 474 q 258 230 245 283 q 294 158 270 178 q 355 138 317 138 m 355 865 q 200 924 258 865 q 136 1107 142 984 l 261 1107 q 289 1004 265 1036 q 355 972 313 972 q 422 1004 398 972 q 449 1107 446 1036 l 574 1107 q 510 924 567 983 q 355 865 453 865 z "},"ô":{"ha":710,"x_min":38,"x_max":672,"o":"m 355 -15 q 119 81 201 -15 q 38 376 38 176 q 355 772 38 772 q 590 674 508 772 q 672 378 672 576 q 355 -15 672 -15 m 355 138 q 416 158 392 138 q 452 229 440 177 q 465 375 465 281 q 452 525 465 472 q 415 599 439 578 q 355 619 392 619 q 294 599 318 619 q 258 526 271 579 q 245 378 245 474 q 258 230 245 283 q 294 158 270 178 q 355 138 317 138 m 572 856 l 433 856 l 355 1028 l 276 856 l 138 856 l 268 1122 l 442 1122 l 572 856 z "},"ố":{"ha":710,"x_min":38,"x_max":778,"o":"m 355 -15 q 119 81 201 -15 q 38 376 38 176 q 355 772 38 772 q 590 674 508 772 q 672 378 672 576 q 355 -15 672 -15 m 355 138 q 416 158 392 138 q 452 229 440 177 q 465 375 465 281 q 452 525 465 472 q 415 599 439 578 q 355 619 392 619 q 294 599 318 619 q 258 526 271 579 q 245 378 245 474 q 258 230 245 283 q 294 158 270 178 q 355 138 317 138 m 609 1297 l 778 1297 l 642 1109 l 504 1109 l 609 1297 m 268 1122 l 442 1122 l 572 856 l 433 856 l 355 1028 l 276 856 l 138 856 l 268 1122 z "},"ộ":{"ha":710,"x_min":38,"x_max":672,"o":"m 355 -15 q 119 81 201 -15 q 38 376 38 176 q 355 772 38 772 q 590 674 508 772 q 672 378 672 576 q 355 -15 672 -15 m 355 138 q 416 158 392 138 q 452 229 440 177 q 465 375 465 281 q 452 525 465 472 q 415 599 439 578 q 355 619 392 619 q 294 599 318 619 q 258 526 271 579 q 245 378 245 474 q 258 230 245 283 q 294 158 270 178 q 355 138 317 138 m 355 -308 q 273 -279 303 -308 q 242 -199 242 -250 q 273 -118 242 -147 q 355 -89 303 -89 q 437 -118 406 -89 q 467 -199 467 -147 q 437 -279 467 -250 q 355 -308 406 -308 m 572 856 l 433 856 l 355 1028 l 276 856 l 138 856 l 268 1122 l 442 1122 l 572 856 z "},"ồ":{"ha":710,"x_min":38,"x_max":672,"o":"m 355 -15 q 119 81 201 -15 q 38 376 38 176 q 355 772 38 772 q 590 674 508 772 q 672 378 672 576 q 355 -15 672 -15 m 355 138 q 416 158 392 138 q 452 229 440 177 q 465 375 465 281 q 452 525 465 472 q 415 599 439 578 q 355 619 392 619 q 294 599 318 619 q 258 526 271 579 q 245 378 245 474 q 258 230 245 283 q 294 158 270 178 q 355 138 317 138 m 662 1109 l 524 1109 l 388 1297 l 556 1297 l 662 1109 m 268 1122 l 442 1122 l 572 856 l 433 856 l 355 1028 l 276 856 l 138 856 l 268 1122 z "},"ổ":{"ha":710,"x_min":38,"x_max":715,"o":"m 355 -15 q 119 81 201 -15 q 38 376 38 176 q 355 772 38 772 q 590 674 508 772 q 672 378 672 576 q 355 -15 672 -15 m 355 138 q 416 158 392 138 q 452 229 440 177 q 465 375 465 281 q 452 525 465 472 q 415 599 439 578 q 355 619 392 619 q 294 599 318 619 q 258 526 271 579 q 245 378 245 474 q 258 230 245 283 q 294 158 270 178 q 355 138 317 138 m 549 1310 q 674 1289 634 1310 q 715 1227 715 1269 q 700 1190 715 1203 q 656 1161 685 1177 q 618 1138 631 1149 q 602 1109 605 1126 l 498 1109 q 518 1156 500 1140 q 567 1185 536 1172 q 593 1200 585 1194 q 601 1213 601 1206 q 533 1238 601 1238 q 470 1233 503 1238 q 410 1222 438 1229 l 410 1293 q 475 1305 435 1301 q 549 1310 515 1310 m 268 1122 l 442 1122 l 572 856 l 433 856 l 355 1028 l 276 856 l 138 856 l 268 1122 z "},"ỗ":{"ha":710,"x_min":38,"x_max":672,"o":"m 355 -15 q 119 81 201 -15 q 38 376 38 176 q 355 772 38 772 q 590 674 508 772 q 672 378 672 576 q 355 -15 672 -15 m 355 138 q 416 158 392 138 q 452 229 440 177 q 465 375 465 281 q 452 525 465 472 q 415 599 439 578 q 355 619 392 619 q 294 599 318 619 q 258 526 271 579 q 245 378 245 474 q 258 230 245 283 q 294 158 270 178 q 355 138 317 138 m 464 1235 q 531 1246 501 1235 q 590 1282 560 1258 l 590 1169 q 535 1136 566 1147 q 463 1125 504 1125 q 407 1132 433 1125 q 343 1151 381 1138 q 290 1169 311 1163 q 245 1174 268 1174 q 178 1163 208 1174 q 119 1128 149 1152 l 119 1240 q 175 1274 144 1263 q 247 1285 206 1285 q 303 1278 277 1285 q 367 1258 330 1272 q 419 1241 397 1247 q 464 1235 442 1235 m 268 1084 l 442 1084 l 572 857 l 433 857 l 355 1007 l 276 857 l 138 857 l 268 1084 z "},"ȍ":{"ha":710,"x_min":38,"x_max":672,"o":"m 355 -15 q 119 81 201 -15 q 38 376 38 176 q 355 772 38 772 q 590 674 508 772 q 672 378 672 576 q 355 -15 672 -15 m 355 138 q 416 158 392 138 q 452 229 440 177 q 465 375 465 281 q 452 525 465 472 q 415 599 439 578 q 355 619 392 619 q 294 599 318 619 q 258 526 271 579 q 245 378 245 474 q 258 230 245 283 q 294 158 270 178 q 355 138 317 138 m 145 856 l 49 1122 l 215 1122 l 301 856 l 145 856 m 408 856 l 313 1122 l 478 1122 l 565 856 l 408 856 z "},"ö":{"ha":710,"x_min":38,"x_max":672,"o":"m 355 -15 q 119 81 201 -15 q 38 376 38 176 q 355 772 38 772 q 590 674 508 772 q 672 378 672 576 q 355 -15 672 -15 m 355 138 q 416 158 392 138 q 452 229 440 177 q 465 375 465 281 q 452 525 465 472 q 415 599 439 578 q 355 619 392 619 q 294 599 318 619 q 258 526 271 579 q 245 378 245 474 q 258 230 245 283 q 294 158 270 178 q 355 138 317 138 m 203 876 q 122 905 152 876 q 91 985 91 935 q 122 1066 91 1037 q 203 1096 152 1096 q 285 1066 255 1096 q 316 985 316 1037 q 285 905 316 935 q 203 876 255 876 m 506 876 q 424 905 455 876 q 394 985 394 935 q 424 1066 394 1037 q 506 1096 455 1096 q 588 1066 558 1096 q 619 985 619 1037 q 588 905 619 935 q 506 876 558 876 z "},"ȫ":{"ha":710,"x_min":38,"x_max":672,"o":"m 355 -15 q 119 81 201 -15 q 38 376 38 176 q 355 772 38 772 q 590 674 508 772 q 672 378 672 576 q 355 -15 672 -15 m 355 138 q 416 158 392 138 q 452 229 440 177 q 465 375 465 281 q 452 525 465 472 q 415 599 439 578 q 355 619 392 619 q 294 599 318 619 q 258 526 271 579 q 245 378 245 474 q 258 230 245 283 q 294 158 270 178 q 355 138 317 138 m 203 876 q 122 905 152 876 q 91 985 91 935 q 122 1066 91 1037 q 203 1096 152 1096 q 285 1066 255 1096 q 316 985 316 1037 q 285 905 316 935 q 203 876 255 876 m 506 876 q 424 905 455 876 q 394 985 394 935 q 424 1066 394 1037 q 506 1096 455 1096 q 588 1066 558 1096 q 619 985 619 1037 q 588 905 619 935 q 506 876 558 876 m 129 1197 l 129 1328 l 581 1328 l 581 1197 l 129 1197 z "},"ȱ":{"ha":710,"x_min":38,"x_max":672,"o":"m 355 -15 q 119 81 201 -15 q 38 376 38 176 q 355 772 38 772 q 590 674 508 772 q 672 378 672 576 q 355 -15 672 -15 m 355 138 q 416 158 392 138 q 452 229 440 177 q 465 375 465 281 q 452 525 465 472 q 415 599 439 578 q 355 619 392 619 q 294 599 318 619 q 258 526 271 579 q 245 378 245 474 q 258 230 245 283 q 294 158 270 178 q 355 138 317 138 m 355 871 q 259 901 291 871 q 228 985 228 931 q 259 1070 228 1040 q 355 1101 291 1101 q 450 1070 419 1101 q 482 985 482 1040 q 450 901 482 931 q 355 871 419 871 m 129 1180 l 129 1312 l 581 1312 l 581 1180 l 129 1180 z "},"ọ":{"ha":710,"x_min":38,"x_max":672,"o":"m 355 -15 q 119 81 201 -15 q 38 376 38 176 q 355 772 38 772 q 590 674 508 772 q 672 378 672 576 q 355 -15 672 -15 m 355 138 q 416 158 392 138 q 452 229 440 177 q 465 375 465 281 q 452 525 465 472 q 415 599 439 578 q 355 619 392 619 q 294 599 318 619 q 258 526 271 579 q 245 378 245 474 q 258 230 245 283 q 294 158 270 178 q 355 138 317 138 m 355 -308 q 273 -279 303 -308 q 242 -199 242 -250 q 273 -118 242 -147 q 355 -89 303 -89 q 437 -118 406 -89 q 467 -199 467 -147 q 437 -279 467 -250 q 355 -308 406 -308 z "},"ò":{"ha":710,"x_min":38,"x_max":672,"o":"m 355 -15 q 119 81 201 -15 q 38 376 38 176 q 355 772 38 772 q 590 674 508 772 q 672 378 672 576 q 355 -15 672 -15 m 355 138 q 416 158 392 138 q 452 229 440 177 q 465 375 465 281 q 452 525 465 472 q 415 599 439 578 q 355 619 392 619 q 294 599 318 619 q 258 526 271 579 q 245 378 245 474 q 258 230 245 283 q 294 158 270 178 q 355 138 317 138 m 267 856 l 106 1122 l 310 1122 l 442 856 l 267 856 z "},"ỏ":{"ha":710,"x_min":38,"x_max":672,"o":"m 355 -15 q 119 81 201 -15 q 38 376 38 176 q 355 772 38 772 q 590 674 508 772 q 672 378 672 576 q 355 -15 672 -15 m 355 138 q 416 158 392 138 q 452 229 440 177 q 465 375 465 281 q 452 525 465 472 q 415 599 439 578 q 355 619 392 619 q 294 599 318 619 q 258 526 271 579 q 245 378 245 474 q 258 230 245 283 q 294 158 270 178 q 355 138 317 138 m 302 856 q 313 904 303 884 q 333 937 322 924 q 363 965 344 949 q 387 989 380 980 q 394 1010 394 998 q 335 1046 394 1046 q 231 1029 281 1046 l 231 1113 q 288 1126 255 1121 q 351 1131 322 1131 q 469 1104 430 1131 q 508 1024 508 1078 q 494 970 508 990 q 454 928 481 950 q 420 895 432 910 q 407 856 409 880 l 302 856 z "},"ơ":{"ha":710,"x_min":38,"x_max":699,"o":"m 699 862 q 669 744 699 789 q 583 680 638 699 q 672 378 672 581 q 355 -15 672 -15 q 119 81 201 -15 q 38 376 38 176 q 355 772 38 772 q 419 768 371 772 q 456 766 442 766 q 535 791 508 766 q 563 874 563 817 q 551 969 563 917 l 684 969 q 699 862 699 923 m 355 138 q 416 158 392 138 q 452 229 440 177 q 465 375 465 281 q 452 525 465 472 q 415 599 439 578 q 355 619 392 619 q 294 599 318 619 q 258 526 271 579 q 245 378 245 474 q 258 230 245 283 q 294 158 270 178 q 355 138 317 138 z "},"ớ":{"ha":710,"x_min":38,"x_max":699,"o":"m 567 1122 l 424 856 l 266 856 l 385 1122 l 567 1122 m 699 862 q 669 744 699 789 q 583 680 638 699 q 672 378 672 581 q 355 -15 672 -15 q 119 81 201 -15 q 38 376 38 176 q 355 772 38 772 q 419 768 371 772 q 456 766 442 766 q 535 791 508 766 q 563 874 563 817 q 551 969 563 917 l 684 969 q 699 862 699 923 m 355 138 q 416 158 392 138 q 452 229 440 177 q 465 375 465 281 q 452 525 465 472 q 415 599 439 578 q 355 619 392 619 q 294 599 318 619 q 258 526 271 579 q 245 378 245 474 q 258 230 245 283 q 294 158 270 178 q 355 138 317 138 z "},"ợ":{"ha":710,"x_min":38,"x_max":699,"o":"m 699 862 q 669 744 699 789 q 583 680 638 699 q 672 378 672 581 q 355 -15 672 -15 q 119 81 201 -15 q 38 376 38 176 q 355 772 38 772 q 419 768 371 772 q 456 766 442 766 q 535 791 508 766 q 563 874 563 817 q 551 969 563 917 l 684 969 q 699 862 699 923 m 355 138 q 416 158 392 138 q 452 229 440 177 q 465 375 465 281 q 452 525 465 472 q 415 599 439 578 q 355 619 392 619 q 294 599 318 619 q 258 526 271 579 q 245 378 245 474 q 258 230 245 283 q 294 158 270 178 q 355 138 317 138 m 355 -308 q 273 -279 303 -308 q 242 -199 242 -250 q 273 -118 242 -147 q 355 -89 303 -89 q 437 -118 406 -89 q 467 -199 467 -147 q 437 -279 467 -250 q 355 -308 406 -308 z "},"ờ":{"ha":710,"x_min":38,"x_max":699,"o":"m 699 862 q 669 744 699 789 q 583 680 638 699 q 672 378 672 581 q 355 -15 672 -15 q 119 81 201 -15 q 38 376 38 176 q 355 772 38 772 q 419 768 371 772 q 456 766 442 766 q 535 791 508 766 q 563 874 563 817 q 551 969 563 917 l 684 969 q 699 862 699 923 m 355 138 q 416 158 392 138 q 452 229 440 177 q 465 375 465 281 q 452 525 465 472 q 415 599 439 578 q 355 619 392 619 q 294 599 318 619 q 258 526 271 579 q 245 378 245 474 q 258 230 245 283 q 294 158 270 178 q 355 138 317 138 m 257 856 l 97 1122 l 301 1122 l 433 856 l 257 856 z "},"ở":{"ha":710,"x_min":38,"x_max":699,"o":"m 699 862 q 669 744 699 789 q 583 680 638 699 q 672 378 672 581 q 355 -15 672 -15 q 119 81 201 -15 q 38 376 38 176 q 355 772 38 772 q 419 768 371 772 q 456 766 442 766 q 535 791 508 766 q 563 874 563 817 q 551 969 563 917 l 684 969 q 699 862 699 923 m 355 138 q 416 158 392 138 q 452 229 440 177 q 465 375 465 281 q 452 525 465 472 q 415 599 439 578 q 355 619 392 619 q 294 599 318 619 q 258 526 271 579 q 245 378 245 474 q 258 230 245 283 q 294 158 270 178 q 355 138 317 138 m 292 856 q 303 904 294 884 q 323 937 312 924 q 353 965 335 949 q 377 989 370 980 q 385 1010 385 998 q 326 1046 385 1046 q 221 1029 271 1046 l 221 1113 q 278 1126 245 1121 q 342 1131 312 1131 q 459 1104 420 1131 q 498 1024 498 1078 q 484 970 498 990 q 444 928 471 950 q 411 895 422 910 q 397 856 399 880 l 292 856 z "},"ỡ":{"ha":710,"x_min":38,"x_max":699,"o":"m 232 958 q 175 943 203 958 q 119 899 148 929 l 119 1035 q 234 1088 167 1088 q 284 1079 262 1088 q 336 1053 307 1070 q 382 1031 365 1038 q 419 1024 399 1024 q 475 1039 448 1024 q 531 1083 503 1053 l 531 948 q 417 894 484 894 q 366 903 389 894 q 314 928 344 912 q 271 950 289 943 q 232 958 253 958 m 699 862 q 669 744 699 789 q 583 680 638 699 q 672 378 672 581 q 355 -15 672 -15 q 119 81 201 -15 q 38 376 38 176 q 355 772 38 772 q 419 768 371 772 q 456 766 442 766 q 535 791 508 766 q 563 874 563 817 q 551 969 563 917 l 684 969 q 699 862 699 923 m 355 138 q 416 158 392 138 q 452 229 440 177 q 465 375 465 281 q 452 525 465 472 q 415 599 439 578 q 355 619 392 619 q 294 599 318 619 q 258 526 271 579 q 245 378 245 474 q 258 230 245 283 q 294 158 270 178 q 355 138 317 138 z "},"ő":{"ha":710,"x_min":38,"x_max":672,"o":"m 355 -15 q 119 81 201 -15 q 38 376 38 176 q 355 772 38 772 q 590 674 508 772 q 672 378 672 576 q 355 -15 672 -15 m 355 138 q 416 158 392 138 q 452 229 440 177 q 465 375 465 281 q 452 525 465 472 q 415 599 439 578 q 355 619 392 619 q 294 599 318 619 q 258 526 271 579 q 245 378 245 474 q 258 230 245 283 q 294 158 270 178 q 355 138 317 138 m 146 856 l 232 1122 l 397 1122 l 301 856 l 146 856 m 408 856 l 494 1122 l 660 1122 l 564 856 l 408 856 z "},"ȏ":{"ha":710,"x_min":38,"x_max":672,"o":"m 355 -15 q 119 81 201 -15 q 38 376 38 176 q 355 772 38 772 q 590 674 508 772 q 672 378 672 576 q 355 -15 672 -15 m 355 138 q 416 158 392 138 q 452 229 440 177 q 465 375 465 281 q 452 525 465 472 q 415 599 439 578 q 355 619 392 619 q 294 599 318 619 q 258 526 271 579 q 245 378 245 474 q 258 230 245 283 q 294 158 270 178 q 355 138 317 138 m 136 876 q 199 1059 142 1000 q 354 1118 256 1118 q 509 1059 451 1118 q 574 876 567 999 l 449 876 q 421 981 445 949 q 354 1013 397 1013 q 286 981 309 1013 q 261 876 264 949 l 136 876 z "},"ō":{"ha":710,"x_min":38,"x_max":672,"o":"m 355 -15 q 119 81 201 -15 q 38 376 38 176 q 355 772 38 772 q 590 674 508 772 q 672 378 672 576 q 355 -15 672 -15 m 355 138 q 416 158 392 138 q 452 229 440 177 q 465 375 465 281 q 452 525 465 472 q 415 599 439 578 q 355 619 392 619 q 294 599 318 619 q 258 526 271 579 q 245 378 245 474 q 258 230 245 283 q 294 158 270 178 q 355 138 317 138 m 129 920 l 129 1052 l 581 1052 l 581 920 l 129 920 z "},"ṓ":{"ha":710,"x_min":38,"x_max":672,"o":"m 355 -15 q 119 81 201 -15 q 38 376 38 176 q 355 772 38 772 q 590 674 508 772 q 672 378 672 576 q 355 -15 672 -15 m 355 138 q 416 158 392 138 q 452 229 440 177 q 465 375 465 281 q 452 525 465 472 q 415 599 439 578 q 355 619 392 619 q 294 599 318 619 q 258 526 271 579 q 245 378 245 474 q 258 230 245 283 q 294 158 270 178 q 355 138 317 138 m 129 920 l 129 1052 l 581 1052 l 581 920 l 129 920 m 265 1162 l 370 1372 l 581 1372 l 444 1162 l 265 1162 z "},"ṑ":{"ha":710,"x_min":38,"x_max":672,"o":"m 355 -15 q 119 81 201 -15 q 38 376 38 176 q 355 772 38 772 q 590 674 508 772 q 672 378 672 576 q 355 -15 672 -15 m 355 138 q 416 158 392 138 q 452 229 440 177 q 465 375 465 281 q 452 525 465 472 q 415 599 439 578 q 355 619 392 619 q 294 599 318 619 q 258 526 271 579 q 245 378 245 474 q 258 230 245 283 q 294 158 270 178 q 355 138 317 138 m 129 920 l 129 1052 l 581 1052 l 581 920 l 129 920 m 265 1162 l 128 1372 l 339 1372 l 444 1162 l 265 1162 z "},"ǫ":{"ha":710,"x_min":38,"x_max":672,"o":"m 489 8 q 371 -66 403 -28 q 338 -149 338 -104 q 358 -202 338 -183 q 416 -221 378 -221 q 497 -202 453 -221 l 501 -285 q 450 -301 476 -296 q 391 -307 424 -307 q 265 -269 309 -307 q 222 -164 222 -232 q 242 -80 222 -117 q 306 -12 262 -43 q 106 98 175 3 q 38 376 38 194 q 355 772 38 772 q 590 674 508 772 q 672 378 672 576 q 627 135 672 225 q 489 8 581 46 m 245 378 q 258 230 245 283 q 294 158 270 178 q 355 138 317 138 q 416 158 392 138 q 452 229 440 177 q 465 375 465 281 q 452 525 465 472 q 415 599 439 578 q 355 619 392 619 q 294 599 318 619 q 258 526 271 579 q 245 378 245 474 z "},"ø":{"ha":710,"x_min":38,"x_max":672,"o":"m 601 660 q 672 378 672 560 q 355 -15 672 -15 q 188 24 255 -15 l 150 -33 l 56 28 l 104 101 q 38 376 38 198 q 355 772 38 772 q 517 735 450 772 l 554 793 l 648 731 l 601 660 m 355 624 q 289 603 315 624 q 249 528 263 582 q 235 378 235 474 q 239 286 235 326 l 435 588 q 400 615 420 607 q 355 624 381 624 m 355 134 q 422 154 396 134 q 461 227 447 174 q 475 375 475 280 q 469 480 475 433 l 271 174 q 306 143 285 152 q 355 134 326 134 z "},"ǿ":{"ha":710,"x_min":38,"x_max":672,"o":"m 601 660 q 672 378 672 560 q 355 -15 672 -15 q 188 24 255 -15 l 150 -33 l 56 28 l 104 101 q 38 376 38 198 q 355 772 38 772 q 517 735 450 772 l 554 793 l 648 731 l 601 660 m 355 624 q 289 603 315 624 q 249 528 263 582 q 235 378 235 474 q 239 286 235 326 l 435 588 q 400 615 420 607 q 355 624 381 624 m 355 134 q 422 154 396 134 q 461 227 447 174 q 475 375 475 280 q 469 480 475 433 l 271 174 q 306 143 285 152 q 355 134 326 134 m 267 856 l 399 1122 l 603 1122 l 442 856 l 267 856 z "},"õ":{"ha":710,"x_min":38,"x_max":672,"o":"m 355 -15 q 119 81 201 -15 q 38 376 38 176 q 355 772 38 772 q 590 674 508 772 q 672 378 672 576 q 355 -15 672 -15 m 355 138 q 416 158 392 138 q 452 229 440 177 q 465 375 465 281 q 452 525 465 472 q 415 599 439 578 q 355 619 392 619 q 294 599 318 619 q 258 526 271 579 q 245 378 245 474 q 258 230 245 283 q 294 158 270 178 q 355 138 317 138 m 456 894 q 403 903 428 894 q 343 928 378 912 q 293 950 313 943 q 251 958 272 958 q 187 943 215 958 q 129 899 158 929 l 129 1035 q 184 1075 153 1062 q 253 1088 214 1088 q 307 1079 282 1088 q 367 1053 331 1070 q 417 1032 397 1039 q 458 1024 438 1024 q 523 1039 494 1024 q 581 1083 551 1053 l 581 948 q 526 907 556 920 q 456 894 496 894 z "},"ṍ":{"ha":710,"x_min":38,"x_max":672,"o":"m 355 -15 q 119 81 201 -15 q 38 376 38 176 q 355 772 38 772 q 590 674 508 772 q 672 378 672 576 q 355 -15 672 -15 m 355 138 q 416 158 392 138 q 452 229 440 177 q 465 375 465 281 q 452 525 465 472 q 415 599 439 578 q 355 619 392 619 q 294 599 318 619 q 258 526 271 579 q 245 378 245 474 q 258 230 245 283 q 294 158 270 178 q 355 138 317 138 m 456 894 q 403 903 428 894 q 343 928 378 912 q 293 950 313 943 q 251 958 272 958 q 187 943 215 958 q 129 899 158 929 l 129 1035 q 184 1075 153 1062 q 253 1088 214 1088 q 307 1079 282 1088 q 367 1053 331 1070 q 417 1032 397 1039 q 458 1024 438 1024 q 523 1039 494 1024 q 581 1083 551 1053 l 581 948 q 526 907 556 920 q 456 894 496 894 m 265 1162 l 370 1372 l 581 1372 l 444 1162 l 265 1162 z "},"ṏ":{"ha":710,"x_min":38,"x_max":672,"o":"m 355 -15 q 119 81 201 -15 q 38 376 38 176 q 355 772 38 772 q 590 674 508 772 q 672 378 672 576 q 355 -15 672 -15 m 355 138 q 416 158 392 138 q 452 229 440 177 q 465 375 465 281 q 452 525 465 472 q 415 599 439 578 q 355 619 392 619 q 294 599 318 619 q 258 526 271 579 q 245 378 245 474 q 258 230 245 283 q 294 158 270 178 q 355 138 317 138 m 456 894 q 403 903 428 894 q 343 928 378 912 q 293 950 313 943 q 251 958 272 958 q 187 943 215 958 q 129 899 158 929 l 129 1035 q 184 1075 153 1062 q 253 1088 214 1088 q 307 1079 282 1088 q 367 1053 331 1070 q 417 1032 397 1039 q 458 1024 438 1024 q 523 1039 494 1024 q 581 1083 551 1053 l 581 948 q 526 907 556 920 q 456 894 496 894 m 203 1152 q 122 1182 152 1152 q 91 1262 91 1211 q 122 1343 91 1313 q 203 1372 152 1372 q 285 1343 255 1372 q 316 1262 316 1313 q 285 1182 316 1211 q 203 1152 255 1152 m 506 1152 q 424 1182 455 1152 q 394 1262 394 1211 q 424 1343 394 1313 q 506 1372 455 1372 q 588 1343 558 1372 q 619 1262 619 1313 q 588 1182 619 1211 q 506 1152 558 1152 z "},"ȭ":{"ha":710,"x_min":38,"x_max":672,"o":"m 355 -15 q 119 81 201 -15 q 38 376 38 176 q 355 772 38 772 q 590 674 508 772 q 672 378 672 576 q 355 -15 672 -15 m 355 138 q 416 158 392 138 q 452 229 440 177 q 465 375 465 281 q 452 525 465 472 q 415 599 439 578 q 355 619 392 619 q 294 599 318 619 q 258 526 271 579 q 245 378 245 474 q 258 230 245 283 q 294 158 270 178 q 355 138 317 138 m 456 894 q 403 903 428 894 q 343 928 378 912 q 293 950 313 943 q 251 958 272 958 q 187 943 215 958 q 129 899 158 929 l 129 1035 q 184 1075 153 1062 q 253 1088 214 1088 q 307 1079 282 1088 q 367 1053 331 1070 q 417 1032 397 1039 q 458 1024 438 1024 q 523 1039 494 1024 q 581 1083 551 1053 l 581 948 q 526 907 556 920 q 456 894 496 894 m 129 1197 l 129 1328 l 581 1328 l 581 1197 l 129 1197 z "},"œ":{"ha":1084,"x_min":38,"x_max":1053,"o":"m 1053 317 l 671 317 q 692 216 674 253 q 748 164 710 180 q 850 149 785 149 q 1017 174 920 149 l 1017 11 q 918 -8 963 -2 q 826 -15 872 -15 q 664 10 729 -15 q 558 85 598 34 q 344 -15 485 -15 q 118 82 198 -15 q 38 376 38 178 q 117 675 38 578 q 344 772 197 772 q 568 653 494 772 q 655 742 601 712 q 780 772 708 772 q 981 674 909 772 q 1053 377 1053 576 l 1053 317 m 769 638 q 716 620 737 638 q 683 561 694 603 q 670 442 671 518 l 864 442 q 852 561 863 519 q 820 621 841 604 q 769 638 800 638 m 354 138 q 415 158 392 138 q 451 229 438 177 q 463 375 463 281 q 450 525 463 472 q 414 599 438 578 q 354 619 390 619 q 294 599 318 619 q 258 526 271 579 q 245 378 245 474 q 258 230 245 283 q 293 158 270 178 q 354 138 317 138 z "},"p":{"ha":728,"x_min":68,"x_max":690,"o":"m 68 760 l 240 760 l 253 677 l 263 677 q 328 746 286 721 q 426 772 369 772 q 559 732 499 772 q 655 608 619 693 q 690 393 690 523 q 597 89 690 190 q 310 -13 504 -13 q 271 -11 290 -13 l 271 -306 l 68 -306 l 68 760 m 326 143 q 413 165 379 143 q 465 237 447 186 q 483 374 483 288 q 468 514 483 464 q 426 582 453 563 q 360 601 399 601 q 309 590 333 601 q 271 558 285 578 l 271 148 q 326 143 299 143 z "},"þ":{"ha":728,"x_min":68,"x_max":690,"o":"m 68 1122 l 271 1122 l 271 684 l 281 684 q 345 749 304 726 q 440 772 385 772 q 566 732 510 772 q 657 608 623 692 q 690 393 690 523 q 597 89 690 190 q 310 -13 504 -13 q 271 -11 290 -13 l 271 -306 l 68 -306 l 68 1122 m 326 143 q 413 165 379 143 q 465 237 447 186 q 483 374 483 288 q 467 513 483 463 q 424 581 452 563 q 355 600 397 600 q 308 590 331 600 q 271 562 285 580 l 271 148 q 326 143 299 143 z "},"q":{"ha":728,"x_min":38,"x_max":660,"o":"m 457 74 l 447 74 q 383 10 424 33 q 288 -13 342 -13 q 161 26 218 -13 q 71 151 105 66 q 38 367 38 236 q 131 670 38 569 q 417 772 224 772 q 544 761 479 772 q 660 732 609 751 l 660 -306 l 457 -306 l 457 74 m 374 158 q 420 168 398 158 q 457 197 443 178 l 457 610 q 400 615 425 615 q 315 594 349 615 q 263 522 281 572 q 245 385 245 471 q 260 245 245 295 q 303 177 276 196 q 374 158 331 158 z "},"r":{"ha":497,"x_min":68,"x_max":490,"o":"m 68 760 l 235 760 l 251 654 l 260 654 q 439 770 310 770 q 490 765 467 770 l 490 576 q 426 582 462 582 q 335 562 378 582 q 271 508 293 542 l 271 0 l 68 0 l 68 760 z "},"ŕ":{"ha":497,"x_min":68,"x_max":522,"o":"m 68 760 l 235 760 l 251 654 l 260 654 q 439 770 310 770 q 490 765 467 770 l 490 576 q 426 582 462 582 q 335 562 378 582 q 271 508 293 542 l 271 0 l 68 0 l 68 760 m 185 856 l 318 1122 l 522 1122 l 361 856 l 185 856 z "},"ř":{"ha":497,"x_min":56,"x_max":490,"o":"m 68 760 l 235 760 l 251 654 l 260 654 q 439 770 310 770 q 490 765 467 770 l 490 576 q 426 582 462 582 q 335 562 378 582 q 271 508 293 542 l 271 0 l 68 0 l 68 760 m 352 1122 l 490 1122 l 360 856 l 187 856 l 56 1122 l 195 1122 l 274 950 l 352 1122 z "},"ŗ":{"ha":497,"x_min":55,"x_max":490,"o":"m 68 760 l 235 760 l 251 654 l 260 654 q 439 770 310 770 q 490 765 467 770 l 490 576 q 426 582 462 582 q 335 562 378 582 q 271 508 293 542 l 271 0 l 68 0 l 68 760 m 169 -89 q 284 -192 284 -89 q 269 -269 284 -227 q 232 -344 254 -312 l 103 -344 q 141 -243 134 -283 q 76 -218 98 -238 q 55 -166 55 -198 q 83 -109 55 -129 q 169 -89 112 -89 z "},"ȑ":{"ha":497,"x_min":-32,"x_max":490,"o":"m 68 760 l 235 760 l 251 654 l 260 654 q 439 770 310 770 q 490 765 467 770 l 490 576 q 426 582 462 582 q 335 562 378 582 q 271 508 293 542 l 271 0 l 68 0 l 68 760 m 64 856 l -32 1122 l 134 1122 l 219 856 l 64 856 m 327 856 l 231 1122 l 397 1122 l 483 856 l 327 856 z "},"ṛ":{"ha":497,"x_min":57,"x_max":490,"o":"m 68 760 l 235 760 l 251 654 l 260 654 q 439 770 310 770 q 490 765 467 770 l 490 576 q 426 582 462 582 q 335 562 378 582 q 271 508 293 542 l 271 0 l 68 0 l 68 760 m 169 -308 q 88 -279 118 -308 q 57 -199 57 -250 q 88 -118 57 -147 q 169 -89 118 -89 q 251 -118 221 -89 q 282 -199 282 -147 q 251 -279 282 -250 q 169 -308 221 -308 z "},"ȓ":{"ha":497,"x_min":55,"x_max":492,"o":"m 68 760 l 235 760 l 251 654 l 260 654 q 439 770 310 770 q 490 765 467 770 l 490 576 q 426 582 462 582 q 335 562 378 582 q 271 508 293 542 l 271 0 l 68 0 l 68 760 m 55 876 q 118 1059 61 1000 q 273 1118 174 1118 q 428 1059 369 1118 q 492 876 486 999 l 367 876 q 340 981 364 949 q 273 1013 315 1013 q 205 981 228 1013 q 180 876 183 949 l 55 876 z "},"ṟ":{"ha":497,"x_min":-50,"x_max":490,"o":"m 68 760 l 235 760 l 251 654 l 260 654 q 439 770 310 770 q 490 765 467 770 l 490 576 q 426 582 462 582 q 335 562 378 582 q 271 508 293 542 l 271 0 l 68 0 l 68 760 m -50 -262 l -50 -131 l 389 -131 l 389 -262 l -50 -262 z "},"s":{"ha":565,"x_min":28,"x_max":544,"o":"m 248 -15 q 51 17 140 -15 l 51 178 q 244 147 145 147 q 359 224 359 147 q 344 268 359 252 q 299 292 330 284 l 202 316 q 72 391 115 338 q 28 533 28 444 q 64 659 28 605 q 168 742 99 713 q 337 772 238 772 q 503 753 426 772 l 503 591 q 348 610 428 610 q 245 589 276 610 q 213 533 213 567 q 227 492 213 507 q 272 469 242 477 l 369 444 q 501 370 458 422 q 544 228 544 319 q 508 99 544 153 q 405 15 472 44 q 248 -15 338 -15 z "},"ś":{"ha":565,"x_min":28,"x_max":544,"o":"m 248 -15 q 51 17 140 -15 l 51 178 q 244 147 145 147 q 359 224 359 147 q 344 268 359 252 q 299 292 330 284 l 202 316 q 72 391 115 338 q 28 533 28 444 q 64 659 28 605 q 168 742 99 713 q 337 772 238 772 q 503 753 426 772 l 503 591 q 348 610 428 610 q 245 589 276 610 q 213 533 213 567 q 227 492 213 507 q 272 469 242 477 l 369 444 q 501 370 458 422 q 544 228 544 319 q 508 99 544 153 q 405 15 472 44 q 248 -15 338 -15 m 193 856 l 326 1122 l 530 1122 l 369 856 l 193 856 z "},"ṥ":{"ha":565,"x_min":28,"x_max":544,"o":"m 248 -15 q 51 17 140 -15 l 51 178 q 244 147 145 147 q 359 224 359 147 q 344 268 359 252 q 299 292 330 284 l 202 316 q 72 391 115 338 q 28 533 28 444 q 64 659 28 605 q 168 742 99 713 q 337 772 238 772 q 503 753 426 772 l 503 591 q 348 610 428 610 q 245 589 276 610 q 213 533 213 567 q 227 492 213 507 q 272 469 242 477 l 369 444 q 501 370 458 422 q 544 228 544 319 q 508 99 544 153 q 405 15 472 44 q 248 -15 338 -15 m 175 1094 q 98 1116 126 1094 q 70 1178 70 1137 q 98 1240 70 1219 q 175 1261 126 1261 q 252 1240 224 1261 q 280 1178 280 1219 q 252 1116 280 1137 q 175 1094 224 1094 m 193 856 l 326 1122 l 530 1122 l 369 856 l 193 856 z "},"š":{"ha":565,"x_min":28,"x_max":544,"o":"m 248 -15 q 51 17 140 -15 l 51 178 q 244 147 145 147 q 359 224 359 147 q 344 268 359 252 q 299 292 330 284 l 202 316 q 72 391 115 338 q 28 533 28 444 q 64 659 28 605 q 168 742 99 713 q 337 772 238 772 q 503 753 426 772 l 503 591 q 348 610 428 610 q 245 589 276 610 q 213 533 213 567 q 227 492 213 507 q 272 469 242 477 l 369 444 q 501 370 458 422 q 544 228 544 319 q 508 99 544 153 q 405 15 472 44 q 248 -15 338 -15 m 360 1122 l 498 1122 l 368 856 l 194 856 l 64 1122 l 203 1122 l 281 950 l 360 1122 z "},"ṧ":{"ha":565,"x_min":28,"x_max":544,"o":"m 248 -15 q 51 17 140 -15 l 51 178 q 244 147 145 147 q 359 224 359 147 q 344 268 359 252 q 299 292 330 284 l 202 316 q 72 391 115 338 q 28 533 28 444 q 64 659 28 605 q 168 742 99 713 q 337 772 238 772 q 503 753 426 772 l 503 591 q 348 610 428 610 q 245 589 276 610 q 213 533 213 567 q 227 492 213 507 q 272 469 242 477 l 369 444 q 501 370 458 422 q 544 228 544 319 q 508 99 544 153 q 405 15 472 44 q 248 -15 338 -15 m 281 1142 q 204 1163 232 1142 q 176 1224 176 1183 q 204 1287 176 1265 q 281 1308 232 1308 q 358 1287 331 1308 q 386 1224 386 1265 q 358 1163 386 1183 q 281 1142 331 1142 m 360 1122 l 498 1122 l 368 856 l 194 856 l 64 1122 l 203 1122 l 281 950 l 360 1122 z "},"ş":{"ha":565,"x_min":28,"x_max":544,"o":"m 544 228 q 490 75 544 136 q 339 -6 435 14 l 339 -62 q 416 -103 389 -72 q 444 -181 444 -133 q 402 -274 444 -240 q 274 -307 360 -307 q 162 -287 214 -307 l 162 -203 q 265 -223 213 -223 q 316 -211 299 -223 q 332 -174 332 -200 q 263 -121 332 -121 l 237 -121 l 237 -15 q 51 17 134 -12 l 51 178 q 244 147 145 147 q 359 224 359 147 q 344 268 359 252 q 299 292 330 284 l 202 316 q 72 391 115 338 q 28 533 28 444 q 64 659 28 605 q 168 742 99 713 q 337 772 238 772 q 503 753 426 772 l 503 591 q 348 610 428 610 q 245 589 276 610 q 213 533 213 567 q 227 492 213 507 q 272 469 242 477 l 369 444 q 501 370 458 422 q 544 228 544 319 z "},"ŝ":{"ha":565,"x_min":28,"x_max":544,"o":"m 248 -15 q 51 17 140 -15 l 51 178 q 244 147 145 147 q 359 224 359 147 q 344 268 359 252 q 299 292 330 284 l 202 316 q 72 391 115 338 q 28 533 28 444 q 64 659 28 605 q 168 742 99 713 q 337 772 238 772 q 503 753 426 772 l 503 591 q 348 610 428 610 q 245 589 276 610 q 213 533 213 567 q 227 492 213 507 q 272 469 242 477 l 369 444 q 501 370 458 422 q 544 228 544 319 q 508 99 544 153 q 405 15 472 44 q 248 -15 338 -15 m 498 856 l 360 856 l 281 1028 l 203 856 l 64 856 l 194 1122 l 368 1122 l 498 856 z "}}}
